<svg width="65" height="65" viewBox="0 0 65 65" fill="none" xmlns="http://www.w3.org/2000/svg">
<path d="M65 32.5C65 50.4493 50.4493 65 32.5 65C14.5507 65 0 50.4493 0 32.5C0 14.5507 14.5507 0 32.5 0C50.4493 0 65 14.5507 65 32.5Z" fill="#F92A47"/>
<path fill-rule="evenodd" clip-rule="evenodd" d="M32.5 63C49.3447 63 63 49.3447 63 32.5C63 15.6553 49.3447 2 32.5 2C15.6553 2 2 15.6553 2 32.5C2 49.3447 15.6553 63 32.5 63ZM32.5 65C50.4493 65 65 50.4493 65 32.5C65 14.5507 50.4493 0 32.5 0C14.5507 0 0 14.5507 0 32.5C0 50.4493 14.5507 65 32.5 65Z" fill="white"/>
<path fill-rule="evenodd" clip-rule="evenodd" d="M14.0605 42.9715C13.8717 43.4905 14.1393 44.0643 14.6583 44.2531L23.1158 47.3306C23.6348 47.5194 24.2087 47.2518 24.3975 46.7328C24.5863 46.2138 24.3187 45.64 23.7997 45.4511L17.6109 43.1992L32.9356 36.0515L46.6552 43.0997L40.385 45.1139C39.8592 45.2828 39.5698 45.846 39.7387 46.3718C39.9077 46.8977 40.4708 47.187 40.9967 47.0181L49.5654 44.2655C50.0912 44.0966 50.3806 43.5334 50.2116 43.0076L47.459 34.4388C47.2901 33.913 46.7269 33.6237 46.2011 33.7926C45.6753 33.9615 45.386 34.5247 45.5549 35.0505L47.5691 41.3207L33.9569 34.3277V16.4141L38.6137 21.071C39.0042 21.4615 39.6374 21.4615 40.0279 21.071C40.4184 20.6805 40.4184 20.0473 40.0279 19.6568L33.664 13.2928C33.2734 12.9023 32.6403 12.9023 32.2497 13.2928L25.8858 19.6568C25.4953 20.0473 25.4953 20.6805 25.8858 21.071C26.2763 21.4615 26.9095 21.4615 27.3 21.071L31.9569 16.4141L31.9569 34.3012L16.7655 41.3867L19.0174 35.1978C19.2063 34.6788 18.9386 34.105 18.4196 33.9162C17.9006 33.7273 17.3268 33.995 17.138 34.514L14.0605 42.9715Z" fill="white"/>
</svg>
