<svg width="57" height="36" viewBox="0 0 57 36" fill="none" xmlns="http://www.w3.org/2000/svg">
<g opacity="0.6">
<path d="M4.02332e-05 31.25L3.75003 35.75L11.25 34.625L7.50001 30.125L4.02332e-05 31.25Z" fill="#929DB1"/>
<path d="M7.50002 30.125L11.25 34.625L12 27.5L8.25001 23L7.50002 30.125Z" fill="#A7B3C6"/>
<path d="M0.750027 24.125L-4.82725e-06 31.25L7.5 30.125L8.25 23L0.750027 24.125Z" fill="#D1DEED"/>
</g>
<path d="M55.2146 34.4651C55.2146 34.3204 55.258 34.1789 55.3392 34.0586C55.4205 33.9382 55.536 33.8444 55.6711 33.7891C55.8063 33.7337 55.955 33.7192 56.0984 33.7474C56.2419 33.7757 56.3736 33.8454 56.4771 33.9477C56.5805 34.0501 56.6509 34.1804 56.6794 34.3224C56.708 34.4643 56.6933 34.6115 56.6373 34.7452C56.5814 34.8789 56.4866 34.9932 56.365 35.0736C56.2434 35.154 56.1004 35.1969 55.9541 35.1969C55.857 35.1969 55.7608 35.178 55.6711 35.1412C55.5814 35.1044 55.4999 35.0505 55.4312 34.9826C55.3625 34.9146 55.308 34.8339 55.2709 34.7451C55.2337 34.6564 55.2146 34.5612 55.2146 34.4651V34.4651Z" fill="#929DB1"/>
<path d="M47.0798 34.4651C47.0798 34.3204 47.1232 34.1789 47.2045 34.0586C47.2857 33.9382 47.4012 33.8444 47.5364 33.7891C47.6715 33.7337 47.8202 33.7192 47.9637 33.7474C48.1071 33.7757 48.2389 33.8454 48.3423 33.9477C48.4457 34.0501 48.5161 34.1804 48.5447 34.3224C48.5732 34.4643 48.5586 34.6115 48.5026 34.7452C48.4466 34.8789 48.3518 34.9932 48.2302 35.0736C48.1086 35.154 47.9656 35.1969 47.8194 35.1969C47.7222 35.1969 47.6261 35.178 47.5363 35.1412C47.4466 35.1044 47.3651 35.0505 47.2964 34.9826C47.2278 34.9146 47.1733 34.8339 47.1361 34.7451C47.099 34.6564 47.0798 34.5612 47.0798 34.4651Z" fill="#929DB1"/>
<path d="M38.9456 34.4651C38.9456 34.3204 38.9889 34.1789 39.0702 34.0586C39.1515 33.9382 39.267 33.8444 39.4021 33.7891C39.5372 33.7337 39.6859 33.7192 39.8294 33.7474C39.9728 33.7757 40.1046 33.8454 40.208 33.9477C40.3114 34.0501 40.3819 34.1804 40.4104 34.3224C40.4389 34.4643 40.4243 34.6115 40.3683 34.7452C40.3123 34.8789 40.2175 34.9932 40.0959 35.0736C39.9743 35.154 39.8313 35.1969 39.6851 35.1969C39.588 35.1969 39.4918 35.178 39.4021 35.1412C39.3123 35.1044 39.2308 35.0505 39.1621 34.9826C39.0935 34.9146 39.039 34.8339 39.0018 34.7451C38.9647 34.6564 38.9456 34.5612 38.9456 34.4651V34.4651Z" fill="#929DB1"/>
<path d="M30.4412 34.4651C30.4412 34.3204 30.4846 34.1789 30.5658 34.0586C30.6471 33.9382 30.7626 33.8444 30.8977 33.7891C31.0328 33.7337 31.1815 33.7192 31.325 33.7474C31.4684 33.7757 31.6002 33.8454 31.7036 33.9477C31.807 34.0501 31.8775 34.1804 31.906 34.3224C31.9345 34.4643 31.9199 34.6115 31.8639 34.7452C31.8079 34.8789 31.7132 34.9932 31.5915 35.0736C31.4699 35.154 31.327 35.1969 31.1807 35.1969C31.0836 35.1969 30.9874 35.178 30.8977 35.1412C30.808 35.1044 30.7264 35.0505 30.6578 34.9826C30.5891 34.9146 30.5346 34.8339 30.4975 34.7451C30.4603 34.6564 30.4412 34.5612 30.4412 34.4651Z" fill="#929DB1"/>
<path d="M22.3063 34.465C22.3063 34.3203 22.3497 34.1788 22.4309 34.0584C22.5121 33.938 22.6275 33.8442 22.7626 33.7888C22.8977 33.7333 23.0464 33.7188 23.1898 33.747C23.3332 33.7752 23.465 33.8449 23.5684 33.9473C23.6718 34.0496 23.7423 34.18 23.7708 34.322C23.7994 34.464 23.7848 34.6111 23.7288 34.7449C23.6729 34.8786 23.5782 34.9929 23.4566 35.0734C23.335 35.1538 23.1921 35.1968 23.0459 35.1968C22.9488 35.1968 22.8526 35.1779 22.7629 35.1412C22.6732 35.1044 22.5917 35.0505 22.523 34.9826C22.4543 34.9146 22.3998 34.8339 22.3627 34.7451C22.3255 34.6563 22.3064 34.5612 22.3063 34.465Z" fill="#929DB1"/>
<path d="M55.2146 26.4155C55.2146 26.2708 55.258 26.1293 55.3393 26.009C55.4205 25.8886 55.536 25.7948 55.6711 25.7395C55.8063 25.6841 55.955 25.6696 56.0984 25.6978C56.2419 25.7261 56.3736 25.7958 56.4771 25.8981C56.5805 26.0004 56.6509 26.1308 56.6794 26.2728C56.708 26.4147 56.6933 26.5619 56.6374 26.6956C56.5814 26.8293 56.4866 26.9436 56.365 27.024C56.2434 27.1044 56.1004 27.1473 55.9541 27.1473C55.857 27.1473 55.7608 27.1284 55.6711 27.0916C55.5814 27.0548 55.4999 27.0009 55.4312 26.9329C55.3625 26.865 55.308 26.7843 55.2709 26.6955C55.2337 26.6068 55.2146 26.5116 55.2146 26.4155Z" fill="#929DB1"/>
<path d="M47.0798 26.4155C47.0798 26.2708 47.1232 26.1293 47.2045 26.009C47.2857 25.8886 47.4012 25.7948 47.5364 25.7395C47.6715 25.6841 47.8202 25.6696 47.9637 25.6978C48.1071 25.7261 48.2389 25.7958 48.3423 25.8981C48.4457 26.0004 48.5161 26.1308 48.5447 26.2728C48.5732 26.4147 48.5586 26.5619 48.5026 26.6956C48.4466 26.8293 48.3518 26.9436 48.2302 27.024C48.1086 27.1044 47.9656 27.1473 47.8194 27.1473C47.7222 27.1473 47.6261 27.1284 47.5363 27.0916C47.4466 27.0548 47.3651 27.0009 47.2964 26.9329C47.2278 26.865 47.1733 26.7843 47.1361 26.6955C47.099 26.6068 47.0798 26.5116 47.0798 26.4155V26.4155Z" fill="#929DB1"/>
<path d="M38.9456 26.4155C38.9456 26.2708 38.9889 26.1293 39.0702 26.009C39.1515 25.8886 39.267 25.7948 39.4021 25.7395C39.5372 25.6841 39.6859 25.6696 39.8294 25.6978C39.9728 25.7261 40.1046 25.7958 40.208 25.8981C40.3114 26.0004 40.3819 26.1308 40.4104 26.2728C40.4389 26.4147 40.4243 26.5619 40.3683 26.6956C40.3123 26.8293 40.2175 26.9436 40.0959 27.024C39.9743 27.1044 39.8313 27.1473 39.6851 27.1473C39.588 27.1473 39.4918 27.1284 39.4021 27.0916C39.3123 27.0548 39.2308 27.0009 39.1622 26.933C39.0935 26.865 39.039 26.7843 39.0018 26.6955C38.9647 26.6068 38.9456 26.5116 38.9456 26.4155Z" fill="#929DB1"/>
<path d="M30.4412 26.4155C30.4412 26.2708 30.4846 26.1293 30.5658 26.009C30.6471 25.8886 30.7626 25.7948 30.8977 25.7395C31.0328 25.6841 31.1815 25.6696 31.325 25.6978C31.4684 25.7261 31.6002 25.7958 31.7036 25.8981C31.807 26.0004 31.8775 26.1308 31.906 26.2728C31.9345 26.4147 31.9199 26.5619 31.8639 26.6956C31.8079 26.8293 31.7132 26.9436 31.5915 27.024C31.4699 27.1044 31.327 27.1473 31.1807 27.1473C31.0836 27.1473 30.9874 27.1284 30.8977 27.0916C30.808 27.0548 30.7264 27.0009 30.6578 26.933C30.5891 26.865 30.5346 26.7843 30.4975 26.6955C30.4603 26.6068 30.4412 26.5116 30.4412 26.4155Z" fill="#929DB1"/>
<path d="M22.3064 26.4155C22.3064 26.2708 22.3498 26.1293 22.4311 26.009C22.5123 25.8886 22.6278 25.7948 22.7629 25.7395C22.8981 25.6841 23.0468 25.6696 23.1902 25.6978C23.3337 25.7261 23.4654 25.7958 23.5689 25.8981C23.6723 26.0004 23.7427 26.1308 23.7712 26.2728C23.7998 26.4147 23.7851 26.5619 23.7292 26.6956C23.6732 26.8293 23.5784 26.9436 23.4568 27.024C23.3352 27.1044 23.1922 27.1473 23.0459 27.1473C22.9488 27.1473 22.8526 27.1284 22.7629 27.0916C22.6732 27.0548 22.5917 27.0009 22.523 26.9329C22.4543 26.865 22.3998 26.7843 22.3627 26.6955C22.3255 26.6068 22.3064 26.5116 22.3064 26.4155Z" fill="#929DB1"/>
<path d="M56.4771 17.4826C56.1883 17.1968 55.72 17.1968 55.4312 17.4826C55.1424 17.7683 55.1424 18.2317 55.4312 18.5174C55.72 18.8032 56.1882 18.8032 56.477 18.5175C56.7658 18.2317 56.7659 17.7684 56.4771 17.4826Z" fill="#929DB1"/>
<path d="M47.0799 18C47.0799 17.8553 47.1232 17.7138 47.2045 17.5934C47.2858 17.4731 47.4013 17.3793 47.5364 17.3239C47.6715 17.2686 47.8202 17.2541 47.9637 17.2823C48.1071 17.3106 48.2389 17.3803 48.3423 17.4826C48.4457 17.5849 48.5161 17.7153 48.5447 17.8573C48.5732 17.9992 48.5586 18.1463 48.5026 18.2801C48.4466 18.4138 48.3518 18.528 48.2302 18.6085C48.1086 18.6889 47.9656 18.7318 47.8194 18.7318C47.7222 18.7318 47.6261 18.7128 47.5364 18.6761C47.4466 18.6393 47.3651 18.5854 47.2964 18.5174C47.2278 18.4495 47.1733 18.3688 47.1361 18.28C47.099 18.1912 47.0798 18.0961 47.0799 18Z" fill="#929DB1"/>
<path d="M38.9456 18C38.9456 17.8553 38.989 17.7138 39.0702 17.5934C39.1515 17.4731 39.267 17.3793 39.4021 17.3239C39.5372 17.2686 39.6859 17.2541 39.8294 17.2823C39.9728 17.3106 40.1046 17.3803 40.208 17.4826C40.3114 17.5849 40.3819 17.7153 40.4104 17.8573C40.4389 17.9992 40.4243 18.1463 40.3683 18.2801C40.3123 18.4138 40.2176 18.528 40.0959 18.6085C39.9743 18.6889 39.8313 18.7318 39.6851 18.7318C39.588 18.7318 39.4918 18.7128 39.4021 18.6761C39.3123 18.6393 39.2308 18.5854 39.1622 18.5174C39.0935 18.4495 39.039 18.3688 39.0018 18.28C38.9647 18.1912 38.9456 18.0961 38.9456 18Z" fill="#929DB1"/>
<path d="M30.4412 18C30.4412 17.8553 30.4846 17.7138 30.5658 17.5934C30.6471 17.4731 30.7626 17.3793 30.8977 17.3239C31.0328 17.2686 31.1815 17.2541 31.325 17.2823C31.4684 17.3106 31.6002 17.3803 31.7036 17.4826C31.807 17.5849 31.8775 17.7153 31.906 17.8573C31.9345 17.9992 31.9199 18.1463 31.8639 18.2801C31.8079 18.4138 31.7132 18.528 31.5915 18.6085C31.4699 18.6889 31.3269 18.7318 31.1807 18.7318C31.0836 18.7318 30.9874 18.7128 30.8977 18.6761C30.808 18.6393 30.7264 18.5854 30.6578 18.5174C30.5891 18.4495 30.5346 18.3688 30.4975 18.28C30.4603 18.1912 30.4412 18.0961 30.4412 18Z" fill="#929DB1"/>
<path d="M22.3064 18C22.3064 17.8553 22.3498 17.7138 22.4311 17.5934C22.5123 17.4731 22.6278 17.3793 22.7629 17.3239C22.8981 17.2686 23.0468 17.2541 23.1902 17.2823C23.3337 17.3106 23.4654 17.3803 23.5689 17.4826C23.6723 17.5849 23.7427 17.7153 23.7712 17.8573C23.7998 17.9992 23.7851 18.1463 23.7291 18.2801C23.6732 18.4138 23.5784 18.528 23.4568 18.6085C23.3352 18.6889 23.1922 18.7318 23.0459 18.7318C22.9488 18.7318 22.8526 18.7128 22.7629 18.6761C22.6732 18.6393 22.5917 18.5854 22.523 18.5174C22.4543 18.4495 22.3998 18.3688 22.3627 18.28C22.3255 18.1912 22.3064 18.0961 22.3064 18Z" fill="#929DB1"/>
<path d="M55.2146 9.95038C55.2146 9.80565 55.258 9.66417 55.3393 9.54384C55.4205 9.42351 55.536 9.32972 55.6711 9.27434C55.8063 9.21896 55.955 9.20447 56.0984 9.23271C56.2419 9.26095 56.3736 9.33065 56.4771 9.43299C56.5805 9.53533 56.6509 9.66572 56.6794 9.80766C56.708 9.94961 56.6933 10.0967 56.6374 10.2305C56.5814 10.3642 56.4866 10.4784 56.365 10.5588C56.2434 10.6392 56.1004 10.6822 55.9541 10.6822C55.857 10.6822 55.7608 10.6632 55.6711 10.6265C55.5814 10.5897 55.4999 10.5358 55.4312 10.4678C55.3625 10.3999 55.308 10.3192 55.2709 10.2304C55.2337 10.1416 55.2146 10.0465 55.2146 9.95038Z" fill="#929DB1"/>
<path d="M47.0799 9.95037C47.0799 9.80565 47.1232 9.66417 47.2045 9.54384C47.2858 9.42351 47.4012 9.32972 47.5364 9.27434C47.6715 9.21896 47.8202 9.20447 47.9637 9.23271C48.1071 9.26095 48.2389 9.33065 48.3423 9.43299C48.4457 9.53533 48.5161 9.66572 48.5447 9.80766C48.5732 9.94961 48.5586 10.0967 48.5026 10.2305C48.4466 10.3642 48.3518 10.4784 48.2302 10.5588C48.1086 10.6392 47.9656 10.6822 47.8194 10.6822C47.7222 10.6822 47.6261 10.6632 47.5363 10.6265C47.4466 10.5897 47.3651 10.5358 47.2964 10.4678C47.2278 10.3999 47.1733 10.3192 47.1361 10.2304C47.099 10.1416 47.0798 10.0465 47.0799 9.95037Z" fill="#929DB1"/>
<path d="M38.9456 9.95037C38.9456 9.80565 38.989 9.66417 39.0702 9.54384C39.1515 9.42351 39.267 9.32972 39.4021 9.27434C39.5372 9.21896 39.6859 9.20447 39.8294 9.23271C39.9728 9.26095 40.1046 9.33065 40.208 9.43299C40.3114 9.53533 40.3819 9.66572 40.4104 9.80766C40.4389 9.94961 40.4243 10.0967 40.3683 10.2304C40.3123 10.3642 40.2176 10.4784 40.0959 10.5588C39.9743 10.6392 39.8313 10.6822 39.6851 10.6822C39.588 10.6822 39.4918 10.6632 39.4021 10.6265C39.3123 10.5897 39.2308 10.5358 39.1621 10.4678C39.0935 10.3999 39.039 10.3192 39.0018 10.2304C38.9647 10.1416 38.9456 10.0465 38.9456 9.95037Z" fill="#929DB1"/>
<path d="M30.4412 9.95037C30.4412 9.80565 30.4846 9.66417 30.5658 9.54384C30.6471 9.42351 30.7626 9.32972 30.8977 9.27434C31.0328 9.21896 31.1815 9.20448 31.325 9.23271C31.4684 9.26095 31.6002 9.33065 31.7036 9.43299C31.807 9.53533 31.8775 9.66572 31.906 9.80767C31.9345 9.94961 31.9199 10.0967 31.8639 10.2304C31.8079 10.3642 31.7132 10.4784 31.5915 10.5588C31.4699 10.6392 31.327 10.6822 31.1807 10.6822C31.0836 10.6822 30.9874 10.6632 30.8977 10.6265C30.808 10.5897 30.7264 10.5358 30.6578 10.4678C30.5891 10.3999 30.5346 10.3192 30.4975 10.2304C30.4603 10.1416 30.4412 10.0465 30.4412 9.95037Z" fill="#929DB1"/>
<path d="M22.3064 9.95038C22.3064 9.80565 22.3498 9.66417 22.4311 9.54384C22.5123 9.42351 22.6278 9.32972 22.7629 9.27434C22.8981 9.21896 23.0468 9.20447 23.1902 9.23271C23.3337 9.26095 23.4654 9.33065 23.5689 9.43299C23.6723 9.53533 23.7427 9.66572 23.7712 9.80767C23.7998 9.94961 23.7851 10.0967 23.7291 10.2304C23.6732 10.3642 23.5784 10.4784 23.4568 10.5588C23.3352 10.6393 23.1922 10.6822 23.0459 10.6822C22.9488 10.6822 22.8526 10.6632 22.7629 10.6265C22.6732 10.5897 22.5917 10.5358 22.523 10.4678C22.4543 10.3999 22.3998 10.3192 22.3627 10.2304C22.3255 10.1416 22.3064 10.0465 22.3064 9.95038V9.95038Z" fill="#929DB1"/>
<path d="M55.2146 1.53486C55.2146 1.39014 55.258 1.24866 55.3393 1.12833C55.4205 1.00799 55.536 0.91421 55.6711 0.85883C55.8063 0.80345 55.955 0.788961 56.0984 0.8172C56.2419 0.845439 56.3736 0.915137 56.4771 1.01748C56.5805 1.11982 56.6509 1.2502 56.6794 1.39215C56.708 1.5341 56.6933 1.68123 56.6374 1.81494C56.5814 1.94865 56.4866 2.06293 56.365 2.14333C56.2434 2.22374 56.1004 2.26665 55.9541 2.26665C55.857 2.26665 55.7608 2.24773 55.6711 2.21095C55.5814 2.17418 55.4999 2.12027 55.4312 2.05232C55.3625 1.98437 55.308 1.90369 55.2709 1.81491C55.2337 1.72612 55.2146 1.63096 55.2146 1.53486Z" fill="#929DB1"/>
<path d="M47.0798 1.53486C47.0798 1.39014 47.1232 1.24866 47.2045 1.12833C47.2858 1.00799 47.4012 0.91421 47.5364 0.85883C47.6715 0.80345 47.8202 0.788961 47.9637 0.8172C48.1071 0.845439 48.2389 0.915135 48.3423 1.01748C48.4457 1.11982 48.5161 1.2502 48.5447 1.39215C48.5732 1.5341 48.5586 1.68123 48.5026 1.81494C48.4466 1.94865 48.3518 2.06293 48.2302 2.14333C48.1086 2.22374 47.9656 2.26665 47.8194 2.26665C47.7222 2.26665 47.6261 2.24773 47.5363 2.21095C47.4466 2.17418 47.3651 2.12027 47.2964 2.05232C47.2278 1.98436 47.1733 1.90369 47.1361 1.81491C47.099 1.72612 47.0798 1.63096 47.0798 1.53486Z" fill="#929DB1"/>
<path d="M38.9456 1.53486C38.9456 1.39013 38.989 1.24866 39.0702 1.12833C39.1515 1.00799 39.267 0.914208 39.4021 0.858828C39.5372 0.803448 39.6859 0.788961 39.8294 0.8172C39.9728 0.84544 40.1046 0.915136 40.208 1.01748C40.3114 1.11982 40.3819 1.25021 40.4104 1.39215C40.4389 1.5341 40.4243 1.68123 40.3683 1.81494C40.3123 1.94865 40.2176 2.06293 40.0959 2.14333C39.9743 2.22374 39.8313 2.26665 39.6851 2.26665C39.588 2.26665 39.4918 2.24773 39.4021 2.21095C39.3123 2.17418 39.2308 2.12027 39.1621 2.05232C39.0935 1.98436 39.039 1.90369 39.0018 1.81491C38.9647 1.72612 38.9456 1.63096 38.9456 1.53486Z" fill="#929DB1"/>
<path d="M30.4412 1.53486C30.4412 1.39014 30.4846 1.24866 30.5658 1.12833C30.6471 1.00799 30.7626 0.914208 30.8977 0.858827C31.0328 0.803447 31.1815 0.78896 31.325 0.817199C31.4684 0.845438 31.6002 0.915139 31.7036 1.01748C31.807 1.11982 31.8775 1.2502 31.906 1.39215C31.9345 1.5341 31.9199 1.68123 31.8639 1.81493C31.8079 1.94864 31.7132 2.06293 31.5915 2.14333C31.4699 2.22374 31.3269 2.26665 31.1807 2.26664C31.0836 2.26665 30.9874 2.24772 30.8977 2.21095C30.808 2.17417 30.7264 2.12027 30.6578 2.05232C30.5891 1.98437 30.5346 1.90369 30.4975 1.81491C30.4603 1.72612 30.4412 1.63096 30.4412 1.53486V1.53486Z" fill="#929DB1"/>
<path d="M22.3064 1.53486C22.3064 1.39013 22.3498 1.24866 22.4311 1.12833C22.5123 1.00799 22.6278 0.91421 22.7629 0.85883C22.8981 0.80345 23.0468 0.788962 23.1902 0.817201C23.3337 0.84544 23.4654 0.915134 23.5689 1.01747C23.6723 1.11981 23.7427 1.25021 23.7712 1.39215C23.7998 1.5341 23.7851 1.68123 23.7291 1.81494C23.6732 1.94865 23.5784 2.06293 23.4568 2.14333C23.3352 2.22374 23.1922 2.26665 23.0459 2.26664C22.9488 2.26665 22.8526 2.24772 22.7629 2.21095C22.6732 2.17418 22.5917 2.12027 22.523 2.05232C22.4543 1.98436 22.3998 1.90369 22.3627 1.81491C22.3255 1.72612 22.3064 1.63096 22.3064 1.53486V1.53486Z" fill="#929DB1"/>
</svg>
