<svg width="152" height="44" viewBox="0 0 152 44" fill="none" xmlns="http://www.w3.org/2000/svg">
<path d="M145.341 38.3156C148.318 38.3156 150.43 37.773 152 36.6367V31.3855C150.375 32.5218 148.426 33.2263 145.719 33.2263C141.118 33.2263 139.224 29.6526 139.224 24.0222C139.224 18.1204 141.552 15.0893 145.774 15.0893C148.264 15.0893 150.7 15.9557 152 16.7681V11.2996C150.646 10.5412 148.264 10 145.07 10C136.842 10 132.563 15.9017 132.563 24.1841C132.563 33.2803 136.732 38.3156 145.341 38.3156V38.3156ZM105.062 35.9322V30.681C103.059 32.0346 99.7027 33.2263 96.5622 33.2263C91.8509 33.2263 90.0654 31.0062 89.7942 26.4582H105.332V23.0478C105.332 13.5737 101.163 10 94.7214 10C86.871 10 83.134 16.0097 83.134 24.2381C83.134 33.7135 87.7914 38.3142 96.0197 38.3142C100.135 38.3142 103.167 37.2319 105.062 35.9322V35.9322ZM46.0504 10.5412V21.3149H37.4415V10.5412H31V37.773H37.4415V26.4055H46.0504V37.7744H52.4933V10.5438H46.0504V10.5412ZM81.5658 32.6864H78.6953V10.5412H59.9105V12.8692C59.9105 19.5281 59.4786 28.137 57.2046 32.6851H55.2005V44H61.1562V37.773H75.6114V44H81.5671V32.6851L81.5658 32.6864ZM125.635 37.7744H132.943L122.602 23.1031L131.698 10.5425H125.202L116.105 23.1031V10.5425H109.664V37.7744H116.105V24.4014L125.635 37.773V37.7744ZM94.6121 15.0906C97.8066 15.0906 98.781 17.7438 98.781 21.1543V21.6954H89.7942C89.9574 17.3633 91.527 15.0906 94.6134 15.0906H94.6121ZM72.2537 32.6864H63.1576C64.9445 28.5716 65.4317 21.1543 65.4317 16.4442V15.6318H72.2524V32.6864H72.2537Z" fill="black"/>
<path d="M25 38H18.4522V5.13981H15.5304C10.1737 5.13981 7.35983 7.87262 7.35983 11.9193C7.35983 16.5112 9.30771 18.6443 13.3114 21.3784L16.6123 23.6205L7.08871 38H0L8.54962 25.1512C3.62595 21.5965 0.866017 18.1522 0.866017 12.3023C0.866017 4.97491 5.89892 0 15.4764 0H25V38Z" fill="#FC3F1D"/>
</svg>
