<svg width="72" height="72" viewBox="0 0 72 72" fill="none" xmlns="http://www.w3.org/2000/svg">
<g clip-path="url(#clip0_1538_14067)">
<circle cx="39.5" cy="32.5002" r="32.5" fill="#F92A47"/>
<path fill-rule="evenodd" clip-rule="evenodd" d="M32.5 70.0002C49.3447 70.0002 63 56.3449 63 39.5002C63 22.6556 49.3447 9.00024 32.5 9.00024C15.6553 9.00024 2 22.6556 2 39.5002C2 56.3449 15.6553 70.0002 32.5 70.0002ZM32.5 72.0002C50.4493 72.0002 65 57.4495 65 39.5002C65 21.551 50.4493 7.00024 32.5 7.00024C14.5507 7.00024 0 21.551 0 39.5002C0 57.4495 14.5507 72.0002 32.5 72.0002Z" fill="white"/>
<path fill-rule="evenodd" clip-rule="evenodd" d="M32.7929 54.9783C33.2551 55.0762 33.7227 54.8372 33.9142 54.4053C34.7958 52.4167 36.7659 51.135 38.94 51.135H49.3992C49.8239 51.135 50.2312 50.9662 50.5314 50.6659C50.8316 50.3656 51.0002 49.9583 51.0002 49.5338V26.6012C51.0002 26.1767 50.8316 25.7695 50.5314 25.4691C50.2312 25.1688 49.8239 25 49.3992 25H37.293C34.3694 25 32 27.3708 32 30.2945V54C32 54.4725 32.3307 54.8805 32.7929 54.9783ZM34 50.9928V30.2945C34 28.4747 35.4747 27 37.293 27H49.0002V49.135H38.94C37.0862 49.135 35.3413 49.8182 34 50.9928Z" fill="white"/>
<path fill-rule="evenodd" clip-rule="evenodd" d="M33.2074 54.9783C33.6696 54.8805 34.0002 54.4725 34.0002 54V30.2945C34.0002 27.3708 31.6308 25 28.7072 25H16.601C16.1763 25 15.769 25.1688 15.4688 25.4691C15.1686 25.7694 15 26.1767 15 26.6012V49.5338C15 49.9583 15.1686 50.3656 15.4688 50.6659C15.769 50.9662 16.1763 51.135 16.601 51.135H27.0602C29.2343 51.135 31.2045 52.4168 32.086 54.4053C32.2775 54.8372 32.7452 55.0762 33.2074 54.9783ZM32.0002 50.9929C30.6589 49.8182 28.914 49.135 27.0602 49.135H17V27H28.7072C30.5256 27 32.0002 28.4747 32.0002 30.2945V50.9929Z" fill="white"/>
<path fill-rule="evenodd" clip-rule="evenodd" d="M36 31C36 31.5523 36.4477 32 37 32H47C47.5523 32 48 31.5523 48 31C48 30.4477 47.5523 30 47 30H37C36.4477 30 36 30.4477 36 31Z" fill="white"/>
<path fill-rule="evenodd" clip-rule="evenodd" d="M36 36C36 36.5523 36.4477 37 37 37H47C47.5523 37 48 36.5523 48 36C48 35.4477 47.5523 35 47 35H37C36.4477 35 36 35.4477 36 36Z" fill="white"/>
<path fill-rule="evenodd" clip-rule="evenodd" d="M36 41C36 41.5523 36.4477 42 37 42H47C47.5523 42 48 41.5523 48 41C48 40.4477 47.5523 40 47 40H37C36.4477 40 36 40.4477 36 41Z" fill="white"/>
<path fill-rule="evenodd" clip-rule="evenodd" d="M36 46C36 46.5523 36.4477 47 37 47H47C47.5523 47 48 46.5523 48 46C48 45.4477 47.5523 45 47 45H37C36.4477 45 36 45.4477 36 46Z" fill="white"/>
<path fill-rule="evenodd" clip-rule="evenodd" d="M18 31C18 31.5523 18.4477 32 19 32H29C29.5523 32 30 31.5523 30 31C30 30.4477 29.5523 30 29 30H19C18.4477 30 18 30.4477 18 31Z" fill="white"/>
<path fill-rule="evenodd" clip-rule="evenodd" d="M18 36C18 36.5523 18.4477 37 19 37H29C29.5523 37 30 36.5523 30 36C30 35.4477 29.5523 35 29 35H19C18.4477 35 18 35.4477 18 36Z" fill="white"/>
<path fill-rule="evenodd" clip-rule="evenodd" d="M18 41C18 41.5523 18.4477 42 19 42H29C29.5523 42 30 41.5523 30 41C30 40.4477 29.5523 40 29 40H19C18.4477 40 18 40.4477 18 41Z" fill="white"/>
<path fill-rule="evenodd" clip-rule="evenodd" d="M18 46C18 46.5523 18.4477 47 19 47H29C29.5523 47 30 46.5523 30 46C30 45.4477 29.5523 45 29 45H19C18.4477 45 18 45.4477 18 46Z" fill="white"/>
</g>
<defs>
<clipPath id="clip0_1538_14067">
<rect width="72" height="72" fill="white"/>
</clipPath>
</defs>
</svg>
