<svg width="65" height="65" viewBox="0 0 65 65" fill="none" xmlns="http://www.w3.org/2000/svg">
<path d="M65 32.5C65 50.4493 50.4493 65 32.5 65C14.5507 65 0 50.4493 0 32.5C0 14.5507 14.5507 0 32.5 0C50.4493 0 65 14.5507 65 32.5Z" fill="#F92A47"/>
<path fill-rule="evenodd" clip-rule="evenodd" d="M32.5 63C49.3447 63 63 49.3447 63 32.5C63 15.6553 49.3447 2 32.5 2C15.6553 2 2 15.6553 2 32.5C2 49.3447 15.6553 63 32.5 63ZM32.5 65C50.4493 65 65 50.4493 65 32.5C65 14.5507 50.4493 0 32.5 0C14.5507 0 0 14.5507 0 32.5C0 50.4493 14.5507 65 32.5 65Z" fill="white"/>
<path fill-rule="evenodd" clip-rule="evenodd" d="M15.8 20C15.3589 20 15 20.3581 15 20.8015V44.2207C15 44.6642 15.3589 45.0222 15.8 45.0222H33.8C34.3523 45.0222 34.8 45.4699 34.8 46.0222C34.8 46.5745 34.3523 47.0222 33.8 47.0222H15.8C14.2528 47.0222 13 45.7672 13 44.2207V20.8015C13 19.255 14.2528 18 15.8 18H48.2C49.7472 18 51 19.2551 51 20.8015V44.2207C51 45.7672 49.7472 47.0222 48.2 47.0222H41C40.4477 47.0222 40 46.5745 40 46.0222C40 45.4699 40.4477 45.0222 41 45.0222H48.2C48.6411 45.0222 49 44.6642 49 44.2207V20.8015C49 20.358 48.6411 20 48.2 20H15.8Z" fill="white"/>
<path fill-rule="evenodd" clip-rule="evenodd" d="M20.1992 25.1113H43.7992V27.1113H20.1992V25.1113Z" fill="white"/>
<path fill-rule="evenodd" clip-rule="evenodd" d="M20.1992 31.5107H27.9592V33.5107H20.1992V31.5107Z" fill="white"/>
<path fill-rule="evenodd" clip-rule="evenodd" d="M20.1992 37.9111H25.7992V39.9111H20.1992V37.9111Z" fill="white"/>
<path d="M37.7602 49.2441L41.3602 51.0003V41.7559C41.3602 41.7559 40.3336 43.0974 37.7602 43.0974C35.1867 43.0974 34.1602 41.7803 34.1602 41.7803V51.0003L37.7602 49.2441Z" fill="white"/>
<path fill-rule="evenodd" clip-rule="evenodd" d="M31 37.8441C31 34.3346 33.8771 31.5107 37.4 31.5107C40.9229 31.5107 43.8 34.3346 43.8 37.8441C43.8 41.3535 40.9229 44.1774 37.4 44.1774C33.8771 44.1774 31 41.3535 31 37.8441ZM37.4 33.5107C34.9582 33.5107 33 35.4625 33 37.8441C33 40.2256 34.9582 42.1774 37.4 42.1774C39.8418 42.1774 41.8 40.2256 41.8 37.8441C41.8 35.4625 39.8418 33.5107 37.4 33.5107Z" fill="white"/>
</svg>
