<svg width="65" height="65" viewBox="0 0 65 65" fill="none" xmlns="http://www.w3.org/2000/svg">
<path d="M65 32.5C65 50.4493 50.4493 65 32.5 65C14.5507 65 0 50.4493 0 32.5C0 14.5507 14.5507 0 32.5 0C50.4493 0 65 14.5507 65 32.5Z" fill="#F92A47"/>
<path fill-rule="evenodd" clip-rule="evenodd" d="M32.5 63C49.3447 63 63 49.3447 63 32.5C63 15.6553 49.3447 2 32.5 2C15.6553 2 2 15.6553 2 32.5C2 49.3447 15.6553 63 32.5 63ZM32.5 65C50.4493 65 65 50.4493 65 32.5C65 14.5507 50.4493 0 32.5 0C14.5507 0 0 14.5507 0 32.5C0 50.4493 14.5507 65 32.5 65Z" fill="white"/>
<path fill-rule="evenodd" clip-rule="evenodd" d="M19.916 30.8525H21.916V38.9823C22.6014 40.0388 25.3215 42.8525 31.5639 42.8525C37.8431 42.8525 40.352 40.0114 40.916 39.0165V30.8525H42.916V39.462L42.8319 39.6539C42.1264 41.264 38.9274 44.8525 31.5639 44.8525C24.1956 44.8525 20.8365 41.2661 20.0289 39.7141L19.916 39.4971V30.8525Z" fill="white"/>
<path fill-rule="evenodd" clip-rule="evenodd" d="M31.1334 15.2529C31.7441 14.9126 32.4882 14.9159 33.0958 15.2616L49.8538 24.7939C51.2143 25.5678 51.1987 27.5341 49.826 28.2863L33.0682 37.4688C32.4748 37.7939 31.7573 37.797 31.1612 37.477L14.0541 28.2945C12.6612 27.5468 12.6455 25.5547 14.0265 24.7852L31.1334 15.2529ZM32.107 17L15 26.5323L32.1071 35.7148L48.8649 26.5324L32.107 17Z" fill="white"/>
<path fill-rule="evenodd" clip-rule="evenodd" d="M30.0565 28.3414C30.3386 27.8666 30.9522 27.7104 31.427 27.9925L39.4875 32.7821V47.2584L42.6231 52.8522H34.758L37.4875 47.2876V33.9201L30.4053 29.7119C29.9306 29.4298 29.7744 28.8162 30.0565 28.3414ZM38.5465 49.67L37.9667 50.8522H39.2092L38.5465 49.67Z" fill="white"/>
</svg>
