<svg width="72" height="72" viewBox="0 0 72 72" fill="none" xmlns="http://www.w3.org/2000/svg">
<path d="M72 32.5C72 50.4493 57.4493 65 39.5 65C21.5507 65 7 50.4493 7 32.5C7 14.5507 21.5507 0 39.5 0C57.4493 0 72 14.5507 72 32.5Z" fill="#F92A47"/>
<path fill-rule="evenodd" clip-rule="evenodd" d="M32.5 70C49.3447 70 63 56.3447 63 39.5C63 22.6553 49.3447 9 32.5 9C15.6553 9 2 22.6553 2 39.5C2 56.3447 15.6553 70 32.5 70ZM32.5 72C50.4493 72 65 57.4493 65 39.5C65 21.5507 50.4493 7 32.5 7C14.5507 7 0 21.5507 0 39.5C0 57.4493 14.5507 72 32.5 72Z" fill="white"/>
<path fill-rule="evenodd" clip-rule="evenodd" d="M20 38H22V46.1297C22.6854 47.1862 25.4055 50 31.6479 50C37.9271 50 40.436 47.1589 41 46.1639V38H43V46.6095L42.9159 46.8013C42.2104 48.4115 39.0114 52 31.6479 52C24.2796 52 20.9204 48.4135 20.1129 46.8616L20 46.6446V38Z" fill="white"/>
<path fill-rule="evenodd" clip-rule="evenodd" d="M31.2174 22.4004C31.8281 22.0601 32.5721 22.0634 33.1798 22.409L49.9378 31.9414C51.2983 32.7153 51.2827 34.6816 49.91 35.4338L33.1522 44.6162C32.5588 44.9414 31.8413 44.9445 31.2452 44.6245L14.1381 35.4419C12.7451 34.6942 12.7295 32.7022 14.1105 31.9327L31.2174 22.4004ZM32.1909 24.1475L15.084 33.6797L32.1911 42.8623L48.9489 33.6798L32.1909 24.1475Z" fill="white"/>
<path fill-rule="evenodd" clip-rule="evenodd" d="M30.1405 35.4888C30.4226 35.014 31.0362 34.8579 31.511 35.14L39.5715 39.9296V54.4059L42.7071 59.9997H34.842L37.5715 54.435V41.0676L30.4893 36.8593C30.0145 36.5772 29.8583 35.9636 30.1405 35.4888ZM38.6305 56.8175L38.0506 57.9997H39.2932L38.6305 56.8175Z" fill="white"/>
</svg>
