<svg width="65" height="65" viewBox="0 0 65 65" fill="none" xmlns="http://www.w3.org/2000/svg">
<path d="M65 32.5C65 50.4493 50.4493 65 32.5 65C14.5507 65 0 50.4493 0 32.5C0 14.5507 14.5507 0 32.5 0C50.4493 0 65 14.5507 65 32.5Z" fill="#F92A47"/>
<path fill-rule="evenodd" clip-rule="evenodd" d="M32.5 63C49.3447 63 63 49.3447 63 32.5C63 15.6553 49.3447 2 32.5 2C15.6553 2 2 15.6553 2 32.5C2 49.3447 15.6553 63 32.5 63ZM32.5 65C50.4493 65 65 50.4493 65 32.5C65 14.5507 50.4493 0 32.5 0C14.5507 0 0 14.5507 0 32.5C0 50.4493 14.5507 65 32.5 65Z" fill="white"/>
<path fill-rule="evenodd" clip-rule="evenodd" d="M45.7071 21.2929C46.0976 21.6834 46.0976 22.3166 45.7071 22.7071L22.7071 45.7071C22.3166 46.0976 21.6834 46.0976 21.2929 45.7071C20.9024 45.3166 20.9024 44.6834 21.2929 44.2929L44.2929 21.2929C44.6834 20.9024 45.3166 20.9024 45.7071 21.2929Z" fill="white"/>
<path fill-rule="evenodd" clip-rule="evenodd" d="M24 21C22.3431 21 21 22.3431 21 24C21 25.6569 22.3431 27 24 27C25.6569 27 27 25.6569 27 24C27 22.3431 25.6569 21 24 21ZM19 24C19 21.2386 21.2386 19 24 19C26.7614 19 29 21.2386 29 24C29 26.7614 26.7614 29 24 29C21.2386 29 19 26.7614 19 24Z" fill="white"/>
<path fill-rule="evenodd" clip-rule="evenodd" d="M42 39C40.3431 39 39 40.3431 39 42C39 43.6569 40.3431 45 42 45C43.6569 45 45 43.6569 45 42C45 40.3431 43.6569 39 42 39ZM37 42C37 39.2386 39.2386 37 42 37C44.7614 37 47 39.2386 47 42C47 44.7614 44.7614 47 42 47C39.2386 47 37 44.7614 37 42Z" fill="white"/>
</svg>
