<svg width="38" height="38" viewBox="0 0 38 38" fill="none" xmlns="http://www.w3.org/2000/svg">
<path d="M19 19H18.5C18.5 19.1326 18.5527 19.2598 18.6464 19.3536L19 19ZM19 36.5C9.33502 36.5 1.5 28.665 1.5 19H0.5C0.5 29.2173 8.78273 37.5 19 37.5V36.5ZM36.5 19C36.5 28.665 28.665 36.5 19 36.5V37.5C29.2173 37.5 37.5 29.2173 37.5 19H36.5ZM19 1.5C28.665 1.5 36.5 9.33502 36.5 19H37.5C37.5 8.78273 29.2173 0.5 19 0.5V1.5ZM19 0.5C8.78273 0.5 0.5 8.78273 0.5 19H1.5C1.5 9.33502 9.33502 1.5 19 1.5V0.5ZM18.5 7.42857V19H19.5V7.42857H18.5ZM18.6464 19.3536L26.3607 27.0678L27.0678 26.3607L19.3536 18.6464L18.6464 19.3536Z" fill="#516174"/>
</svg>
