<svg width="32" height="24" viewBox="0 0 32 24" fill="none" xmlns="http://www.w3.org/2000/svg">
<path d="M28.8642 1.33331H3.1332C2.13844 1.33331 1.33203 2.19048 1.33203 3.24784V20.7521C1.33203 21.8095 2.13844 22.6666 3.1332 22.6666H28.8642C29.859 22.6666 30.6654 21.8095 30.6654 20.7521V3.24784C30.6654 2.19048 29.859 1.33331 28.8642 1.33331Z" fill="white" stroke="#D6DAE2"/>
<path d="M23 1.99994H9C7.34315 1.99994 6 3.34308 6 4.99994V18.9999C6 20.6568 7.34315 21.9999 9 21.9999H23C24.6569 21.9999 26 20.6568 26 18.9999V4.99994C26 3.34308 24.6569 1.99994 23 1.99994Z" fill="white"/>
<path d="M20.7248 9.21869L13.0568 17.5859H10.2443C10.049 17.5859 9.89274 17.3906 9.93181 17.1953L11.8068 5.32025C11.8459 5.04681 12.0802 4.8515 12.3537 4.8515H17.1193C20.4006 4.96869 21.299 6.64838 20.7131 9.2265L20.7248 9.21869Z" fill="#002C8A"/>
<path d="M20.8498 8.44525C22.0217 9.07025 22.2951 10.2421 21.9045 11.8046C21.3967 14.1093 19.8732 15.0859 17.6467 15.1249L17.0217 15.164C16.7873 15.164 16.631 15.3203 16.592 15.5546L16.0842 18.6406C16.0451 18.914 15.8107 19.1093 15.5373 19.1093H13.1935C12.9982 19.1093 12.842 18.914 12.881 18.7187L13.7404 13.1328C13.7795 12.9374 20.8498 8.44525 20.8498 8.44525Z" fill="#009BE1"/>
<path d="M13.6953 13.4062L14.4766 8.44525C14.5022 8.32776 14.5658 8.222 14.6576 8.14432C14.7494 8.06664 14.8643 8.02139 14.9844 8.01556H18.7344C19.6328 8.01556 20.2969 8.17181 20.8438 8.44525C20.6484 10.164 19.8281 12.9374 15.8438 13.0156H14.125C13.9297 13.0156 13.7344 13.1718 13.6953 13.4062Z" fill="#001F6B"/>
</svg>
