<svg width="30" height="23" viewBox="0 0 30 23" fill="none" xmlns="http://www.w3.org/2000/svg">
<path fill-rule="evenodd" clip-rule="evenodd" d="M0 10.6289V12.8711C0 17.4587 0 19.7526 1.35822 21.2284C2.71638 22.7043 4.85454 22.7682 9.13072 22.896C11.1573 22.9566 13.2282 23 15 23C16.7718 23 18.842 22.9566 20.8686 22.8961C25.1448 22.7682 27.2836 22.7043 28.6417 21.2284C30 19.7526 30 17.4587 30 12.8711V10.6289C30 6.04122 30 3.74741 28.6417 2.2715C27.2835 0.79559 25.1451 0.731701 20.8685 0.603927C18.842 0.543384 16.7718 0.5 15 0.5C13.2282 0.5 11.1581 0.543383 9.13154 0.603927C4.85484 0.731701 2.71648 0.795588 1.35823 2.2715C0 3.74741 0 6.04122 0 10.6289ZM11.5742 16.0048L19.0973 11.3173L11.5742 6.62984V16.0048Z" fill="white"/>
</svg>
