<svg width="16" height="16" viewBox="0 0 16 16" fill="none" xmlns="http://www.w3.org/2000/svg">
<g clip-path="url(#clip0_93_14898)">
<path d="M16.0009 8.18171C16.0009 7.6363 15.9553 7.09283 15.8602 6.55518H8.16211V9.6355H12.5707C12.4807 10.1275 12.2898 10.5965 12.0097 11.0142C11.7295 11.4319 11.3659 11.7895 10.9407 12.0656V14.0668H13.5728C15.1136 12.677 16.0009 10.6176 16.0009 8.18171Z" fill="#4285F4"/>
<path d="M8.16127 16C10.3636 16 12.2193 15.2916 13.5719 14.0688L10.9399 12.0676C10.2071 12.5548 9.26439 12.8324 8.16127 12.8324C6.03225 12.8324 4.22605 11.4252 3.57844 9.53076H0.869141V11.5921C1.54814 12.9171 2.58967 14.0311 3.8774 14.8095C5.16512 15.5879 6.6483 16.0001 8.16127 16Z" fill="#34A853"/>
<path d="M3.58018 9.53044C3.23759 8.53709 3.23759 7.46093 3.58018 6.46758V4.4082H0.868907C0.297551 5.52306 0 6.75337 0 8.00095C0 9.24853 0.297551 10.4788 0.868907 11.5937L3.58018 9.53044Z" fill="#FBBC04"/>
<path d="M8.16127 3.16812C9.32513 3.14989 10.4497 3.5807 11.2924 4.36765L13.6234 2.08506C12.1452 0.725796 10.1882 -0.021083 8.16127 0.00045312C6.64831 0.000378588 5.16512 0.412566 3.8774 1.19097C2.58967 1.96937 1.54814 3.08333 0.869141 4.40841L3.58042 6.46972C4.22605 4.57339 6.03225 3.16812 8.16127 3.16812Z" fill="#EA4335"/>
</g>
<defs>
<clipPath id="clip0_93_14898">
<rect width="16" height="16" fill="white"/>
</clipPath>
</defs>
</svg>
