<svg width="65" height="66" viewBox="0 0 65 66" fill="none" xmlns="http://www.w3.org/2000/svg">
<circle cx="32.5" cy="32.915" r="32" stroke="white"/>
<path d="M43.4286 44.1701C45.9533 44.1701 48 42.0991 48 39.5443V34.9184C48 32.3637 45.9533 30.2926 43.4286 30.2926C42.1662 30.2926 41.1429 31.3281 41.1429 32.6055V41.8572C41.1429 43.1346 42.1662 44.1701 43.4286 44.1701ZM43.4286 44.1701C43.4286 46.7249 41.3819 48.796 38.8571 48.796H33.1429M48 38.3878V32.6055C48 23.6638 40.8366 16.415 32 16.415C23.1634 16.415 16 23.6638 16 32.6055V38.3878M33.1429 48.796L30.5137 50.0953C30.1274 50.2862 29.6622 50.2082 29.3594 49.9017L29.1142 49.6536C28.6739 49.2081 28.7469 48.472 29.2662 48.1217L29.4602 47.9908C29.7166 47.8179 30.0386 47.7733 30.3324 47.8701L33.1429 48.796ZM20.5714 44.1701C21.8338 44.1701 22.8571 43.1346 22.8571 41.8572V32.6055C22.8571 31.3281 21.8338 30.2926 20.5714 30.2926C18.0467 30.2926 16 32.3637 16 34.9184V39.5443C16 42.0991 18.0467 44.1701 20.5714 44.1701Z" stroke="white"/>
</svg>
