<svg width="24" height="24" viewBox="0 0 24 24" fill="none" xmlns="http://www.w3.org/2000/svg">
<path d="M8.42857 9.14286H9.85714M14.1429 14.8571H15.5714M15.5714 8.42857L8.42857 15.5714M11.0021 2.41335L9.38919 4.02624C9.12452 4.29091 8.76556 4.43959 8.39127 4.43959H5.85087C5.07144 4.43959 4.43959 5.07144 4.43959 5.85087V8.39127C4.43959 8.76556 4.29091 9.12453 4.02624 9.38919L2.41335 11.0021C1.86222 11.5532 1.86222 12.4468 2.41335 12.9979L4.02624 14.6108C4.29091 14.8755 4.43959 15.2344 4.43959 15.6087V18.1491C4.43959 18.9286 5.07144 19.5604 5.85087 19.5604H8.39127C8.76556 19.5604 9.12452 19.7091 9.38919 19.9738L11.0021 21.5866C11.5532 22.1378 12.4468 22.1378 12.9979 21.5866L14.6108 19.9738C14.8755 19.7091 15.2344 19.5604 15.6087 19.5604H18.1491C18.9286 19.5604 19.5604 18.9286 19.5604 18.1491V15.6087C19.5604 15.2344 19.7091 14.8755 19.9738 14.6108L21.5866 12.9979C22.1378 12.4468 22.1378 11.5532 21.5866 11.0021L19.9738 9.38919C19.7091 9.12453 19.5604 8.76556 19.5604 8.39127V5.85087C19.5604 5.07144 18.9286 4.43959 18.1491 4.43959H15.6087C15.2344 4.43959 14.8755 4.29091 14.6108 4.02624L12.9979 2.41335C12.4468 1.86222 11.5532 1.86222 11.0021 2.41335Z" stroke="white" stroke-width="2"/>
</svg>
