<svg width="24.000000" height="24.000000" viewBox="0 0 24 24" fill="none" xmlns="http://www.w3.org/2000/svg" xmlns:xlink="http://www.w3.org/1999/xlink">
	<desc>
			Created with Pixso.
	</desc>
	<defs/>
	<path id="Vector" d="M11.66 4.11C11.66 4.43 11.93 4.69 12.26 4.69C14.59 4.69 16.49 2.85 16.49 0.58C16.49 0.26 16.22 0 15.88 0C13.55 0 11.66 1.84 11.66 4.11ZM21.08 9.78C19.61 10.85 18.9 12.05 18.9 13.42C18.9 14.79 19.61 15.99 21.08 17.06C21.31 17.23 21.38 17.54 21.25 17.8C19.13 21.93 17.43 24 15.88 24C15.16 24 14.45 23.77 13.76 23.33C12.76 22.68 11.46 22.65 10.42 23.26C9.59 23.74 8.79 24 8.03 24C5.75 24 2 17.17 2 13.42C2 9.42 4.15 6.37 7.43 6.37C8.97 6.37 10.3 6.59 11.42 7.04C11.9 7.23 12.43 7.22 12.89 7C13.8 6.58 15 6.37 16.49 6.37C18.3 6.37 19.88 7.25 21.2 8.96C21.4 9.22 21.34 9.58 21.08 9.78Z" fill="#F92A47" fill-opacity="1.000000" fill-rule="evenodd"/>
</svg>
