<svg width="32" height="24" viewBox="0 0 32 24" fill="none" xmlns="http://www.w3.org/2000/svg">
<path d="M28.8642 1.33331H3.1332C2.13844 1.33331 1.33203 2.19048 1.33203 3.24784V20.7521C1.33203 21.8095 2.13844 22.6666 3.1332 22.6666H28.8642C29.859 22.6666 30.6654 21.8095 30.6654 20.7521V3.24784C30.6654 2.19048 29.859 1.33331 28.8642 1.33331Z" fill="white" stroke="#D6DAE2"/>
<path d="M8.70093 4H14.6876C15.523 4 16.0451 4.72831 15.8493 5.619L13.0604 18.381C12.8646 19.2717 12.0249 20 11.1895 20H5.20282C4.36741 20 3.84534 19.2717 4.04114 18.381L6.82997 5.619C7.02577 4.72369 7.86114 4 8.69652 4H8.70093Z" fill="#D10429"/>
<path d="M14.1629 4H21.0506C21.8859 4 21.5074 4.72831 21.3116 5.619L18.5227 18.381C18.3269 19.2717 18.3878 20 17.5524 20H10.6652C9.82547 20 9.3077 19.2717 9.50783 18.381L12.2968 5.619C12.4925 4.72369 13.3279 4 14.1677 4H14.1633H14.1629Z" fill="#022E64"/>
<path d="M20.8102 4H26.7972C27.6326 4 28.1547 4.72831 27.9589 5.619L25.17 18.381C24.9742 19.2717 24.1344 20 23.2991 20H17.3124C16.4727 20 15.9549 19.2717 16.1507 18.381L18.9397 5.619C19.1354 4.72369 19.9708 4 20.8062 4H20.8105H20.8102Z" fill="#076F74"/>
<path d="M19.8058 16.0311H20.3715L20.5325 15.4512H19.9711L19.8058 16.0311ZM20.2583 14.4352L20.0625 15.1218C20.0625 15.1218 20.2757 15.0058 20.3932 14.9687C20.5107 14.9409 20.6847 14.9177 20.6847 14.9177L20.8196 14.4399H20.254L20.2583 14.4352ZM20.5411 13.4518L20.3541 14.1105C20.3541 14.1105 20.5629 14.0084 20.6804 13.9761C20.7978 13.9436 20.9719 13.9343 20.9719 13.9343L21.1067 13.4564H20.5455L20.5411 13.4518ZM21.7899 13.4518L21.0589 16.0264H21.2547L21.1024 16.5599H20.9066L20.8588 16.7223H20.1625L20.2105 16.5599H18.8008L18.94 16.0682H19.0836L19.8233 13.4518L19.9712 12.923H20.6804L20.6064 13.1874C20.6064 13.1874 20.7935 13.0436 20.9763 12.9925C21.1547 12.9415 22.1815 12.923 22.1815 12.923L22.0292 13.4472H21.7855L21.7899 13.4518Z" fill="#FEFEFE"/>
<path d="M22.0775 12.9227H22.8345L22.8432 13.2242C22.8389 13.2752 22.878 13.2984 22.9694 13.2984H23.1217L22.9825 13.7948H22.5734C22.221 13.8227 22.0861 13.6603 22.0948 13.4794L22.0818 12.9273L22.0775 12.9227ZM22.1706 15.2843H21.4484L21.5702 14.8437H22.3968L22.5143 14.44H21.7007L21.8399 13.9436H24.1024L23.9631 14.44H23.2018L23.0843 14.8437H23.8457L23.7194 15.2843H22.8972L22.7492 15.4699H23.0842L23.1669 16.0266C23.1756 16.0823 23.1756 16.1194 23.193 16.1426C23.2104 16.1611 23.3105 16.1704 23.367 16.1704H23.4671L23.3105 16.7132H23.0538C23.0147 16.7132 22.9537 16.7086 22.871 16.7086C22.7927 16.6993 22.7405 16.6529 22.6883 16.625C22.6404 16.6019 22.5708 16.5415 22.5534 16.4349L22.4751 15.8782L22.101 16.4256C21.9834 16.5972 21.8225 16.7318 21.5484 16.7318H21.0263L21.1655 16.2493H21.3657C21.4222 16.2493 21.4745 16.2261 21.5136 16.2029C21.5528 16.1843 21.5876 16.1658 21.6224 16.1055L22.1706 15.2843ZM14.2705 14.0769H16.1806L16.0413 14.564H15.2799L15.1625 14.9768H15.9457L15.8021 15.4778H15.0233L14.8318 16.1505C14.8101 16.2247 15.0189 16.234 15.0929 16.234L15.4844 16.1783L15.3278 16.735H14.4489C14.3794 16.735 14.3271 16.7257 14.2488 16.7072C14.1748 16.6886 14.14 16.6515 14.1096 16.6005C14.079 16.5448 14.0268 16.5031 14.0616 16.3824L14.314 15.4918H13.8789L14.0225 14.9815H14.4576L14.575 14.5686H14.14L14.2793 14.0815L14.2705 14.0769ZM15.5902 13.1963H16.3733L16.2298 13.702H15.1594L15.042 13.8087C14.9898 13.8597 14.9767 13.8412 14.9114 13.8783C14.8506 13.9107 14.7244 13.9756 14.559 13.9756H14.2153L14.3545 13.4886H14.4589C14.546 13.4886 14.6069 13.4792 14.6373 13.4607C14.6722 13.4376 14.7113 13.3865 14.7504 13.303L14.9462 12.9226H15.7251L15.5902 13.2009V13.1963ZM17.0662 14.0314C17.0662 14.0314 17.2794 13.8227 17.6449 13.7577C17.7276 13.7392 18.2497 13.7484 18.2497 13.7484L18.328 13.47H17.2272L17.0662 14.036L17.0662 14.0314ZM18.1017 14.2448H17.0096L16.9444 14.4813H17.8929C18.006 14.4674 18.0278 14.4859 18.0365 14.4767L18.1061 14.2448H18.1017ZM16.6834 12.9273H17.3491L17.2534 13.2845C17.2534 13.2845 17.4622 13.1036 17.6101 13.0386C17.7581 12.9829 18.0887 12.9273 18.0887 12.9273L19.1677 12.9227L18.7979 14.2309C18.737 14.4535 18.663 14.5974 18.6195 14.6669C18.5804 14.7319 18.5325 14.7922 18.4368 14.8478C18.3454 14.8989 18.2627 14.9313 18.1844 14.936C18.1148 14.9406 18.0017 14.9453 17.8538 14.9453H16.8139L16.5224 15.9798C16.4963 16.0818 16.4832 16.1328 16.5006 16.1606C16.5137 16.1838 16.5528 16.2117 16.6007 16.2117L17.0575 16.1653L16.9009 16.7312H16.3875C16.2221 16.7312 16.1047 16.7266 16.022 16.7219C15.9437 16.7127 15.861 16.7219 15.8044 16.6756C15.7566 16.6292 15.6827 16.5689 15.687 16.5085C15.6913 16.4528 15.7131 16.3601 15.7479 16.2302L16.6834 12.9273Z" fill="#FEFEFE"/>
<path d="M18.6252 15.0095L18.5643 15.3249C18.5383 15.4223 18.5164 15.4966 18.4468 15.5615C18.3729 15.6265 18.2902 15.696 18.0901 15.696L17.7203 15.7146L17.7159 16.0671C17.7116 16.1645 17.7377 16.1552 17.7507 16.1738C17.7681 16.1923 17.7812 16.197 17.7986 16.2063L17.916 16.1969L18.2685 16.1784L18.1205 16.698H17.7159C17.4331 16.698 17.2199 16.6887 17.1546 16.6331C17.085 16.5866 17.0763 16.531 17.0763 16.4289L17.1024 15.0465H17.7507L17.742 15.3294H17.8986C17.9509 15.3294 17.9901 15.3248 18.0118 15.3109C18.0335 15.2969 18.0466 15.2738 18.0553 15.2413L18.1205 15.0186H18.6296L18.6252 15.0095ZM9.40199 8.08423C9.38025 8.19557 8.96259 10.2414 8.96259 10.2414C8.87118 10.6542 8.80593 10.9512 8.58839 11.1413C8.46222 11.2527 8.31427 11.3037 8.14462 11.3037C7.87049 11.3037 7.71388 11.1599 7.68777 10.8862L7.6834 10.7934C7.6834 10.7934 7.76605 10.2414 7.76605 10.2367C7.76605 10.2367 8.20117 8.37185 8.2795 8.12596C8.28383 8.11206 8.28383 8.10278 8.28383 8.09812C7.43538 8.10745 7.28314 8.09812 7.27443 8.08423C7.27006 8.10278 7.24832 8.21874 7.24832 8.21874L6.8045 10.3203L6.76532 10.4965L6.69141 11.0811C6.69141 11.2527 6.72185 11.3965 6.78714 11.5125C6.9916 11.8929 7.5703 11.9486 7.8966 11.9486C8.31864 11.9486 8.71457 11.8511 8.97995 11.6795C9.44551 11.3872 9.56731 10.928 9.67174 10.5244L9.72396 10.3156C9.72396 10.3156 10.1721 8.38117 10.2504 8.13066C10.2548 8.11672 10.2548 8.10745 10.2591 8.10283C9.6413 8.10745 9.46291 8.10283 9.40199 8.08889V8.08423ZM11.8839 11.9297C11.5836 11.925 11.4748 11.925 11.1224 11.9435L11.1094 11.9157C11.1398 11.7719 11.1746 11.6328 11.2007 11.4889L11.2442 11.2941C11.3095 10.9926 11.3704 10.6353 11.3791 10.5287C11.3878 10.4637 11.4052 10.3014 11.2312 10.3014C11.1572 10.3014 11.0832 10.3384 11.005 10.3756C10.9614 10.5379 10.8787 10.9926 10.8352 11.1967C10.7482 11.6328 10.7439 11.6838 10.7047 11.8972L10.6786 11.925C10.3697 11.9204 10.261 11.9204 9.90416 11.9389L9.88676 11.9064C9.94768 11.6467 10.0042 11.3869 10.0608 11.1271C10.2087 10.4266 10.2479 10.1575 10.287 9.80032L10.3175 9.78176C10.6656 9.73075 10.7482 9.71681 11.1268 9.63797L11.1572 9.67508L11.1007 9.89776C11.1659 9.85603 11.2268 9.81426 11.2921 9.78176C11.4705 9.68898 11.6663 9.66114 11.775 9.66114C11.9404 9.66114 12.1231 9.7122 12.1971 9.91631C12.2667 10.0972 12.2231 10.3199 12.1275 10.7606L12.0796 10.9833C11.9839 11.475 11.9665 11.5631 11.9142 11.8972L11.8795 11.925L11.8839 11.9297ZM13.1055 11.9309C12.9228 11.9309 12.8053 11.9262 12.6922 11.9309C12.5791 11.9309 12.4703 11.9402 12.3006 11.9448L12.2919 11.9309L12.2832 11.9123C12.3311 11.7267 12.3529 11.6618 12.379 11.5968C12.4007 11.5319 12.4224 11.4669 12.466 11.2768C12.5182 11.0309 12.553 10.8593 12.5747 10.7061C12.6008 10.5623 12.6139 10.4371 12.6313 10.2933L12.6443 10.284L12.6574 10.2701C12.8401 10.2423 12.9533 10.2237 13.0708 10.2052C13.1882 10.1866 13.31 10.1634 13.4971 10.1263L13.5058 10.1449L13.5102 10.1634L13.4058 10.6227C13.371 10.7758 13.3362 10.9289 13.3057 11.082C13.2404 11.4067 13.21 11.5273 13.197 11.6154C13.1796 11.6989 13.1752 11.7407 13.149 11.9077L13.1316 11.9216L13.1142 11.9356L13.1055 11.9309ZM15.0371 10.7911C15.0241 10.8746 14.9545 11.1854 14.8631 11.3153C14.7978 11.4127 14.7238 11.473 14.6368 11.473C14.6107 11.473 14.4628 11.473 14.4585 11.2364C14.4585 11.1205 14.4802 10.9998 14.5063 10.87C14.5846 10.4942 14.6804 10.1834 14.9196 10.1834C15.1067 10.1834 15.1198 10.4153 15.0371 10.7911ZM15.8246 10.8282C15.929 10.3364 15.8464 10.1045 15.7463 9.96532C15.5897 9.75193 15.3112 9.68236 15.0241 9.68236C14.85 9.68236 14.4411 9.70092 14.1191 10.0164C13.8885 10.2437 13.7797 10.5545 13.7188 10.8514C13.6535 11.1529 13.5796 11.6957 14.0495 11.8998C14.193 11.9648 14.4019 11.9833 14.5368 11.9833C14.8805 11.9833 15.2329 11.8813 15.4983 11.5844C15.7028 11.3431 15.7941 10.9813 15.8289 10.8282H15.8246ZM23.1584 11.9859C22.7929 11.9813 22.6885 11.9813 22.3534 11.9999L22.3316 11.972C22.423 11.6055 22.5144 11.2344 22.597 10.8633C22.7014 10.3808 22.7275 10.1767 22.7624 9.89376L22.7885 9.87059C23.1496 9.81492 23.2497 9.80103 23.6282 9.7268L23.6369 9.75925C23.5673 10.0654 23.502 10.367 23.4324 10.6685C23.2932 11.3041 23.2453 11.6288 23.1932 11.9628L23.1584 11.9906V11.9859Z" fill="#FEFEFE"/>
<path d="M22.6312 10.853C22.6138 10.9318 22.5442 11.2473 22.4528 11.3772C22.3919 11.47 22.244 11.5303 22.1613 11.5303C22.1352 11.5303 21.9916 11.5303 21.9829 11.2983C21.9829 11.1823 22.0047 11.0617 22.0308 10.9318C22.1091 10.5654 22.2049 10.2545 22.4441 10.2545C22.6312 10.2545 22.7139 10.4818 22.6312 10.8576V10.853ZM23.3491 10.8901C23.4535 10.3984 23.0271 10.8484 22.9619 10.686C22.8574 10.4308 22.9227 9.92053 22.505 9.7489C22.344 9.6793 21.9655 9.76746 21.6435 10.0829C21.4173 10.3056 21.3042 10.6164 21.2433 10.9133C21.1779 11.2102 21.104 11.7576 21.5695 11.9478C21.7175 12.0174 21.8524 12.0359 21.9873 12.0266C22.4572 11.9988 22.8139 11.2426 23.0794 10.9457C23.2838 10.7092 23.3186 11.0339 23.3491 10.8901ZM17.8859 11.9295C17.5857 11.9248 17.4813 11.9248 17.1289 11.9434L17.1158 11.9155C17.1463 11.7717 17.1811 11.6326 17.2115 11.4887L17.2506 11.2939C17.3159 10.9924 17.3812 10.6352 17.3855 10.5285C17.3942 10.4635 17.4116 10.3012 17.2419 10.3012C17.168 10.3012 17.0897 10.3383 17.0157 10.3754C16.9765 10.5378 16.8895 10.9924 16.846 11.1965C16.7633 11.6326 16.7546 11.6836 16.7155 11.897L16.6894 11.9248C16.3805 11.9202 16.2717 11.9202 15.9149 11.9387L15.8975 11.9063C15.9584 11.6465 16.015 11.3867 16.0716 11.1269C16.2195 10.4264 16.2543 10.1574 16.2978 9.80013L16.3239 9.78158C16.672 9.73057 16.759 9.71663 17.1331 9.63779L17.1637 9.6749L17.1114 9.89757C17.1724 9.85585 17.2376 9.81407 17.2985 9.78158C17.4769 9.6888 17.6727 9.66096 17.7814 9.66096C17.9468 9.66096 18.1252 9.71201 18.2035 9.91613C18.2731 10.097 18.2253 10.3197 18.1295 10.7604L18.0817 10.9831C17.9816 11.4748 17.9686 11.563 17.9163 11.897L17.8815 11.9248L17.8859 11.9295ZM20.4927 8.08866L20.2403 8.09332C19.5877 8.1026 19.3266 8.09794 19.2222 8.08405C19.2135 8.1351 19.1961 8.22322 19.1961 8.22322C19.1961 8.22322 18.9612 9.3737 18.9612 9.37831C18.9612 9.37831 18.4043 11.8277 18.3781 11.9437C18.9481 11.9344 19.1787 11.9344 19.2788 11.9483C19.3006 11.8323 19.4311 11.1504 19.4354 11.1504C19.4354 11.1504 19.5485 10.6494 19.5529 10.6309C19.5529 10.6309 19.5877 10.5798 19.6225 10.5566H19.6747C20.1664 10.5566 20.7189 10.5566 21.1541 10.218C21.4499 9.98605 21.6501 9.6381 21.7414 9.22059C21.7632 9.11853 21.7806 8.99791 21.7806 8.87268C21.7806 8.71029 21.7501 8.55261 21.6631 8.42733C21.4411 8.09794 21.0017 8.09332 20.4927 8.08866ZM20.819 9.29019C20.7668 9.54532 20.6101 9.76338 20.41 9.86543C20.2447 9.95355 20.0445 9.96283 19.8357 9.96283H19.7008L19.7095 9.90716C19.7095 9.90716 19.9575 8.75668 19.9575 8.76134L19.9662 8.70101L19.9706 8.65462L20.0706 8.66395C20.0706 8.66395 20.584 8.71029 20.5927 8.71029C20.7928 8.7938 20.8799 9.00719 20.819 9.29019ZM26.1674 9.6749L26.137 9.63779C25.7671 9.71663 25.6975 9.73057 25.3581 9.78162L25.3321 9.80941C25.3321 9.81407 25.3277 9.81873 25.3277 9.82797V9.82335C25.0754 10.4496 25.0797 10.3151 24.8753 10.8068C24.8753 10.7836 24.8753 10.7697 24.8708 10.7465L24.8186 9.67952L24.7882 9.64241C24.3966 9.72129 24.3879 9.73519 24.0311 9.78624L24.005 9.81407C24.0007 9.82797 24.0007 9.84191 24.0007 9.8558L24.005 9.86046C24.0486 10.1063 24.0398 10.0506 24.0834 10.4357C24.1051 10.6259 24.1312 10.8161 24.1529 11.0017C24.1878 11.3171 24.2095 11.4702 24.2531 11.948C24.0093 12.3748 23.9528 12.5372 23.7179 12.9129L23.7309 12.95C24.0834 12.9361 24.1617 12.9361 24.4227 12.9361L24.4793 12.8665C24.6751 12.4166 26.1719 9.67956 26.1719 9.67956L26.1674 9.6749ZM13.4398 9.98219C13.6399 9.83374 13.666 9.62962 13.4964 9.52295C13.3267 9.41623 13.0265 9.44872 12.8263 9.59717C12.6262 9.741 12.6044 9.94507 12.7741 10.0564C12.9395 10.1585 13.2396 10.1306 13.4398 9.98219Z" fill="#FEFEFE"/>
<path d="M24.4212 12.9275L24.1296 13.4611C24.0382 13.642 23.8642 13.7812 23.5945 13.7812L23.1289 13.7719L23.2638 13.2894H23.3551C23.403 13.2894 23.4378 13.2848 23.4639 13.2709C23.49 13.2616 23.5031 13.243 23.5248 13.2152L23.6989 12.923H24.4255L24.4212 12.9275Z" fill="#FEFEFE"/>
</svg>
