<svg width="36" height="36" viewBox="0 0 36 36" fill="none" xmlns="http://www.w3.org/2000/svg">
<circle cx="18" cy="18" r="18" fill="#F92A47"/>
<path d="M14.4286 15.1429H15.8571M20.1429 20.8571H21.5714M21.5714 14.4286L14.4286 21.5714M17.0021 8.41335L15.3892 10.0262C15.1245 10.2909 14.7656 10.4396 14.3913 10.4396H11.8509C11.0714 10.4396 10.4396 11.0714 10.4396 11.8509V14.3913C10.4396 14.7656 10.2909 15.1245 10.0262 15.3892L8.41335 17.0021C7.86222 17.5532 7.86222 18.4468 8.41335 18.9979L10.0262 20.6108C10.2909 20.8755 10.4396 21.2344 10.4396 21.6087V24.1491C10.4396 24.9286 11.0714 25.5604 11.8509 25.5604H14.3913C14.7656 25.5604 15.1245 25.7091 15.3892 25.9738L17.0021 27.5866C17.5532 28.1378 18.4468 28.1378 18.9979 27.5866L20.6108 25.9738C20.8755 25.7091 21.2344 25.5604 21.6087 25.5604H24.1491C24.9286 25.5604 25.5604 24.9286 25.5604 24.1491V21.6087C25.5604 21.2344 25.7091 20.8755 25.9738 20.6108L27.5866 18.9979C28.1378 18.4468 28.1378 17.5532 27.5866 17.0021L25.9738 15.3892C25.7091 15.1245 25.5604 14.7656 25.5604 14.3913V11.8509C25.5604 11.0714 24.9286 10.4396 24.1491 10.4396H21.6087C21.2344 10.4396 20.8755 10.2909 20.6108 10.0262L18.9979 8.41335C18.4468 7.86222 17.5532 7.86222 17.0021 8.41335Z" stroke="white" stroke-width="2"/>
</svg>
