<svg width="72" height="72" viewBox="0 0 72 72" fill="none" xmlns="http://www.w3.org/2000/svg">
<rect width="72" height="72" rx="36" fill="#F92A47"/>
<path fill-rule="evenodd" clip-rule="evenodd" d="M20.5948 20.5948C21.3879 19.8017 22.6737 19.8017 23.4668 20.5948L36 33.128L48.5332 20.5948C49.3263 19.8017 50.6121 19.8017 51.4052 20.5948C52.1983 21.3879 52.1983 22.6737 51.4052 23.4668L38.872 36L51.4052 48.5332C52.1983 49.3263 52.1983 50.6121 51.4052 51.4052C50.6121 52.1983 49.3263 52.1983 48.5332 51.4052L36 38.872L23.4668 51.4052C22.6737 52.1983 21.3879 52.1983 20.5948 51.4052C19.8017 50.6121 19.8017 49.3263 20.5948 48.5332L33.128 36L20.5948 23.4668C19.8017 22.6737 19.8017 21.3879 20.5948 20.5948Z" fill="white"/>
</svg>
