<svg width="72" height="72" viewBox="0 0 72 72" fill="none" xmlns="http://www.w3.org/2000/svg">
<path d="M72 32.5C72 50.4493 57.4493 65 39.5 65C21.5507 65 7 50.4493 7 32.5C7 14.5507 21.5507 0 39.5 0C57.4493 0 72 14.5507 72 32.5Z" fill="#F92A47"/>
<path fill-rule="evenodd" clip-rule="evenodd" d="M32.5 70C49.3447 70 63 56.3447 63 39.5C63 22.6553 49.3447 9 32.5 9C15.6553 9 2 22.6553 2 39.5C2 56.3447 15.6553 70 32.5 70ZM32.5 72C50.4493 72 65 57.4493 65 39.5C65 21.5507 50.4493 7 32.5 7C14.5507 7 0 21.5507 0 39.5C0 57.4493 14.5507 72 32.5 72Z" fill="white"/>
<path fill-rule="evenodd" clip-rule="evenodd" d="M31.5 23C31.5 22.4477 31.9477 22 32.5 22C42.165 22 50 29.835 50 39.5C50 49.165 42.165 57 32.5 57C22.835 57 15 49.165 15 39.5C15 33.9173 17.7891 28.9461 21.8573 25.7428H15.4287C14.8934 25.6072 14.5693 25.0633 14.7049 24.5279C14.8405 23.9925 15.3844 23.6684 15.9198 23.804L24.4287 24C24.9641 24.1356 25.2072 24.5361 25.0716 25.0715L24.4287 33.4286C24.2931 33.964 23.7492 34.2881 23.2138 34.1525C22.6784 34.0169 22.3544 33.4729 22.49 32.9375L23.143 27C19.8206 29.8438 17 34.7864 17 39.5C17 48.0604 23.9396 55 32.5 55C41.0604 55 48 48.0604 48 39.5C48 30.9396 41.0604 24 32.5 24C31.9477 24 31.5 23.5523 31.5 23Z" fill="white"/>
<path fill-rule="evenodd" clip-rule="evenodd" d="M41.7128 34.2986C42.1002 34.6923 42.095 35.3254 41.7014 35.7128L31.8537 45.4029L25.2986 38.9528C24.905 38.5654 24.8999 37.9323 25.2872 37.5386C25.6746 37.145 26.3077 37.1399 26.7014 37.5272L31.8537 42.5971L40.2986 34.2872C40.6923 33.8999 41.3254 33.905 41.7128 34.2986Z" fill="white"/>
</svg>
