<svg width="63" height="24" viewBox="0 0 63 24" fill="none" xmlns="http://www.w3.org/2000/svg">
<path d="M23.7029 0.177874C23.8908 0.329759 24 0.558413 24 0.800007V11.2H11.2V2.55327L23.0324 0.0177652C23.2686 -0.0328558 23.5151 0.0259896 23.7029 0.177874Z" fill="#D6DAE2"/>
<path d="M9.6 2.89613L0.632377 4.81777C0.26352 4.89681 0 5.22278 0 5.60001V11.2H9.6V2.89613Z" fill="#D6DAE2"/>
<path d="M0 12.8V20C0 20.3981 0.292744 20.7357 0.686863 20.792L9.6 22.0653V12.8H0Z" fill="#D6DAE2"/>
<path d="M11.2 22.2938L23.0869 23.992C23.3164 24.0248 23.549 23.9563 23.7242 23.8044C23.8994 23.6524 24 23.4319 24 23.2V12.8H11.2V22.2938Z" fill="#D6DAE2"/>
<path d="M45.248 17.04L41.92 8.24L38.656 17.04L35.68 8.8H34.16L38.56 20.56L41.92 11.856L45.28 20.56L49.68 8.8H48.16L45.248 17.04ZM51.0438 9.6C51.0438 9.83467 51.1291 10.0427 51.2998 10.224C51.4811 10.3947 51.6891 10.48 51.9238 10.48C52.1691 10.48 52.3771 10.3947 52.5478 10.224C52.7184 10.0427 52.8038 9.83467 52.8038 9.6C52.8038 9.35467 52.7184 9.14667 52.5478 8.976C52.3771 8.80533 52.1691 8.72 51.9238 8.72C51.6891 8.72 51.4811 8.80533 51.2998 8.976C51.1291 9.14667 51.0438 9.35467 51.0438 9.6ZM51.2838 12.64V20H52.5638V12.64H51.2838ZM59.92 15.52V20H61.2V15.36C61.2 14.4747 60.9707 13.776 60.512 13.264C60.064 12.7413 59.4507 12.48 58.672 12.48C58.192 12.48 57.7653 12.5867 57.392 12.8C57.0293 13.0133 56.7253 13.344 56.48 13.792V12.64H55.2V20H56.48V15.52C56.48 15.1573 56.5547 14.8373 56.704 14.56C56.864 14.2827 57.0827 14.0693 57.36 13.92C57.648 13.76 57.9787 13.68 58.352 13.68C58.864 13.68 59.2533 13.8347 59.52 14.144C59.7867 14.4533 59.92 14.912 59.92 15.52Z" fill="#D6DAE2"/>
</svg>
