<svg width="56" height="56" viewBox="0 0 56 56" fill="none" xmlns="http://www.w3.org/2000/svg">
<path d="M56.0009 25.2778C56.0009 39.2383 44.6836 50.5556 30.7231 50.5556C16.7626 50.5556 5.44531 39.2383 5.44531 25.2778C5.44531 11.3172 16.7626 0 30.7231 0C44.6836 0 56.0009 11.3172 56.0009 25.2778Z" fill="#FDAFBA"/>
<path fill-rule="evenodd" clip-rule="evenodd" d="M25.2778 54.4443C38.3792 54.4443 49 43.8235 49 30.7221C49 17.6207 38.3792 6.99989 25.2778 6.99989C12.1764 6.99989 1.55556 17.6207 1.55556 30.7221C1.55556 43.8235 12.1764 54.4443 25.2778 54.4443ZM25.2778 55.9999C39.2383 55.9999 50.5556 44.6826 50.5556 30.7221C50.5556 16.7616 39.2383 5.44434 25.2778 5.44434C11.3172 5.44434 0 16.7616 0 30.7221C0 44.6826 11.3172 55.9999 25.2778 55.9999Z" fill="#25293D"/>
<path fill-rule="evenodd" clip-rule="evenodd" d="M24.9167 19.25C24.9167 18.8358 25.2525 18.5 25.6667 18.5H32.6667C33.1396 18.5 33.8551 18.6019 34.4814 18.9401C35.1402 19.2958 35.75 19.9532 35.75 21V40.8333C35.75 41.3422 35.6035 42.0889 35.142 42.7299C34.6529 43.4091 33.8444 43.9167 32.6667 43.9167H19.8333C19.3244 43.9167 18.5778 43.7702 17.9368 43.3086C17.2575 42.8196 16.75 42.0111 16.75 40.8333V37.3333C16.75 36.9191 17.0858 36.5833 17.5 36.5833C17.9142 36.5833 18.25 36.9191 18.25 37.3333V40.8333C18.25 41.5222 18.5202 41.8804 18.8132 42.0913C19.1445 42.3298 19.5645 42.4167 19.8333 42.4167H32.6667C33.3556 42.4167 33.7137 42.1464 33.9247 41.8534C34.1632 41.5222 34.25 41.1022 34.25 40.8333V21C34.25 20.6468 34.0821 20.4292 33.7686 20.2599C33.4227 20.0731 32.9715 20 32.6667 20H25.6667C25.2525 20 24.9167 19.6642 24.9167 19.25ZM24.3333 25.6667C24.3333 25.2525 24.6691 24.9167 25.0833 24.9167H30.9167C31.3309 24.9167 31.6667 25.2525 31.6667 25.6667C31.6667 26.0809 31.3309 26.4167 30.9167 26.4167H25.0833C24.6691 26.4167 24.3333 26.0809 24.3333 25.6667ZM23.75 30.3333C23.75 29.9191 24.0858 29.5833 24.5 29.5833H30.9167C31.3309 29.5833 31.6667 29.9191 31.6667 30.3333C31.6667 30.7475 31.3309 31.0833 30.9167 31.0833H24.5C24.0858 31.0833 23.75 30.7475 23.75 30.3333ZM22.5833 35C22.5833 34.5858 22.9191 34.25 23.3333 34.25H30.9167C31.3309 34.25 31.6667 34.5858 31.6667 35C31.6667 35.4142 31.3309 35.75 30.9167 35.75H23.3333C22.9191 35.75 22.5833 35.4142 22.5833 35Z" fill="#25293D"/>
<path fill-rule="evenodd" clip-rule="evenodd" d="M12.832 16.75C13.2462 16.75 13.582 17.0858 13.582 17.5V29.1667C13.582 29.604 13.7421 30.2993 14.223 30.8718C14.6793 31.415 15.4814 31.9167 16.9154 31.9167C18.3494 31.9167 19.1515 31.415 19.6078 30.8718C20.0886 30.2993 20.2487 29.604 20.2487 29.1667V19.8333C20.2487 19.5645 20.1619 19.1445 19.9234 18.8132C19.7124 18.5202 19.3543 18.25 18.6654 18.25C17.9765 18.25 17.6183 18.5202 17.4073 18.8132C17.1689 19.1445 17.082 19.5645 17.082 19.8333V28C17.082 28.4142 16.7462 28.75 16.332 28.75C15.9178 28.75 15.582 28.4142 15.582 28V19.8333C15.582 19.3244 15.7285 18.5778 16.19 17.9368C16.6791 17.2575 17.4876 16.75 18.6654 16.75C19.8431 16.75 20.6516 17.2575 21.1407 17.9368C21.6022 18.5778 21.7487 19.3244 21.7487 19.8333V29.1667C21.7487 29.896 21.5005 30.9507 20.7563 31.8366C19.9876 32.7517 18.748 33.4167 16.9154 33.4167C15.0827 33.4167 13.8431 32.7517 13.0744 31.8366C12.3303 30.9507 12.082 29.896 12.082 29.1667V17.5C12.082 17.0858 12.4178 16.75 12.832 16.75Z" fill="#25293D"/>
</svg>
