<svg width="24" height="24" viewBox="0 0 24 24" fill="none" xmlns="http://www.w3.org/2000/svg">
<path fill-rule="evenodd" clip-rule="evenodd" d="M15.9933 2.00272C16.7178 1.97393 17.5157 2.15894 18.0974 2.78283C18.4714 3.18408 18.6948 3.65529 18.7672 4.16267C18.8376 4.65654 18.7567 5.12254 18.6201 5.52015C18.5741 5.65386 18.5205 5.7841 18.461 5.91025H20.1818C21.186 5.91025 22 6.78341 22 7.86051V11.761C22 12.8381 21.186 13.7113 20.1818 13.7113V20.0496C20.1818 21.1267 19.3678 21.9999 18.3636 21.9999H5.63636C4.63221 21.9999 3.81818 21.1267 3.81818 20.0496V13.7113C2.81403 13.7113 2 12.8381 2 11.761V7.86051C2 6.78342 2.81403 5.91025 3.81818 5.91025H5.53897C5.51902 5.86797 5.49976 5.82528 5.48124 5.78221C5.30351 5.3687 5.17287 4.86818 5.21477 4.32722C5.25837 3.76426 5.48386 3.2321 5.90263 2.78291C6.48427 2.15902 7.28221 1.97401 8.00666 2.00279C8.74079 2.03195 9.51185 2.27961 10.2059 2.66958C10.8526 3.03293 11.5006 3.56375 12 4.23527C12.4994 3.56374 13.1474 3.0329 13.7941 2.66954C14.4881 2.27956 15.2592 2.0319 15.9933 2.00272ZM10.8564 5.91025C10.5705 5.31668 10.0404 4.77821 9.36227 4.39718C8.86315 4.11674 8.3558 3.96825 7.93936 3.95171C7.51325 3.93478 7.28846 4.0545 7.18828 4.16195C7.06159 4.29784 7.0333 4.40358 7.02671 4.48867C7.01841 4.59577 7.04118 4.75346 7.13239 4.96566C7.27813 5.30474 7.54028 5.64766 7.79592 5.91025H10.8564ZM11.0909 7.86051H3.81818V11.761H11.0909V7.86051ZM11.0909 13.7113H5.63636V20.0496H11.0909V13.7113ZM12.9091 20.0496V13.7113H18.3636V20.0496H12.9091ZM12.9091 11.761V7.86051H20.1818V11.761H12.9091ZM16.204 5.91018C16.5095 5.59643 16.7913 5.2031 16.914 4.84589C16.9742 4.67059 16.9823 4.54433 16.9699 4.45764C16.9595 4.38445 16.9282 4.28678 16.8117 4.16187C16.7115 4.05442 16.4868 3.93471 16.0606 3.95164C15.6442 3.96819 15.1369 4.11669 14.6377 4.39713C13.9596 4.77818 13.4295 5.31665 13.1436 5.91023L16.204 5.91018Z" fill="white"/>
</svg>
