<svg width="65" height="65" viewBox="0 0 65 65" fill="none" xmlns="http://www.w3.org/2000/svg">
<circle cx="32.5" cy="32.5" r="32.5" fill="#F92A47"/>
<path fill-rule="evenodd" clip-rule="evenodd" d="M32.5 63C49.3447 63 63 49.3447 63 32.5C63 15.6553 49.3447 2 32.5 2C15.6553 2 2 15.6553 2 32.5C2 49.3447 15.6553 63 32.5 63ZM32.5 65C50.4493 65 65 50.4493 65 32.5C65 14.5507 50.4493 0 32.5 0C14.5507 0 0 14.5507 0 32.5C0 50.4493 14.5507 65 32.5 65Z" fill="white"/>
<path fill-rule="evenodd" clip-rule="evenodd" d="M38.7243 23.7448L32 11L25.2757 23.7448L11.0768 26.2016L21.1199 36.5352L19.0687 50.7984L32 44.44L44.9313 50.7984L42.8801 36.5352L52.9232 26.2016L38.7243 23.7448ZM48.847 27.5261L37.4143 25.5479L32 15.286L26.5857 25.5479L15.1529 27.5261L23.2395 35.8464L21.5879 47.331L32 42.2113L42.412 47.331L40.7605 35.8464L48.847 27.5261Z" fill="white"/>
<path d="M34 39V27.0001L31 27L28 31.3449H30.7692V39H34Z" fill="white"/>
</svg>
