<svg width="65" height="65" viewBox="0 0 65 65" fill="none" xmlns="http://www.w3.org/2000/svg">
<circle cx="32.5" cy="32.5002" r="32.5" fill="#F92A47"/>
<path fill-rule="evenodd" clip-rule="evenodd" d="M32.5 63C49.3447 63 63 49.3447 63 32.5C63 15.6553 49.3447 2 32.5 2C15.6553 2 2 15.6553 2 32.5C2 49.3447 15.6553 63 32.5 63ZM32.5 65C50.4493 65 65 50.4493 65 32.5C65 14.5507 50.4493 0 32.5 0C14.5507 0 0 14.5507 0 32.5C0 50.4493 14.5507 65 32.5 65Z" fill="white"/>
<path fill-rule="evenodd" clip-rule="evenodd" d="M31.7929 48.9783C32.2551 49.0762 32.7227 48.8372 32.9142 48.4053C33.7958 46.4167 35.7659 45.135 37.94 45.135H48.3992C48.8239 45.135 49.2312 44.9662 49.5314 44.6659C49.8316 44.3656 50.0002 43.9583 50.0002 43.5338V20.6012C50.0002 20.1767 49.8316 19.7695 49.5314 19.4691C49.2312 19.1688 48.8239 19 48.3992 19H36.293C33.3694 19 31 21.3708 31 24.2945V48C31 48.4725 31.3307 48.8805 31.7929 48.9783ZM33 44.9928V24.2945C33 22.4747 34.4747 21 36.293 21H48.0002V43.135H37.94C36.0862 43.135 34.3413 43.8182 33 44.9928Z" fill="white"/>
<path fill-rule="evenodd" clip-rule="evenodd" d="M32.2074 48.9783C32.6696 48.8805 33.0002 48.4725 33.0002 48V24.2945C33.0002 21.3708 30.6308 19 27.7072 19H15.601C15.1763 19 14.769 19.1688 14.4688 19.4691C14.1686 19.7694 14 20.1767 14 20.6012V43.5338C14 43.9583 14.1686 44.3656 14.4688 44.6659C14.769 44.9662 15.1763 45.135 15.601 45.135H26.0602C28.2343 45.135 30.2045 46.4168 31.086 48.4053C31.2775 48.8372 31.7452 49.0762 32.2074 48.9783ZM31.0002 44.9929C29.6589 43.8182 27.914 43.135 26.0602 43.135H16V21H27.7072C29.5256 21 31.0002 22.4747 31.0002 24.2945V44.9929Z" fill="white"/>
<path fill-rule="evenodd" clip-rule="evenodd" d="M35 25C35 25.5523 35.4477 26 36 26H46C46.5523 26 47 25.5523 47 25C47 24.4477 46.5523 24 46 24H36C35.4477 24 35 24.4477 35 25Z" fill="white"/>
<path fill-rule="evenodd" clip-rule="evenodd" d="M35 30C35 30.5523 35.4477 31 36 31H46C46.5523 31 47 30.5523 47 30C47 29.4477 46.5523 29 46 29H36C35.4477 29 35 29.4477 35 30Z" fill="white"/>
<path fill-rule="evenodd" clip-rule="evenodd" d="M35 35C35 35.5523 35.4477 36 36 36H46C46.5523 36 47 35.5523 47 35C47 34.4477 46.5523 34 46 34H36C35.4477 34 35 34.4477 35 35Z" fill="white"/>
<path fill-rule="evenodd" clip-rule="evenodd" d="M35 40C35 40.5523 35.4477 41 36 41H46C46.5523 41 47 40.5523 47 40C47 39.4477 46.5523 39 46 39H36C35.4477 39 35 39.4477 35 40Z" fill="white"/>
<path fill-rule="evenodd" clip-rule="evenodd" d="M17 25C17 25.5523 17.4477 26 18 26H28C28.5523 26 29 25.5523 29 25C29 24.4477 28.5523 24 28 24H18C17.4477 24 17 24.4477 17 25Z" fill="white"/>
<path fill-rule="evenodd" clip-rule="evenodd" d="M17 30C17 30.5523 17.4477 31 18 31H28C28.5523 31 29 30.5523 29 30C29 29.4477 28.5523 29 28 29H18C17.4477 29 17 29.4477 17 30Z" fill="white"/>
<path fill-rule="evenodd" clip-rule="evenodd" d="M17 35C17 35.5523 17.4477 36 18 36H28C28.5523 36 29 35.5523 29 35C29 34.4477 28.5523 34 28 34H18C17.4477 34 17 34.4477 17 35Z" fill="white"/>
<path fill-rule="evenodd" clip-rule="evenodd" d="M17 40C17 40.5523 17.4477 41 18 41H28C28.5523 41 29 40.5523 29 40C29 39.4477 28.5523 39 28 39H18C17.4477 39 17 39.4477 17 40Z" fill="white"/>
</svg>
