<svg width="59" height="24" viewBox="0 0 59 24" fill="none" xmlns="http://www.w3.org/2000/svg">
<path d="M10.093 4.6993C9.7653 4.6993 9.49931 4.43614 9.49931 4.11189C9.49931 1.84095 11.3613 0 13.6555 0C13.9844 0 14.2492 0.263161 14.2492 0.587413C14.2492 2.85835 12.3885 4.6993 10.093 4.6993Z" fill="#D6DAE2"/>
<path d="M10.093 4.6993C9.7653 4.6993 9.49931 4.43614 9.49931 4.11189C9.49931 1.84095 11.3613 0 13.6555 0C13.9844 0 14.2492 0.263161 14.2492 0.587413C14.2492 2.85835 12.3885 4.6993 10.093 4.6993Z" fill="#D6DAE2"/>
<path d="M18.7622 17.0685C18.9914 17.2389 19.0662 17.5479 18.9368 17.8016C16.8468 21.9394 15.1796 24 13.6561 24C12.9471 24 12.2501 23.7733 11.5708 23.3315C10.5817 22.6865 9.30512 22.6595 8.28863 23.261C7.46571 23.7486 6.68197 24 5.93742 24C3.69664 24 0 17.1731 0 13.4266C0 9.42746 2.11966 6.37761 5.34367 6.37761C6.86009 6.37761 8.16988 6.59847 9.26949 7.04726C9.73618 7.23758 10.2634 7.22348 10.7182 7.00731C11.6112 6.5832 12.788 6.37761 14.2498 6.37761C16.0334 6.37761 17.5878 7.25638 18.881 8.96222C19.0769 9.22186 19.0247 9.58958 18.7622 9.7846C17.3194 10.8549 16.6248 12.0579 16.6248 13.4266C16.6248 14.7952 17.3194 15.9983 18.7622 17.0685Z" fill="#D6DAE2"/>
<path d="M18.7622 17.0685C18.9914 17.2389 19.0662 17.5479 18.9368 17.8016C16.8468 21.9394 15.1796 24 13.6561 24C12.9471 24 12.2501 23.7733 11.5708 23.3315C10.5817 22.6865 9.30512 22.6595 8.28863 23.261C7.46571 23.7486 6.68197 24 5.93742 24C3.69664 24 0 17.1731 0 13.4266C0 9.42746 2.11966 6.37761 5.34367 6.37761C6.86009 6.37761 8.16988 6.59847 9.26949 7.04726C9.73618 7.23758 10.2634 7.22348 10.7182 7.00731C11.6112 6.5832 12.788 6.37761 14.2498 6.37761C16.0334 6.37761 17.5878 7.25638 18.881 8.96222C19.0769 9.22186 19.0247 9.58958 18.7622 9.7846C17.3194 10.8549 16.6248 12.0579 16.6248 13.4266C16.6248 14.7952 17.3194 15.9983 18.7622 17.0685Z" fill="#D6DAE2"/>
<path d="M32.832 14.432L36.48 20.96L40.128 14.432L40.96 22H42.32L40.96 10.24L36.48 18.352L32 10.24L30.64 22H32L32.832 14.432ZM44.7291 19.728C44.7291 19.4613 44.7931 19.232 44.9211 19.04C45.0491 18.848 45.2411 18.6987 45.4971 18.592C45.7638 18.4853 46.1051 18.432 46.5211 18.432C46.9691 18.432 47.3905 18.4907 47.7851 18.608C48.1798 18.7147 48.5638 18.896 48.9371 19.152V18.4C48.8625 18.304 48.7185 18.1813 48.5051 18.032C48.2918 17.872 48.0038 17.7333 47.6411 17.616C47.2891 17.488 46.8465 17.424 46.3131 17.424C45.4065 17.424 44.6971 17.6427 44.1851 18.08C43.6838 18.5067 43.4331 19.0773 43.4331 19.792C43.4331 20.2933 43.5505 20.72 43.7851 21.072C44.0198 21.424 44.3291 21.696 44.7131 21.888C45.1078 22.0693 45.5291 22.16 45.9771 22.16C46.3825 22.16 46.7878 22.0853 47.1931 21.936C47.6091 21.7867 47.9558 21.5573 48.2331 21.248C48.5211 20.9387 48.6651 20.5493 48.6651 20.08L48.4091 19.12C48.4091 19.504 48.3131 19.8453 48.1211 20.144C47.9398 20.432 47.6891 20.656 47.3691 20.816C47.0598 20.976 46.7078 21.056 46.3131 21.056C46.0038 21.056 45.7265 21.008 45.4811 20.912C45.2465 20.8053 45.0598 20.6507 44.9211 20.448C44.7931 20.2453 44.7291 20.0053 44.7291 19.728ZM44.5371 16.336C44.6545 16.2507 44.8145 16.1493 45.0171 16.032C45.2198 15.9147 45.4651 15.8133 45.7531 15.728C46.0518 15.6427 46.3825 15.6 46.7451 15.6C46.9691 15.6 47.1825 15.6213 47.3851 15.664C47.5878 15.7067 47.7638 15.776 47.9131 15.872C48.0731 15.968 48.1958 16.1013 48.2811 16.272C48.3665 16.432 48.4091 16.64 48.4091 16.896V22H49.6891V16.72C49.6891 16.24 49.5665 15.8347 49.3211 15.504C49.0865 15.1733 48.7505 14.9227 48.3131 14.752C47.8865 14.5707 47.3851 14.48 46.8091 14.48C46.1265 14.48 45.5398 14.5813 45.0491 14.784C44.5691 14.9867 44.1905 15.1893 43.9131 15.392L44.5371 16.336ZM52.4323 18.32C52.4323 17.808 52.5389 17.3547 52.7523 16.96C52.9763 16.5547 53.2749 16.24 53.6483 16.016C54.0323 15.792 54.4643 15.68 54.9443 15.68C55.3389 15.68 55.7069 15.744 56.0483 15.872C56.4003 15.9893 56.7043 16.1493 56.9603 16.352C57.2163 16.5547 57.3976 16.7787 57.5043 17.024V15.424C57.2483 15.1253 56.8803 14.896 56.4003 14.736C55.9309 14.5653 55.4456 14.48 54.9443 14.48C54.2296 14.48 53.5843 14.6453 53.0082 14.976C52.4323 15.3067 51.9736 15.76 51.6323 16.336C51.3016 16.912 51.1363 17.5733 51.1363 18.32C51.1363 19.056 51.3016 19.7173 51.6323 20.304C51.9736 20.88 52.4323 21.3333 53.0082 21.664C53.5843 21.9947 54.2296 22.16 54.9443 22.16C55.4456 22.16 55.9309 22.08 56.4003 21.92C56.8803 21.7493 57.2483 21.5147 57.5043 21.216V19.616C57.3976 19.8507 57.2163 20.0747 56.9603 20.288C56.7043 20.4907 56.4003 20.656 56.0483 20.784C55.7069 20.9013 55.3389 20.96 54.9443 20.96C54.4643 20.96 54.0323 20.848 53.6483 20.624C53.2749 20.3893 52.9763 20.0747 52.7523 19.68C52.5389 19.2853 52.4323 18.832 52.4323 18.32Z" fill="#D6DAE2"/>
</svg>
