<svg width="37" height="37" viewBox="0 0 37 37" fill="none" xmlns="http://www.w3.org/2000/svg">
<circle cx="18.0898" cy="18.9026" r="18" fill="#F92A47"/>
<path d="M14.5184 16.0454H15.947M20.2327 21.7597H21.6613M21.6613 15.3312L14.5184 22.474M17.0919 9.31594L15.479 10.9288C15.2144 11.1935 14.8554 11.3422 14.4811 11.3422H11.9407C11.1613 11.3422 10.5294 11.974 10.5294 12.7535V15.2939C10.5294 15.6681 10.3807 16.0271 10.1161 16.2918L8.5032 17.9047C7.95206 18.4558 7.95206 19.3494 8.5032 19.9005L10.1161 21.5134C10.3807 21.7781 10.5294 22.137 10.5294 22.5113V25.0517C10.5294 25.8311 11.1613 26.463 11.9407 26.463H14.4811C14.8554 26.463 15.2144 26.6117 15.479 26.8763L17.0919 28.4892C17.6431 29.0404 18.5366 29.0404 19.0878 28.4892L20.7007 26.8763C20.9653 26.6117 21.3243 26.463 21.6986 26.463H24.239C25.0184 26.463 25.6503 25.8311 25.6503 25.0517V22.5113C25.6503 22.137 25.7989 21.7781 26.0636 21.5134L27.6765 19.9005C28.2276 19.3494 28.2276 18.4558 27.6765 17.9047L26.0636 16.2918C25.7989 16.0271 25.6503 15.6681 25.6503 15.2939V12.7535C25.6503 11.974 25.0184 11.3422 24.239 11.3422H21.6986C21.3243 11.3422 20.9653 11.1935 20.7007 10.9288L19.0878 9.31594C18.5366 8.7648 17.6431 8.7648 17.0919 9.31594Z" stroke="white" stroke-width="2"/>
</svg>
