<svg width="220" height="65" viewBox="0 0 220 65" fill="none" xmlns="http://www.w3.org/2000/svg">
<rect y="0.5" width="197" height="64" rx="32" fill="#25293D"/>
<g clip-path="url(#clip0_9_692)">
<path d="M52 32.9091C52 31.6819 51.8975 30.4591 51.6836 29.2494H34.3628V36.1801H44.282C44.0796 37.2871 43.6502 38.3424 43.0199 39.2822C42.3895 40.222 41.5713 41.0267 40.6147 41.6479V46.1504H46.5368C50.0036 43.0235 52 38.3899 52 32.9091Z" fill="#4285F4"/>
<path d="M34.3624 50.4999C39.3175 50.4999 43.4929 48.9059 46.5364 46.1546L40.6142 41.652C38.9655 42.7482 36.8444 43.3727 34.3624 43.3727C29.5721 43.3727 25.5081 40.2065 24.051 35.9441H17.9551V40.582C19.4828 43.5635 21.8263 46.0699 24.7237 47.8213C27.621 49.5727 30.9582 50.5001 34.3624 50.4999Z" fill="#34A853"/>
<path d="M24.0554 35.944C23.2846 33.7089 23.2846 31.2876 24.0554 29.0525V24.4189H17.955C16.6695 26.9274 16 29.6956 16 32.5026C16 35.3097 16.6695 38.0779 17.955 40.5863L24.0554 35.944Z" fill="#FBBC04"/>
<path d="M34.3624 21.6283C36.9811 21.5873 39.5113 22.5566 41.4074 24.3272L46.6522 19.1914C43.3261 16.133 38.9229 14.4526 34.3624 14.501C30.9582 14.5009 27.621 15.4283 24.7237 17.1797C21.8263 18.9311 19.4828 21.4375 17.9551 24.4189L24.0555 29.0569C25.5081 24.7901 29.5721 21.6283 34.3624 21.6283Z" fill="#EA4335"/>
</g>
<g clip-path="url(#clip1_9_692)">
<mask id="mask0_9_692" style="mask-type:alpha" maskUnits="userSpaceOnUse" x="80" y="14" width="36" height="37">
<rect x="80" y="14.5" width="36" height="36" fill="#D9D9D9"/>
</mask>
<g mask="url(#mask0_9_692)">
<path d="M89 41.5L84.275 46.225C84.025 46.475 83.75 46.5375 83.45 46.4125C83.15 46.2875 83 46.05 83 45.7V20.5C83 19.675 83.2938 18.9688 83.8813 18.3813C84.4688 17.7938 85.175 17.5 86 17.5H110C110.825 17.5 111.531 17.7938 112.119 18.3813C112.706 18.9688 113 19.675 113 20.5V38.5C113 39.325 112.706 40.0312 112.119 40.6188C111.531 41.2063 110.825 41.5 110 41.5H89ZM86 38.5H110V20.5H86V38.5ZM98 33.2125L100.85 34.9375C101.125 35.1125 101.4 35.1063 101.675 34.9188C101.95 34.7313 102.05 34.475 101.975 34.15L101.225 30.8875L103.775 28.675C104.025 28.45 104.1 28.1812 104 27.8687C103.9 27.5562 103.675 27.3875 103.325 27.3625L99.9875 27.1L98.675 24.025C98.55 23.725 98.325 23.575 98 23.575C97.675 23.575 97.45 23.725 97.325 24.025L96.0125 27.1L92.675 27.3625C92.325 27.3875 92.1 27.5562 92 27.8687C91.9 28.1812 91.975 28.45 92.225 28.675L94.775 30.8875L94.025 34.15C93.95 34.475 94.05 34.7313 94.325 34.9188C94.6 35.1063 94.875 35.1125 95.15 34.9375L98 33.2125Z" fill="white"/>
</g>
</g>
<path d="M146.672 36.06C146.672 37.18 146.495 38.16 146.14 39C145.785 39.84 145.291 40.54 144.656 41.1C144.021 41.66 143.293 42.08 142.472 42.36C141.651 42.64 140.764 42.78 139.812 42.78C138.617 42.78 137.572 42.5933 136.676 42.22C135.799 41.8467 135.043 41.352 134.408 40.736C133.792 40.1013 133.269 39.4107 132.84 38.664L134.856 37.292C135.155 37.852 135.547 38.384 136.032 38.888C136.536 39.3733 137.115 39.7747 137.768 40.092C138.421 40.3907 139.103 40.54 139.812 40.54C140.745 40.54 141.539 40.3533 142.192 39.98C142.845 39.6067 143.34 39.084 143.676 38.412C144.031 37.74 144.208 36.956 144.208 36.06C144.208 35.164 144.012 34.38 143.62 33.708C143.247 33.036 142.724 32.5133 142.052 32.14C141.399 31.7667 140.652 31.58 139.812 31.58C139.196 31.58 138.627 31.636 138.104 31.748C137.6 31.8413 137.087 32.0187 136.564 32.28C136.06 32.5227 135.472 32.8773 134.8 33.344L137.376 22.9H146.616V25H139.224L137.908 30.18C138.375 29.9373 138.851 29.76 139.336 29.648C139.84 29.5173 140.335 29.452 140.82 29.452C141.94 29.452 142.939 29.732 143.816 30.292C144.712 30.852 145.412 31.6267 145.916 32.616C146.42 33.6053 146.672 34.7533 146.672 36.06ZM150.465 41.38C150.465 40.9507 150.614 40.5867 150.913 40.288C151.23 39.9893 151.594 39.84 152.005 39.84C152.434 39.84 152.798 39.9893 153.097 40.288C153.395 40.5867 153.545 40.9507 153.545 41.38C153.545 41.7907 153.395 42.1547 153.097 42.472C152.798 42.7707 152.434 42.92 152.005 42.92C151.594 42.92 151.23 42.7707 150.913 42.472C150.614 42.1547 150.465 41.7907 150.465 41.38ZM159.699 32.7C159.699 33.8387 159.811 34.8933 160.035 35.864C160.259 36.816 160.586 37.6467 161.015 38.356C161.445 39.0467 161.958 39.588 162.555 39.98C163.171 40.3533 163.853 40.54 164.599 40.54C165.365 40.54 166.046 40.3533 166.643 39.98C167.241 39.588 167.754 39.0467 168.183 38.356C168.613 37.6467 168.939 36.816 169.163 35.864C169.387 34.8933 169.499 33.8387 169.499 32.7C169.499 31.5613 169.387 30.516 169.163 29.564C168.939 28.5933 168.613 27.7627 168.183 27.072C167.754 26.3627 167.241 25.8213 166.643 25.448C166.046 25.056 165.365 24.86 164.599 24.86C163.853 24.86 163.171 25.056 162.555 25.448C161.958 25.8213 161.445 26.3627 161.015 27.072C160.586 27.7627 160.259 28.5933 160.035 29.564C159.811 30.516 159.699 31.5613 159.699 32.7ZM157.319 32.7C157.319 30.74 157.627 29.004 158.243 27.492C158.859 25.98 159.709 24.7947 160.791 23.936C161.893 23.0587 163.162 22.62 164.599 22.62C166.037 22.62 167.297 23.0587 168.379 23.936C169.481 24.7947 170.339 25.98 170.955 27.492C171.571 29.004 171.879 30.74 171.879 32.7C171.879 34.66 171.571 36.396 170.955 37.908C170.339 39.42 169.481 40.6147 168.379 41.492C167.297 42.3507 166.037 42.78 164.599 42.78C163.162 42.78 161.893 42.3507 160.791 41.492C159.709 40.6147 158.859 39.42 158.243 37.908C157.627 36.396 157.319 34.66 157.319 32.7Z" fill="white"/>
<defs>
<clipPath id="clip0_9_692">
<rect width="36" height="36" fill="white" transform="translate(16 14.5)"/>
</clipPath>
<clipPath id="clip1_9_692">
<rect width="36" height="36" fill="white" transform="translate(80 14.5)"/>
</clipPath>
</defs>
</svg>
