<svg width="30" height="22" viewBox="0 0 30 22" fill="none" xmlns="http://www.w3.org/2000/svg">
<path d="M1.8363 0.733398H28.1609C28.9917 0.733398 29.6652 1.46886 29.6652 2.37606V19.624C29.6652 20.5312 28.9917 21.2666 28.1609 21.2666H1.8363C1.00553 21.2666 0.332031 20.5312 0.332031 19.624V2.37606C0.332031 1.46886 1.00553 0.733398 1.8363 0.733398Z" fill="#2557D6"/>
<path d="M0.340032 10.4125H1.74806L2.06554 9.61133H2.7763L3.09295 10.4125H5.86335V9.80003L6.11066 10.4152H7.54885L7.79615 9.79092V10.4126H14.6812L14.678 9.09739H14.8112C14.9044 9.10079 14.9317 9.10979 14.9317 9.27093V10.4126H18.4926V10.1064C18.7799 10.2674 19.2266 10.4126 19.8144 10.4126H21.3125L21.6331 9.61137H22.3439L22.6574 10.4126H25.5443V9.65154L25.9815 10.4126H28.2948V5.38153H26.0054V5.97568L25.6849 5.38153H23.3355V5.97568L23.0412 5.38153H19.8679C19.3368 5.38153 18.8699 5.45911 18.4927 5.67528V5.38153H16.3029V5.67528C16.0628 5.45245 15.7358 5.38153 15.3721 5.38153H7.37168L6.83488 6.68091L6.28361 5.38153H3.76378V5.97568L3.48692 5.38153H1.33789L0.339844 7.77349V10.4125H0.339957L0.340032 10.4125ZM9.22798 9.6869H8.38319L8.38007 6.86177L7.18512 9.68685H6.46156L5.26349 6.85927V9.68685H3.58736L3.27072 8.88228H1.55484L1.23499 9.68685H0.339919L1.81564 6.0797H3.04008L4.44164 9.49495V6.0797H5.78668L6.86516 8.52673L7.85587 6.0797H9.22795L9.22798 9.6869ZM2.98904 8.13364L2.42502 6.69562L1.86412 8.13364H2.98904ZM12.59 9.68681H9.8371V6.07966H12.59V6.83081H10.6612V7.48101H12.5438V8.22041H10.6612V8.9408H12.59L12.59 9.68681ZM16.4695 7.05117C16.4695 7.62626 16.1027 7.92342 15.8889 8.01262C16.0692 8.0844 16.2233 8.2113 16.2966 8.31639C16.4129 8.4958 16.433 8.65605 16.433 8.97821V9.68681H15.6017L15.5986 9.23192C15.5986 9.01488 15.6185 8.70274 15.4686 8.52919C15.3482 8.4023 15.1646 8.37478 14.8679 8.37478H13.9833V9.68685H13.1592V6.07966H15.0546C15.4757 6.07966 15.7861 6.09128 16.0525 6.25243C16.3132 6.41357 16.4695 6.6488 16.4695 7.05117ZM15.4279 7.58676C15.3145 7.65871 15.1807 7.66109 15.0202 7.66109H14.0191V6.85988H15.0338C15.1774 6.85988 15.3273 6.86662 15.4246 6.92493C15.5315 6.9775 15.5976 7.08932 15.5976 7.24381C15.5976 7.40151 15.5347 7.52836 15.4279 7.58676ZM17.7912 9.68681H16.9504V6.07966H17.7912V9.68681ZM27.5524 9.68681H26.3846L24.8226 6.97943V9.68681H23.1443L22.8236 8.88224H21.1117L20.8007 9.68681H19.8361C19.4357 9.68681 18.9284 9.59413 18.6413 9.28785C18.3517 8.98158 18.201 8.56673 18.201 7.91077C18.201 7.3758 18.291 6.88674 18.6452 6.50026C18.9116 6.21239 19.3289 6.07966 19.8967 6.07966H20.6945V6.85257H19.9134C19.6127 6.85257 19.4428 6.89939 19.2793 7.06624C19.1388 7.21815 19.0424 7.50524 19.0424 7.88334C19.0424 8.26977 19.1158 8.54845 19.269 8.73046C19.3958 8.8732 19.6264 8.91649 19.8433 8.91649H20.2134L21.3748 6.07978H22.6097L24.0049 9.49162V6.07982H25.2597L26.7083 8.59202V6.07982H27.5524V9.68681ZM22.5432 8.13368L21.9729 6.69566L21.4057 8.13368H22.5432ZM29.6523 15.4468C29.4522 15.753 29.0621 15.9083 28.5341 15.9083H26.9426V15.1346H28.5276C28.6848 15.1346 28.7948 15.113 28.8611 15.0453C28.9237 14.9848 28.9591 14.8993 28.9585 14.81C28.9585 14.7048 28.9185 14.6214 28.8579 14.5714C28.7981 14.5163 28.711 14.4913 28.5675 14.4913C27.7937 14.4638 26.8284 14.5163 26.8284 13.3745C26.8284 12.8513 27.1459 12.3004 28.0107 12.3004H29.6522V11.5826H28.127C27.6668 11.5826 27.3324 11.698 27.0956 11.8772V11.5826H24.8398C24.4789 11.5826 24.0555 11.6762 23.8553 11.8772V11.5826H19.8268V11.8772C19.5063 11.6353 18.9654 11.5826 18.7156 11.5826H16.0585V11.8772C15.8048 11.6202 15.2408 11.5826 14.897 11.5826H11.9231L11.2427 12.3531L10.6053 11.5826H6.16282V16.6169H10.5214L11.2226 15.8341L11.8832 16.6169L14.5699 16.6194V15.4351H14.8339C15.1904 15.4409 15.6109 15.4258 15.9818 15.2581V16.6167H18.1979V15.3046H18.3048C18.4412 15.3046 18.4546 15.3105 18.4546 15.453V16.6166H25.1866C25.6139 16.6166 26.0607 16.5022 26.3082 16.2944V16.6166H28.4435C28.8878 16.6166 29.3217 16.5514 29.6519 16.3846L29.652 15.4466L29.6523 15.4468ZM16.3042 13.5103C16.3042 14.5126 15.5895 14.7195 14.8692 14.7195H13.8409V15.9297H12.2392L11.2244 14.7352L10.1699 15.9297H6.90555V12.3216H10.22L11.2339 13.5043L12.2822 12.3216H14.9155C15.5694 12.3216 16.3042 12.5111 16.3042 13.5103ZM9.75241 15.1708H7.72624V14.4529H9.53549V13.7168H7.72624V13.0608H9.79231L10.6937 14.1123L9.75241 15.1708ZM13.017 15.5839L11.7518 14.1142L13.017 12.6912V15.5839ZM14.8882 13.9796H13.8233V13.0608H14.8978C15.1953 13.0608 15.4019 13.1877 15.4019 13.5032C15.4019 13.8152 15.2049 13.9796 14.8882 13.9796ZM20.4676 12.3216H23.218V13.0678H21.2882V13.7238H23.1709V14.4599H21.2882V15.1778L23.218 15.1811V15.9297H20.4675L20.4676 12.3216ZM19.4101 14.2529C19.5935 14.3238 19.7435 14.4507 19.8138 14.5558C19.9302 14.732 19.947 14.8964 19.9503 15.2144V15.9297H19.1229V15.4783C19.1229 15.2612 19.1429 14.9398 18.9897 14.772C18.8693 14.6428 18.6857 14.6119 18.3851 14.6119H17.5044V15.9297H16.6763V12.3217H18.5789C18.9961 12.3217 19.3 12.341 19.5705 12.4919C19.8305 12.6564 19.9942 12.8815 19.9942 13.2932C19.9941 13.869 19.627 14.1629 19.4101 14.2529ZM18.9443 13.7968C18.8341 13.8653 18.6978 13.8712 18.5375 13.8712H17.5363V13.0609H18.551C18.6978 13.0609 18.8446 13.0642 18.9443 13.126C19.0511 13.1845 19.115 13.2963 19.115 13.4506C19.115 13.6049 19.0511 13.7293 18.9443 13.7968ZM26.3837 14.0267C26.5443 14.2003 26.6302 14.4197 26.6302 14.791C26.6302 15.5672 26.1668 15.9295 25.3355 15.9295H23.7305V15.1558H25.3291C25.4855 15.1558 25.5963 15.1343 25.6657 15.0665C25.7224 15.0107 25.7631 14.9296 25.7631 14.8312C25.7631 14.7261 25.7191 14.6427 25.6625 14.5926C25.5995 14.5376 25.5126 14.5126 25.3691 14.5126C24.5984 14.4851 23.6332 14.5376 23.6332 13.3959C23.6332 12.8725 23.9474 12.3217 24.8115 12.3217H26.4636V13.0896H24.9519C24.8021 13.0896 24.7046 13.0956 24.6217 13.1548C24.5315 13.2132 24.498 13.2999 24.498 13.4143C24.498 13.5504 24.5746 13.643 24.6783 13.6831C24.7652 13.7147 24.8587 13.724 24.999 13.724L25.4426 13.7365C25.8899 13.7479 26.197 13.8289 26.3837 14.0267ZM29.6538 13.0608H28.1518C28.0019 13.0608 27.9022 13.0667 27.8184 13.126C27.7314 13.1844 27.698 13.2711 27.698 13.3856C27.698 13.5217 27.7713 13.6142 27.8781 13.6543C27.9651 13.686 28.0585 13.6952 28.1957 13.6952L28.6424 13.7077C29.093 13.7194 29.3938 13.8004 29.5773 13.9981C29.6108 14.0256 29.6307 14.0565 29.6537 14.0875V13.0608H29.6538Z" fill="white"/>
</svg>
