<svg width="72" height="72" viewBox="0 0 72 72" fill="none" xmlns="http://www.w3.org/2000/svg">
<circle cx="39.5" cy="32.5" r="32.5" fill="#F92A47"/>
<path fill-rule="evenodd" clip-rule="evenodd" d="M32.5 70C49.3447 70 63 56.3447 63 39.5C63 22.6553 49.3447 9 32.5 9C15.6553 9 2 22.6553 2 39.5C2 56.3447 15.6553 70 32.5 70ZM32.5 72C50.4493 72 65 57.4493 65 39.5C65 21.5507 50.4493 7 32.5 7C14.5507 7 0 21.5507 0 39.5C0 57.4493 14.5507 72 32.5 72Z" fill="white"/>
<path fill-rule="evenodd" clip-rule="evenodd" d="M38.7243 30.7448L32 18L25.2757 30.7448L11.0768 33.2016L21.1199 43.5352L19.0687 57.7984L32 51.44L44.9313 57.7984L42.8801 43.5352L52.9232 33.2016L38.7243 30.7448ZM48.847 34.5261L37.4143 32.5479L32 22.286L26.5857 32.5479L15.1529 34.5261L23.2395 42.8464L21.5879 54.331L32 49.2113L42.412 54.331L40.7605 42.8464L48.847 34.5261Z" fill="white"/>
<path d="M34 46V34.0001L31 34L28 38.3449H30.7692V46H34Z" fill="white"/>
</svg>
