<svg width="41" height="41" viewBox="0 0 41 41" fill="none" xmlns="http://www.w3.org/2000/svg">
<rect x="0.0185547" y="0.973022" width="40" height="40" rx="2" fill="#F92A47"/>
<path d="M31.7215 9.1509C31.9094 9.30278 32.0186 9.53144 32.0186 9.77303V20.173H19.2186V11.5263L31.0509 8.99079C31.2872 8.94017 31.5336 8.99901 31.7215 9.1509Z" fill="white"/>
<path d="M17.6186 11.8692L8.65093 13.7908C8.28207 13.8698 8.01855 14.1958 8.01855 14.573V20.173H17.6186V11.8692Z" fill="white"/>
<path d="M8.01855 21.773V28.973C8.01855 29.3712 8.3113 29.7087 8.70542 29.765L17.6186 31.0383V21.773H8.01855Z" fill="white"/>
<path d="M19.2186 31.2669L31.1054 32.965C31.335 32.9978 31.5675 32.9293 31.7427 32.7774C31.9179 32.6254 32.0186 32.4049 32.0186 32.173V21.773H19.2186V31.2669Z" fill="white"/>
</svg>
