<svg width="38" height="39" viewBox="0 0 38 39" fill="none" xmlns="http://www.w3.org/2000/svg">
<path d="M12.25 37V30.9368H9.25C4.70095 30.9368 1 27.1969 1 22.6V9.33684C1 4.73991 4.70095 1 9.25 1H28.75C33.299 1 37 4.73991 37 9.33684V22.6C37 27.1969 33.299 30.9368 28.75 30.9368H22.25C21.2907 31.6639 12.25 37 12.25 37Z" stroke="#25293D" stroke-width="2"/>
<path d="M27 17C27 12.5888 23.4112 9 19 9" stroke="#25293D" stroke-width="2"/>
<path d="M24 17C24 14.243 21.757 12 19 12" stroke="#25293D" stroke-width="2"/>
<path d="M31 18C31 11.3832 25.6169 6 19 6" stroke="#25293D" stroke-width="2"/>
<path d="M24.0597 25C16.0619 25.0112 9.99157 18.8687 10 10.9403C10 10.4219 10.42 10 10.9375 10H13.4125C13.8766 10 14.2713 10.3412 14.3397 10.8006C14.5029 11.9022 14.8234 12.9747 15.2913 13.9853L15.3878 14.1934C15.4527 14.3335 15.4666 14.4918 15.4273 14.641C15.3879 14.7903 15.2977 14.9211 15.1722 15.0109C14.4053 15.5584 14.1128 16.66 14.71 17.5187C15.4591 18.5969 16.4031 19.5419 17.4813 20.2909C18.3409 20.8872 19.4425 20.5947 19.9891 19.8287C20.0788 19.7029 20.2097 19.6123 20.3592 19.5728C20.5087 19.5332 20.6672 19.5472 20.8075 19.6122L21.0147 19.7078C22.0253 20.1766 23.0978 20.4972 24.1994 20.6603C24.6588 20.7287 25 21.1234 25 21.5884V24.0625C25 24.1857 24.9757 24.3077 24.9285 24.4215C24.8814 24.5353 24.8122 24.6387 24.7251 24.7257C24.6379 24.8128 24.5345 24.8818 24.4206 24.9289C24.3068 24.9759 24.1848 25.0001 24.0616 25H24.0597Z" stroke="#25293D" stroke-width="2"/>
</svg>
