<svg width="72" height="72" viewBox="0 0 72 72" fill="none" xmlns="http://www.w3.org/2000/svg">
<path d="M72 32.5C72 50.4493 57.4493 65 39.5 65C21.5507 65 7 50.4493 7 32.5C7 14.5507 21.5507 0 39.5 0C57.4493 0 72 14.5507 72 32.5Z" fill="#F92A47"/>
<path fill-rule="evenodd" clip-rule="evenodd" d="M32.5 70C49.3447 70 63 56.3447 63 39.5C63 22.6553 49.3447 9 32.5 9C15.6553 9 2 22.6553 2 39.5C2 56.3447 15.6553 70 32.5 70ZM32.5 72C50.4493 72 65 57.4493 65 39.5C65 21.5507 50.4493 7 32.5 7C14.5507 7 0 21.5507 0 39.5C0 57.4493 14.5507 72 32.5 72Z" fill="white"/>
<path fill-rule="evenodd" clip-rule="evenodd" d="M16.8 25C16.3589 25 16 25.3581 16 25.8015V49.2207C16 49.6642 16.3589 50.0222 16.8 50.0222H34.8C35.3523 50.0222 35.8 50.4699 35.8 51.0222C35.8 51.5745 35.3523 52.0222 34.8 52.0222H16.8C15.2528 52.0222 14 50.7672 14 49.2207V25.8015C14 24.255 15.2528 23 16.8 23H49.2C50.7472 23 52 24.2551 52 25.8015V49.2207C52 50.7672 50.7472 52.0222 49.2 52.0222H42C41.4477 52.0222 41 51.5745 41 51.0222C41 50.4699 41.4477 50.0222 42 50.0222H49.2C49.6411 50.0222 50 49.6642 50 49.2207V25.8015C50 25.358 49.6411 25 49.2 25H16.8Z" fill="white"/>
<path fill-rule="evenodd" clip-rule="evenodd" d="M21.1992 30.1113H44.7992V32.1113H21.1992V30.1113Z" fill="white"/>
<path fill-rule="evenodd" clip-rule="evenodd" d="M21.1992 36.5107H28.9592V38.5107H21.1992V36.5107Z" fill="white"/>
<path fill-rule="evenodd" clip-rule="evenodd" d="M21.1992 42.9111H26.7992V44.9111H21.1992V42.9111Z" fill="white"/>
<path d="M38.7602 54.2441L42.3602 56.0003V46.7559C42.3602 46.7559 41.3336 48.0974 38.7602 48.0974C36.1867 48.0974 35.1602 46.7803 35.1602 46.7803V56.0003L38.7602 54.2441Z" fill="white"/>
<path fill-rule="evenodd" clip-rule="evenodd" d="M32 42.8441C32 39.3346 34.8771 36.5107 38.4 36.5107C41.9229 36.5107 44.8 39.3346 44.8 42.8441C44.8 46.3535 41.9229 49.1774 38.4 49.1774C34.8771 49.1774 32 46.3535 32 42.8441ZM38.4 38.5107C35.9582 38.5107 34 40.4625 34 42.8441C34 45.2256 35.9582 47.1774 38.4 47.1774C40.8418 47.1774 42.8 45.2256 42.8 42.8441C42.8 40.4625 40.8418 38.5107 38.4 38.5107Z" fill="white"/>
</svg>
