<svg width="24" height="24" viewBox="0 0 24 24" fill="none" xmlns="http://www.w3.org/2000/svg">
<path d="M1.71429 0.75H8.57143C9.10399 0.75 9.53571 1.18173 9.53571 1.71429V8.57143C9.53571 9.10399 9.10399 9.53571 8.57143 9.53571H1.71429C1.18173 9.53571 0.75 9.10399 0.75 8.57143V1.71429C0.75 1.18173 1.18173 0.75 1.71429 0.75ZM15.4286 0.75H22.2857C22.8183 0.75 23.25 1.18173 23.25 1.71429V8.57143C23.25 9.10399 22.8183 9.53571 22.2857 9.53571H15.4286C14.896 9.53571 14.4643 9.10399 14.4643 8.57143V1.71429C14.4643 1.18173 14.896 0.75 15.4286 0.75ZM15.4286 14.4643H22.2857C22.8183 14.4643 23.25 14.896 23.25 15.4286V22.2857C23.25 22.8183 22.8183 23.25 22.2857 23.25H15.4286C14.896 23.25 14.4643 22.8183 14.4643 22.2857V15.4286C14.4643 14.896 14.896 14.4643 15.4286 14.4643ZM1.71429 14.4643H8.57143C9.10399 14.4643 9.53571 14.896 9.53571 15.4286V22.2857C9.53571 22.8183 9.10399 23.25 8.57143 23.25H1.71429C1.18173 23.25 0.75 22.8183 0.75 22.2857V15.4286C0.75 14.896 1.18173 14.4643 1.71429 14.4643Z" stroke="#25293D" stroke-width="1.5"/>
</svg>
