<svg width="65" height="65" viewBox="0 0 65 65" fill="none" xmlns="http://www.w3.org/2000/svg">
<path d="M65 32.5C65 50.4493 50.4493 65 32.5 65C14.5507 65 0 50.4493 0 32.5C0 14.5507 14.5507 0 32.5 0C50.4493 0 65 14.5507 65 32.5Z" fill="#F92A47"/>
<path fill-rule="evenodd" clip-rule="evenodd" d="M32.5 63C49.3447 63 63 49.3447 63 32.5C63 15.6553 49.3447 2 32.5 2C15.6553 2 2 15.6553 2 32.5C2 49.3447 15.6553 63 32.5 63ZM32.5 65C50.4493 65 65 50.4493 65 32.5C65 14.5507 50.4493 0 32.5 0C14.5507 0 0 14.5507 0 32.5C0 50.4493 14.5507 65 32.5 65Z" fill="white"/>
<path fill-rule="evenodd" clip-rule="evenodd" d="M31.5 16C31.5 15.4477 31.9477 15 32.5 15C42.165 15 50 22.835 50 32.5C50 42.165 42.165 50 32.5 50C22.835 50 15 42.165 15 32.5C15 26.9173 17.7891 21.9461 21.8573 18.7428H15.4287C14.8934 18.6072 14.5693 18.0633 14.7049 17.5279C14.8405 16.9925 15.3844 16.6684 15.9198 16.804L24.4287 17C24.9641 17.1356 25.2072 17.5361 25.0716 18.0715L24.4287 26.4286C24.2931 26.964 23.7492 27.2881 23.2138 27.1525C22.6784 27.0169 22.3544 26.4729 22.49 25.9375L23.143 20C19.8206 22.8438 17 27.7864 17 32.5C17 41.0604 23.9396 48 32.5 48C41.0604 48 48 41.0604 48 32.5C48 23.9396 41.0604 17 32.5 17C31.9477 17 31.5 16.5523 31.5 16Z" fill="white"/>
<path fill-rule="evenodd" clip-rule="evenodd" d="M41.7128 27.2986C42.1002 27.6923 42.095 28.3254 41.7014 28.7128L31.8537 38.4029L25.2986 31.9528C24.905 31.5654 24.8999 30.9323 25.2872 30.5386C25.6746 30.145 26.3077 30.1399 26.7014 30.5272L31.8537 35.5971L40.2986 27.2872C40.6923 26.8999 41.3254 26.905 41.7128 27.2986Z" fill="white"/>
</svg>
