<svg width="198" height="104" viewBox="0 0 198 104" fill="none" xmlns="http://www.w3.org/2000/svg">
<g opacity="0.6">
<path d="M0.000107289 92L10.0001 104L30 101L20 89L0.000107289 92Z" fill="#929DB1"/>
<path d="M20 89L30 101L32 82L22 70L20 89Z" fill="#A7B3C6"/>
<path d="M2.00007 73L-1.28727e-05 92L20 89L22 70L2.00007 73Z" fill="#D1DEED"/>
</g>
<path d="M192.823 92.191C192.823 91.7982 192.941 91.4142 193.161 91.0875C193.382 90.7609 193.695 90.5064 194.062 90.356C194.429 90.2057 194.832 90.1664 195.222 90.243C195.611 90.3197 195.969 90.5089 196.25 90.7867C196.53 91.0644 196.721 91.4183 196.799 91.8036C196.876 92.1889 196.837 92.5883 196.685 92.9512C196.533 93.3141 196.275 93.6243 195.945 93.8426C195.615 94.0608 195.227 94.1773 194.83 94.1773C194.567 94.1773 194.305 94.1259 194.062 94.0261C193.818 93.9263 193.597 93.78 193.411 93.5955C193.224 93.4111 193.077 93.1921 192.976 92.9511C192.875 92.7101 192.823 92.4518 192.823 92.191V92.191Z" fill="#929DB1"/>
<path d="M170.743 92.191C170.743 91.7982 170.861 91.4142 171.082 91.0875C171.302 90.7609 171.616 90.5064 171.982 90.356C172.349 90.2057 172.753 90.1664 173.142 90.243C173.532 90.3197 173.889 90.5089 174.17 90.7866C174.451 91.0644 174.642 91.4183 174.719 91.8036C174.797 92.1889 174.757 92.5883 174.605 92.9512C174.453 93.3141 174.196 93.6243 173.866 93.8426C173.536 94.0608 173.148 94.1773 172.751 94.1773C172.487 94.1773 172.226 94.1259 171.982 94.0261C171.739 93.9263 171.518 93.78 171.331 93.5955C171.145 93.4111 170.997 93.1921 170.896 92.9511C170.795 92.7101 170.743 92.4518 170.743 92.191Z" fill="#929DB1"/>
<path d="M148.663 92.191C148.663 91.7982 148.781 91.4142 149.002 91.0875C149.222 90.7609 149.536 90.5064 149.903 90.356C150.269 90.2057 150.673 90.1664 151.062 90.243C151.452 90.3197 151.809 90.5089 152.09 90.7867C152.371 91.0644 152.562 91.4183 152.639 91.8036C152.717 92.1889 152.677 92.5883 152.525 92.9512C152.373 93.3141 152.116 93.6243 151.786 93.8426C151.456 94.0608 151.068 94.1773 150.671 94.1773C150.407 94.1773 150.146 94.1259 149.903 94.0261C149.659 93.9263 149.438 93.78 149.251 93.5955C149.065 93.4111 148.917 93.1921 148.816 92.9511C148.715 92.7101 148.663 92.4518 148.663 92.191V92.191Z" fill="#929DB1"/>
<path d="M125.58 92.191C125.58 91.7982 125.698 91.4141 125.918 91.0875C126.139 90.7609 126.452 90.5063 126.819 90.356C127.186 90.2057 127.59 90.1664 127.979 90.243C128.368 90.3197 128.726 90.5089 129.007 90.7867C129.287 91.0644 129.478 91.4183 129.556 91.8036C129.633 92.1889 129.594 92.5883 129.442 92.9512C129.29 93.3141 129.032 93.6243 128.702 93.8425C128.372 94.0608 127.984 94.1773 127.587 94.1773C127.324 94.1773 127.063 94.1259 126.819 94.0261C126.576 93.9263 126.354 93.78 126.168 93.5955C125.981 93.4111 125.834 93.1921 125.733 92.9511C125.632 92.7101 125.58 92.4518 125.58 92.191Z" fill="#929DB1"/>
<path d="M103.5 92.1908C103.5 91.7979 103.618 91.4138 103.838 91.087C104.059 90.7603 104.372 90.5056 104.739 90.3552C105.105 90.2048 105.509 90.1654 105.898 90.2419C106.287 90.3185 106.645 90.5077 106.926 90.7854C107.207 91.0632 107.398 91.4172 107.475 91.8025C107.553 92.1879 107.513 92.5873 107.361 92.9504C107.209 93.3134 106.952 93.6237 106.622 93.8421C106.292 94.0604 105.904 94.177 105.507 94.1771C105.244 94.1771 104.983 94.1258 104.739 94.026C104.496 93.9262 104.275 93.78 104.088 93.5955C103.902 93.4111 103.754 93.1921 103.653 92.9511C103.552 92.71 103.5 92.4517 103.5 92.1908Z" fill="#929DB1"/>
<path d="M192.823 70.3421C192.823 69.9492 192.941 69.5652 193.161 69.2386C193.382 68.912 193.695 68.6574 194.062 68.5071C194.429 68.3568 194.832 68.3175 195.222 68.3941C195.611 68.4708 195.969 68.6599 196.25 68.9377C196.53 69.2155 196.721 69.5694 196.799 69.9547C196.876 70.34 196.837 70.7393 196.685 71.1022C196.533 71.4652 196.275 71.7754 195.945 71.9936C195.615 72.2119 195.227 72.3283 194.83 72.3283C194.567 72.3283 194.306 72.277 194.062 72.1771C193.818 72.0773 193.597 71.931 193.411 71.7466C193.224 71.5621 193.077 71.3432 192.976 71.1022C192.875 70.8612 192.823 70.6029 192.823 70.3421Z" fill="#929DB1"/>
<path d="M170.743 70.3421C170.743 69.9492 170.861 69.5652 171.082 69.2386C171.302 68.912 171.616 68.6574 171.982 68.5071C172.349 68.3568 172.753 68.3175 173.142 68.3941C173.532 68.4708 173.889 68.6599 174.17 68.9377C174.451 69.2155 174.642 69.5694 174.719 69.9547C174.797 70.34 174.757 70.7393 174.605 71.1023C174.453 71.4652 174.196 71.7754 173.866 71.9936C173.536 72.2119 173.148 72.3284 172.751 72.3284C172.487 72.3283 172.226 72.277 171.982 72.1771C171.739 72.0773 171.518 71.931 171.331 71.7466C171.145 71.5621 170.997 71.3432 170.896 71.1022C170.795 70.8612 170.743 70.6029 170.743 70.3421V70.3421Z" fill="#929DB1"/>
<path d="M148.663 70.3421C148.663 69.9492 148.781 69.5652 149.002 69.2386C149.222 68.912 149.536 68.6574 149.903 68.5071C150.269 68.3568 150.673 68.3175 151.062 68.3941C151.452 68.4708 151.809 68.6599 152.09 68.9377C152.371 69.2155 152.562 69.5694 152.639 69.9547C152.717 70.34 152.677 70.7393 152.525 71.1023C152.373 71.4652 152.116 71.7754 151.786 71.9936C151.456 72.2118 151.068 72.3283 150.671 72.3283C150.407 72.3283 150.146 72.277 149.903 72.1771C149.659 72.0773 149.438 71.931 149.251 71.7466C149.065 71.5621 148.917 71.3432 148.816 71.1022C148.715 70.8612 148.663 70.6029 148.663 70.3421Z" fill="#929DB1"/>
<path d="M125.58 70.342C125.58 69.9492 125.698 69.5652 125.918 69.2386C126.139 68.912 126.452 68.6574 126.819 68.5071C127.186 68.3568 127.59 68.3175 127.979 68.3941C128.368 68.4708 128.726 68.6599 129.007 68.9377C129.287 69.2155 129.478 69.5694 129.556 69.9547C129.633 70.34 129.594 70.7393 129.442 71.1023C129.29 71.4652 129.032 71.7754 128.702 71.9936C128.372 72.2118 127.984 72.3283 127.587 72.3283C127.324 72.3283 127.063 72.277 126.819 72.1771C126.576 72.0773 126.354 71.931 126.168 71.7466C125.981 71.5621 125.834 71.3432 125.733 71.1022C125.632 70.8612 125.58 70.6029 125.58 70.342Z" fill="#929DB1"/>
<path d="M103.5 70.342C103.5 69.9492 103.618 69.5652 103.839 69.2386C104.059 68.912 104.373 68.6574 104.74 68.5071C105.106 68.3568 105.51 68.3175 105.899 68.3941C106.289 68.4708 106.646 68.6599 106.927 68.9377C107.208 69.2155 107.399 69.5694 107.476 69.9547C107.554 70.34 107.514 70.7393 107.362 71.1022C107.21 71.4652 106.953 71.7754 106.623 71.9936C106.293 72.2118 105.905 72.3283 105.508 72.3283C105.244 72.3283 104.983 72.277 104.739 72.1771C104.496 72.0773 104.275 71.931 104.088 71.7466C103.902 71.5621 103.754 71.3432 103.653 71.1022C103.552 70.8612 103.5 70.6029 103.5 70.342Z" fill="#929DB1"/>
<path d="M196.25 46.0956C195.466 45.3199 194.195 45.3199 193.411 46.0956C192.627 46.8712 192.627 48.1288 193.411 48.9045C194.195 49.6802 195.466 49.6802 196.249 48.9045C197.033 48.1289 197.033 46.8713 196.25 46.0956Z" fill="#929DB1"/>
<path d="M170.743 47.5C170.743 47.1071 170.861 46.7231 171.082 46.3965C171.302 46.0699 171.616 45.8153 171.982 45.665C172.349 45.5147 172.753 45.4754 173.142 45.552C173.532 45.6287 173.889 45.8178 174.17 46.0956C174.451 46.3734 174.642 46.7273 174.719 47.1126C174.797 47.4979 174.757 47.8972 174.605 48.2602C174.453 48.6231 174.196 48.9333 173.866 49.1515C173.536 49.3698 173.148 49.4862 172.751 49.4862C172.487 49.4862 172.226 49.4349 171.982 49.3351C171.739 49.2352 171.518 49.0889 171.331 48.9045C171.145 48.72 170.997 48.5011 170.896 48.2601C170.795 48.0191 170.743 47.7608 170.743 47.5Z" fill="#929DB1"/>
<path d="M148.663 47.5C148.663 47.1071 148.781 46.7231 149.002 46.3965C149.222 46.0699 149.536 45.8153 149.903 45.665C150.269 45.5147 150.673 45.4754 151.062 45.552C151.452 45.6287 151.809 45.8178 152.09 46.0956C152.371 46.3734 152.562 46.7273 152.639 47.1126C152.717 47.4979 152.677 47.8972 152.525 48.2602C152.373 48.6231 152.116 48.9333 151.786 49.1515C151.456 49.3698 151.068 49.4862 150.671 49.4862C150.407 49.4862 150.146 49.4349 149.903 49.3351C149.659 49.2352 149.438 49.0889 149.251 48.9045C149.065 48.72 148.917 48.5011 148.816 48.2601C148.715 48.0191 148.663 47.7608 148.663 47.5Z" fill="#929DB1"/>
<path d="M125.58 47.5C125.58 47.1071 125.698 46.7231 125.918 46.3965C126.139 46.0699 126.452 45.8153 126.819 45.665C127.186 45.5147 127.59 45.4754 127.979 45.552C128.368 45.6287 128.726 45.8178 129.007 46.0956C129.287 46.3734 129.478 46.7273 129.556 47.1126C129.633 47.4979 129.594 47.8972 129.442 48.2602C129.29 48.6231 129.032 48.9333 128.702 49.1515C128.372 49.3698 127.984 49.4862 127.587 49.4862C127.324 49.4862 127.063 49.4349 126.819 49.3351C126.576 49.2352 126.354 49.0889 126.168 48.9045C125.981 48.72 125.834 48.5011 125.733 48.2601C125.632 48.0191 125.58 47.7608 125.58 47.5Z" fill="#929DB1"/>
<path d="M103.5 47.5C103.5 47.1071 103.618 46.7231 103.839 46.3965C104.059 46.0699 104.373 45.8153 104.74 45.665C105.106 45.5147 105.51 45.4754 105.899 45.552C106.289 45.6287 106.646 45.8178 106.927 46.0956C107.208 46.3734 107.399 46.7273 107.476 47.1126C107.554 47.4979 107.514 47.8972 107.362 48.2602C107.21 48.6231 106.953 48.9333 106.623 49.1515C106.293 49.3698 105.905 49.4862 105.508 49.4862C105.244 49.4862 104.983 49.4349 104.739 49.3351C104.496 49.2352 104.275 49.0889 104.088 48.9045C103.902 48.72 103.754 48.5011 103.653 48.2601C103.552 48.0191 103.5 47.7608 103.5 47.5Z" fill="#929DB1"/>
<path d="M192.823 25.651C192.823 25.2582 192.941 24.8742 193.161 24.5476C193.382 24.2209 193.695 23.9664 194.062 23.8161C194.429 23.6657 194.832 23.6264 195.222 23.7031C195.611 23.7797 195.969 23.9689 196.25 24.2467C196.53 24.5245 196.721 24.8784 196.799 25.2636C196.876 25.6489 196.837 26.0483 196.685 26.4112C196.533 26.7741 196.275 27.0843 195.945 27.3026C195.615 27.5208 195.227 27.6373 194.83 27.6373C194.567 27.6373 194.306 27.5859 194.062 27.4861C193.818 27.3863 193.597 27.24 193.411 27.0555C193.224 26.8711 193.076 26.6521 192.976 26.4111C192.875 26.1701 192.823 25.9119 192.823 25.651Z" fill="#929DB1"/>
<path d="M170.743 25.651C170.743 25.2582 170.861 24.8742 171.082 24.5476C171.302 24.2209 171.616 23.9664 171.982 23.8161C172.349 23.6657 172.753 23.6264 173.142 23.7031C173.532 23.7797 173.889 23.9689 174.17 24.2467C174.451 24.5245 174.642 24.8784 174.719 25.2636C174.797 25.6489 174.757 26.0483 174.605 26.4112C174.453 26.7741 174.196 27.0843 173.866 27.3026C173.536 27.5208 173.148 27.6373 172.751 27.6373C172.487 27.6373 172.226 27.5859 171.982 27.4861C171.739 27.3863 171.518 27.24 171.331 27.0555C171.145 26.8711 170.997 26.6521 170.896 26.4111C170.795 26.1701 170.743 25.9118 170.743 25.651Z" fill="#929DB1"/>
<path d="M148.663 25.651C148.663 25.2582 148.781 24.8742 149.002 24.5476C149.222 24.2209 149.536 23.9664 149.903 23.816C150.269 23.6657 150.673 23.6264 151.062 23.7031C151.452 23.7797 151.809 23.9689 152.09 24.2467C152.371 24.5244 152.562 24.8784 152.639 25.2636C152.717 25.6489 152.677 26.0483 152.525 26.4112C152.373 26.7741 152.116 27.0843 151.786 27.3026C151.456 27.5208 151.068 27.6373 150.671 27.6373C150.407 27.6373 150.146 27.5859 149.903 27.4861C149.659 27.3863 149.438 27.24 149.251 27.0555C149.065 26.8711 148.917 26.6521 148.816 26.4111C148.715 26.1701 148.663 25.9118 148.663 25.651Z" fill="#929DB1"/>
<path d="M125.58 25.651C125.58 25.2582 125.698 24.8742 125.918 24.5476C126.139 24.2209 126.452 23.9664 126.819 23.8161C127.186 23.6657 127.59 23.6264 127.979 23.7031C128.368 23.7797 128.726 23.9689 129.007 24.2467C129.287 24.5245 129.478 24.8784 129.556 25.2637C129.633 25.6489 129.594 26.0483 129.442 26.4112C129.29 26.7741 129.032 27.0843 128.702 27.3026C128.372 27.5208 127.984 27.6373 127.587 27.6373C127.324 27.6373 127.063 27.5859 126.819 27.4861C126.576 27.3863 126.354 27.24 126.168 27.0555C125.981 26.8711 125.834 26.6521 125.733 26.4111C125.632 26.1701 125.58 25.9118 125.58 25.651Z" fill="#929DB1"/>
<path d="M103.5 25.651C103.5 25.2582 103.618 24.8742 103.839 24.5476C104.059 24.2209 104.373 23.9664 104.74 23.8161C105.106 23.6657 105.51 23.6264 105.899 23.7031C106.289 23.7797 106.646 23.9689 106.927 24.2467C107.208 24.5245 107.399 24.8784 107.476 25.2637C107.554 25.6489 107.514 26.0483 107.362 26.4112C107.21 26.7741 106.953 27.0843 106.623 27.3026C106.293 27.5208 105.905 27.6373 105.508 27.6373C105.244 27.6373 104.983 27.5859 104.739 27.4861C104.496 27.3863 104.275 27.24 104.088 27.0555C103.902 26.8711 103.754 26.6521 103.653 26.4111C103.552 26.1701 103.5 25.9119 103.5 25.651V25.651Z" fill="#929DB1"/>
<path d="M192.823 2.80891C192.823 2.41608 192.941 2.03207 193.161 1.70545C193.382 1.37883 193.695 1.12428 194.062 0.973959C194.429 0.823642 194.832 0.784313 195.222 0.860963C195.611 0.937612 195.969 1.12679 196.25 1.40457C196.53 1.68235 196.721 2.03626 196.799 2.42154C196.876 2.80683 196.837 3.20619 196.685 3.56911C196.533 3.93204 196.275 4.24222 195.945 4.46046C195.615 4.6787 195.227 4.79518 194.83 4.79518C194.567 4.79519 194.306 4.74383 194.062 4.64401C193.818 4.54419 193.597 4.39788 193.411 4.21343C193.224 4.02898 193.076 3.81002 192.976 3.56903C192.875 3.32804 192.823 3.06975 192.823 2.80891Z" fill="#929DB1"/>
<path d="M170.743 2.8089C170.743 2.41607 170.861 2.03207 171.082 1.70545C171.302 1.37883 171.616 1.12428 171.982 0.973959C172.349 0.823642 172.753 0.784313 173.142 0.860963C173.532 0.937612 173.889 1.12679 174.17 1.40457C174.451 1.68235 174.642 2.03626 174.719 2.42154C174.797 2.80683 174.757 3.20619 174.605 3.56911C174.453 3.93204 174.196 4.24222 173.866 4.46046C173.536 4.6787 173.148 4.79518 172.751 4.79518C172.487 4.79519 172.226 4.74383 171.982 4.64401C171.739 4.54419 171.518 4.39787 171.331 4.21342C171.145 4.02898 170.997 3.81002 170.896 3.56903C170.795 3.32804 170.743 3.06974 170.743 2.8089Z" fill="#929DB1"/>
<path d="M148.663 2.8089C148.663 2.41607 148.781 2.03207 149.002 1.70545C149.222 1.37883 149.536 1.12427 149.903 0.973953C150.269 0.823636 150.673 0.784314 151.062 0.860964C151.452 0.937614 151.809 1.12679 152.09 1.40457C152.371 1.68235 152.562 2.03626 152.639 2.42155C152.717 2.80683 152.677 3.20618 152.525 3.56911C152.373 3.93203 152.116 4.24222 151.786 4.46046C151.456 4.6787 151.068 4.79518 150.671 4.79518C150.407 4.79519 150.146 4.74382 149.903 4.64401C149.659 4.54419 149.438 4.39787 149.251 4.21343C149.065 4.02898 148.917 3.81002 148.816 3.56903C148.715 3.32803 148.663 3.06974 148.663 2.8089Z" fill="#929DB1"/>
<path d="M125.58 2.80891C125.58 2.41608 125.698 2.03207 125.918 1.70545C126.139 1.37883 126.452 1.12427 126.819 0.973952C127.186 0.823634 127.59 0.784311 127.979 0.86096C128.368 0.937609 128.726 1.1268 129.007 1.40458C129.287 1.68236 129.478 2.03626 129.556 2.42155C129.633 2.80683 129.594 3.20617 129.442 3.5691C129.29 3.93202 129.032 4.24223 128.702 4.46046C128.372 4.6787 127.984 4.79517 127.587 4.79517C127.324 4.79518 127.063 4.74381 126.819 4.64399C126.576 4.54418 126.354 4.39788 126.168 4.21343C125.981 4.02899 125.834 3.81001 125.733 3.56902C125.632 3.32803 125.58 3.06975 125.58 2.80891V2.80891Z" fill="#929DB1"/>
<path d="M103.5 2.8089C103.5 2.41607 103.618 2.03207 103.839 1.70545C104.059 1.37883 104.373 1.12427 104.74 0.973958C105.106 0.82364 105.51 0.784317 105.899 0.860966C106.289 0.937615 106.646 1.12678 106.927 1.40456C107.208 1.68234 107.399 2.03627 107.476 2.42155C107.554 2.80683 107.514 3.20618 107.362 3.5691C107.21 3.93203 106.953 4.24223 106.623 4.46046C106.293 4.6787 105.905 4.79517 105.508 4.79517C105.244 4.79518 104.983 4.74382 104.739 4.644C104.496 4.54418 104.275 4.39787 104.088 4.21342C103.902 4.02898 103.754 3.81002 103.653 3.56903C103.552 3.32804 103.5 3.06974 103.5 2.8089V2.8089Z" fill="#929DB1"/>
</svg>
