<svg width="72" height="72" viewBox="0 0 72 72" fill="none" xmlns="http://www.w3.org/2000/svg">
<g clip-path="url(#clip0_1538_13966)">
<circle cx="39.5" cy="32.5002" r="32.5" fill="#F92A47"/>
<path fill-rule="evenodd" clip-rule="evenodd" d="M32.5 70.0002C49.3447 70.0002 63 56.3449 63 39.5002C63 22.6556 49.3447 9.00024 32.5 9.00024C15.6553 9.00024 2 22.6556 2 39.5002C2 56.3449 15.6553 70.0002 32.5 70.0002ZM32.5 72.0002C50.4493 72.0002 65 57.4495 65 39.5002C65 21.551 50.4493 7.00024 32.5 7.00024C14.5507 7.00024 0 21.551 0 39.5002C0 57.4495 14.5507 72.0002 32.5 72.0002Z" fill="white"/>
<path fill-rule="evenodd" clip-rule="evenodd" d="M14.0605 53.6583C13.8717 54.1773 14.1393 54.7511 14.6583 54.94L23.1158 58.0174C23.6348 58.2062 24.2087 57.9386 24.3975 57.4196C24.5863 56.9006 24.3187 56.3268 23.7997 56.1379L17.6109 53.886L32.9356 46.7383L46.6552 53.7865L40.385 55.8008C39.8592 55.9697 39.5698 56.5329 39.7387 57.0587C39.9077 57.5845 40.4709 57.8738 40.9967 57.7049L49.5654 54.9523C50.0912 54.7834 50.3806 54.2202 50.2116 53.6944L47.4591 45.1257C47.2901 44.5998 46.727 44.3105 46.2011 44.4794C45.6753 44.6483 45.386 45.2115 45.5549 45.7373L47.5691 52.0076L33.9569 45.0145L33.9569 27.101L38.6137 31.7578C39.0042 32.1484 39.6374 32.1484 40.0279 31.7578C40.4184 31.3673 40.4184 30.7341 40.0279 30.3436L33.664 23.9797C33.2734 23.5891 32.6403 23.5891 32.2497 23.9797L25.8858 30.3436C25.4953 30.7341 25.4953 31.3673 25.8858 31.7578C26.2763 32.1484 26.9095 32.1484 27.3 31.7578L31.9569 27.101L31.9569 44.988L16.7655 52.0735L19.0174 45.8847C19.2063 45.3657 18.9386 44.7919 18.4196 44.603C17.9006 44.4142 17.3268 44.6818 17.138 45.2008L14.0605 53.6583Z" fill="white"/>
</g>
<defs>
<clipPath id="clip0_1538_13966">
<rect width="72" height="72" fill="white"/>
</clipPath>
</defs>
</svg>
