<svg width="65" height="65" viewBox="0 0 65 65" fill="none" xmlns="http://www.w3.org/2000/svg">
<circle cx="32.5" cy="32.5" r="32" stroke="white"/>
<path d="M24.5514 18.4378C24.6192 18.1701 24.4571 17.8981 24.1894 17.8303L19.8272 16.7255C19.5595 16.6577 19.2875 16.8197 19.2197 17.0874C19.1519 17.3551 19.314 17.6271 19.5817 17.6949L23.4592 18.677L22.4771 22.5545C22.4093 22.8222 22.5713 23.0942 22.839 23.162C23.1067 23.2298 23.3787 23.0677 23.4465 22.8001L24.5514 18.4378ZM48.5 32.5C48.5 41.3366 41.3366 48.5 32.5 48.5V49.5C41.8888 49.5 49.5 41.8888 49.5 32.5H48.5ZM32.5 48.5C23.6634 48.5 16.5 41.3366 16.5 32.5H15.5C15.5 41.8888 23.1112 49.5 32.5 49.5V48.5ZM32.5 16.5C41.3366 16.5 48.5 23.6634 48.5 32.5H49.5C49.5 23.1112 41.8888 15.5 32.5 15.5V16.5ZM16.5 32.5C16.5 26.652 19.6371 21.5362 24.3226 18.7446L23.8107 17.8855C18.8351 20.85 15.5 26.2853 15.5 32.5H16.5Z" fill="white"/>
<path d="M26 30.24L31.8537 36L41 27" stroke="white" stroke-linecap="round"/>
</svg>
