<svg width="21" height="23" viewBox="0 0 21 23" fill="none" xmlns="http://www.w3.org/2000/svg">
<path d="M2.20137 8.45588L1.20653 8.35441L2.20137 8.45588ZM1.01147 20.1226L2.00631 20.2241L1.01147 20.1226ZM18.9924 20.1226L17.9976 20.2241L18.9924 20.1226ZM17.8025 8.45588L18.7974 8.35441L17.8025 8.45588ZM1.20653 8.35441L0.0166305 20.0211L2.00631 20.2241L3.19621 8.55734L1.20653 8.35441ZM2.53198 22.9733H17.4719V20.9733H2.53198V22.9733ZM19.9873 20.0211L18.7974 8.35441L16.8077 8.55734L17.9976 20.2241L19.9873 20.0211ZM16.282 5.97327H3.72188V7.97327H16.282V5.97327ZM18.7974 8.35441C18.6663 7.06972 17.6417 5.97327 16.282 5.97327V7.97327C16.4814 7.97327 16.7665 8.15393 16.8077 8.55734L18.7974 8.35441ZM17.4719 22.9733C19.0673 22.9733 20.1384 21.5032 19.9873 20.0211L17.9976 20.2241C18.0478 20.7166 17.7002 20.9733 17.4719 20.9733V22.9733ZM0.0166305 20.0211C-0.134526 21.5032 0.936626 22.9733 2.53198 22.9733V20.9733C2.3037 20.9733 1.95608 20.7165 2.00631 20.2241L0.0166305 20.0211ZM3.19621 8.55734C3.23735 8.15393 3.5225 7.97327 3.72188 7.97327V5.97327C2.36217 5.97327 1.33756 7.06972 1.20653 8.35441L3.19621 8.55734ZM10.002 2.97327C11.9055 2.97327 13.5916 4.68178 13.5916 6.97327H15.5916C15.5916 3.7419 13.1679 0.973267 10.002 0.973267V2.97327ZM6.41232 6.97327C6.41232 4.68178 8.09834 2.97327 10.002 2.97327V0.973267C6.83598 0.973267 4.41232 3.7419 4.41232 6.97327H6.41232Z" fill="black"/>
</svg>
