<svg width="100" height="14" viewBox="0 0 100 14" fill="none" xmlns="http://www.w3.org/2000/svg">
<g clip-path="url(#clip0_14_752)">
<path d="M98.3964 2.8026L100 0H81.748L83.3697 2.7996H89.4704V14H92.2787V2.7996L98.3964 2.8026Z" fill="white"/>
<path d="M78.1489 0V14H80.9767L80.9646 4.90055L78.1489 0Z" fill="white"/>
<path d="M75.3211 4.34538V4.04542C75.3211 1.81174 73.4904 0 71.2308 0L58.3545 0.0129981L59.9702 2.8096H71.037C71.799 2.8096 72.4509 3.46251 72.4509 4.2084C72.4509 4.81031 72.025 5.35223 71.4599 5.53821C71.3337 5.5742 71.2025 5.5942 71.0673 5.5942L61.5859 5.6072L63.3026 8.3918L71.037 8.4048C71.799 8.4048 72.4509 9.0577 72.4509 9.8036C72.4509 10.5495 71.799 11.2024 71.037 11.2024L64.8103 11.1894L66.426 13.987L71.1834 14C73.4672 14 75.2787 12.1893 75.2787 9.95458V9.65462C75.2787 9.21868 75.208 8.79974 75.0779 8.4058C74.9053 7.88587 74.6288 7.41194 74.2705 7.008C74.653 6.60106 74.9497 6.12213 75.1213 5.5962C75.2504 5.20226 75.3201 4.78332 75.3201 4.34738L75.3211 4.34538Z" fill="white"/>
<path d="M59.7687 14H62.9819L54.9489 0H51.7347L43.7017 14H46.9149H56.3538L54.6468 11.2004H48.5215L53.3413 2.8006L59.7687 14Z" fill="#F92A47"/>
<path d="M42.5028 8.402C41.9733 6.77758 40.442 5.603 38.6348 5.603L28.6334 5.598C27.8652 5.598 27.1953 4.97122 27.2294 4.1985C27.2615 3.46976 27.9023 2.799 28.6334 2.799H40.9685L42.6733 0L28.516 0.00499822C26.2696 0.00499822 24.4214 1.81935 24.4214 4.05855V4.34845C24.4214 4.78629 24.5187 5.20814 24.648 5.603C25.1775 7.22742 26.7089 8.402 28.516 8.402L38.4613 8.397C39.2295 8.397 39.9265 9.03977 39.8924 9.8125C39.8603 10.5412 39.1924 11.196 38.4613 11.196L26.1543 11.201L24.4214 13.995L38.6348 14C40.8812 14 42.6733 12.1856 42.6733 9.94645V9.65655C42.6733 9.21871 42.6322 8.79686 42.5028 8.402Z" fill="#F92A47"/>
<path d="M8.39776 14C4.7218 10.8795 0 9.79169 0 9.79169C0 9.79169 3.69559 4.77132 3.15395 0.343265C3.8476 0.0734845 5.13707 -0.0800637 6.59961 0.043057C6.12987 3.19727 4.42142 6.50225 4.38856 6.58204C6.65028 4.6956 8.24848 1.76317 8.69768 0.882149C9.71878 1.52989 10.5223 2.46218 11.0066 3.56103L5.00072 8.15068C5.00072 8.15068 7.71288 11.0229 8.39776 14Z" fill="white"/>
<path d="M19.5373 3.90992C19.5304 8.26901 18.0217 11.7125 15.367 14L8.94421 11.9466C8.07526 10.0858 6.61264 8.31837 6.61264 8.31837L11.6031 4.57592C11.7765 4.9238 12.0298 5.22691 12.3427 5.4611C12.6557 5.6953 13.0197 5.8541 13.4058 5.92489C13.7919 5.99567 14.1894 5.97647 14.5666 5.86882C14.9438 5.76117 15.2904 5.56803 15.5787 5.3048C15.64 7.09465 14.6095 8.49009 14.6095 8.49009C17.0293 8.4662 19.5373 3.90992 19.5373 3.90992Z" fill="white"/>
<path d="M9.76855 8.14551L12.3392 8.99592L10.0487 9.16369L9.76855 8.14551Z" fill="#F92A47"/>
</g>
<defs>
<clipPath id="clip0_14_752">
<rect width="100" height="14" fill="white"/>
</clipPath>
</defs>
</svg>
