<svg width="220" height="31" viewBox="0 0 220 31" fill="none" xmlns="http://www.w3.org/2000/svg">
<g clip-path="url(#clip0_7_94)">
<path d="M216.472 6.20576L220 0H179.846L183.413 6.19911H196.835V31H203.013V6.19911L216.472 6.20576Z" fill="white"/>
<path d="M171.928 0V31H178.149L178.122 10.8512L171.928 0Z" fill="white"/>
<path d="M165.707 9.62191V8.95772C165.707 4.01171 161.68 0 156.709 0L128.381 0.0287816L131.935 6.22125H156.282C157.958 6.22125 159.393 7.66698 159.393 9.3186C159.393 10.6514 158.456 11.8514 157.212 12.2632C156.935 12.3429 156.646 12.3872 156.349 12.3872L135.49 12.4159L139.266 18.5818L156.282 18.6106C157.958 18.6106 159.393 20.0563 159.393 21.708C159.393 23.3596 157.958 24.8053 156.282 24.8053L142.583 24.7765L146.138 30.9712L156.604 31C161.629 31 165.614 26.9905 165.614 22.0423V21.3781C165.614 20.4128 165.458 19.4851 165.172 18.6128C164.792 17.4616 164.184 16.4122 163.396 15.5177C164.237 14.6166 164.89 13.5561 165.267 12.3916C165.552 11.5193 165.705 10.5916 165.705 9.62634L165.707 9.62191Z" fill="white"/>
<path d="M131.491 31H138.56L120.888 0H113.817L96.144 31H103.213H123.979L120.223 24.8009H106.748L117.351 6.20133L131.491 31Z" fill="#F92A47"/>
<path d="M93.5067 18.6044C92.3418 15.0075 88.9728 12.4066 84.9971 12.4066L62.9939 12.3956C61.3039 12.3956 59.8301 11.0077 59.9051 9.29668C59.9757 7.68304 61.3855 6.19779 62.9939 6.19779H90.1311L93.8818 0L62.7358 0.0110675C57.7937 0.0110675 53.7275 4.02856 53.7275 8.98679V9.6287C53.7275 10.5982 53.9415 11.5323 54.2262 12.4066C55.3911 16.0036 58.7601 18.6044 62.7358 18.6044L84.6154 18.5934C86.3054 18.5934 87.8388 20.0166 87.7638 21.7277C87.6932 23.3413 86.2238 24.7911 84.6154 24.7911L57.54 24.8022L53.7275 30.9889L84.9971 31C89.9392 31 93.8818 26.9825 93.8818 22.0243V21.3824C93.8818 20.4129 93.7913 19.4788 93.5067 18.6044Z" fill="#F92A47"/>
<path d="M18.4751 31C10.388 24.0904 0 21.6816 0 21.6816C0 21.6816 8.1303 10.5651 6.93869 0.760087C8.46472 0.162716 11.3016 -0.177284 14.5191 0.0953405C13.4857 7.07966 9.72713 14.3978 9.65482 14.5745C14.6306 10.3974 18.1467 3.90415 19.1349 1.95333C21.3813 3.38761 23.1491 5.45197 24.2146 7.88514L11.0016 18.0479C11.0016 18.0479 16.9683 24.4079 18.4751 31Z" fill="white"/>
<path d="M42.982 8.65767C42.9669 18.3099 39.6477 25.9347 33.8074 31L19.6773 26.4531C17.7656 22.3329 14.5478 18.4192 14.5478 18.4192L25.5268 10.1324C25.9083 10.9027 26.4655 11.5739 27.154 12.0924C27.8425 12.611 28.6434 12.9627 29.4927 13.1194C30.3421 13.2761 31.2166 13.2336 32.0465 12.9952C32.8764 12.7569 33.6389 12.3292 34.2732 11.7463C34.408 15.7096 32.1409 18.7995 32.1409 18.7995C37.4645 18.7466 42.982 8.65767 42.982 8.65767Z" fill="white"/>
<path d="M21.491 18.0364L27.1465 19.9194L22.1073 20.2909L21.491 18.0364Z" fill="#F92A47"/>
</g>
<defs>
<clipPath id="clip0_7_94">
<rect width="220" height="31" fill="white"/>
</clipPath>
</defs>
</svg>
