<svg width="235" height="65" viewBox="0 0 235 65" fill="none" xmlns="http://www.w3.org/2000/svg">
<path d="M108.76 30.1266V48.7342H105V30.1266H108.76ZM107.288 30.1266H111.179C112.634 30.1266 113.87 30.3747 114.887 30.8709C115.849 31.3187 116.661 32.0389 117.227 32.9442C117.77 33.8306 118.042 34.8673 118.042 36.0544C118.063 37.1436 117.781 38.2168 117.227 39.1512C116.665 40.0628 115.851 40.7882 114.887 41.2379C113.87 41.7343 112.634 41.9824 111.179 41.9823H107.288V38.9518H110.942C111.533 38.9669 112.121 38.8537 112.665 38.6196C113.122 38.4191 113.511 38.0861 113.782 37.6627C114.041 37.2052 114.177 36.6876 114.177 36.1607C114.177 35.6339 114.041 35.1162 113.782 34.6588C113.511 34.2355 113.122 33.9026 112.665 33.7018C112.121 33.4681 111.533 33.3548 110.942 33.3696H107.288V30.1266ZM113.151 40.0684L119.146 48.7342H114.703L109.181 40.0684H113.151Z" fill="#F92A47"/>
<path d="M124.405 48.7342H120.987V28H124.405V48.7342ZM128.336 39.4304C128.029 39.005 127.516 38.7923 126.798 38.7924C126.358 38.7843 125.924 38.8895 125.536 39.0981C125.176 39.2937 124.882 39.5948 124.694 39.962C124.492 40.3746 124.393 40.8309 124.405 41.2912H123.721C123.708 40.3899 123.873 39.4949 124.208 38.6594C124.508 37.9107 125.014 37.2648 125.667 36.7988C126.316 36.3381 127.113 36.1077 128.06 36.1075C129.007 36.1075 129.787 36.2848 130.4 36.6392C131.017 36.9981 131.498 37.5546 131.768 38.221C132.065 38.9212 132.214 39.7762 132.215 40.7861V48.7342H128.796V41.2912C128.796 40.4762 128.643 39.8559 128.336 39.4304Z" fill="#F92A47"/>
<path d="M136.027 30.3791C136.423 30.0185 136.94 29.8237 137.473 29.8342C138.003 29.8223 138.516 30.0175 138.906 30.3791C139.093 30.5578 139.242 30.7731 139.344 31.0119C139.445 31.2507 139.498 31.508 139.498 31.768C139.498 32.0281 139.445 32.2854 139.344 32.5242C139.242 32.763 139.093 32.9783 138.906 33.157C138.52 33.5261 138.005 33.7266 137.473 33.7152C136.938 33.7252 136.42 33.5251 136.027 33.157C135.836 32.9805 135.684 32.7659 135.58 32.5268C135.476 32.2877 135.422 32.0293 135.422 31.768C135.422 31.5068 135.476 31.2484 135.58 31.0093C135.684 30.7702 135.836 30.5556 136.027 30.3791ZM139.103 36.5064V48.7342H135.79V36.5064H139.103Z" fill="#F92A47"/>
<path d="M150.042 39.4304C149.726 39.005 149.218 38.7923 148.517 38.7924C148.077 38.7843 147.643 38.8895 147.255 39.098C146.894 39.2937 146.601 39.5948 146.413 39.9619C146.211 40.3746 146.112 40.8309 146.124 41.2912V48.7342H142.706V36.5064H146.124V38.367C146.457 37.7139 146.962 37.1665 147.583 36.7854C148.188 36.4224 148.92 36.2408 149.779 36.2405C151.216 36.2405 152.285 36.6525 152.987 37.4765C153.688 38.3006 154.038 39.4481 154.039 40.9189V48.7342H150.515V41.2912C150.515 40.4762 150.357 39.8559 150.042 39.4304Z" fill="#F92A47"/>
<path d="M157.47 39.2708C158.051 38.3196 158.878 37.5474 159.862 37.0379C160.932 36.5132 162.105 36.2405 163.294 36.2405C164.483 36.2405 165.656 36.5132 166.725 37.0379C167.709 37.5476 168.537 38.3198 169.118 39.2708C169.705 40.2278 169.999 41.3443 169.999 42.6203C170.021 43.7939 169.716 44.9502 169.118 45.9563C168.54 46.9134 167.712 47.6906 166.725 48.2025C165.656 48.7273 164.483 49 163.294 49C162.105 49 160.932 48.7273 159.862 48.2025C158.875 47.6908 158.047 46.9136 157.47 45.9563C156.871 44.9503 156.566 43.7939 156.589 42.6203C156.589 41.3443 156.882 40.2278 157.47 39.2708ZM160.493 44.4411C160.769 44.9483 161.174 45.3713 161.667 45.6659C162.16 45.9606 162.721 46.116 163.294 46.116C163.866 46.116 164.428 45.9606 164.921 45.6659C165.413 45.3713 165.819 44.9483 166.094 44.4411C166.392 43.8824 166.542 43.2549 166.528 42.6203C166.541 41.9814 166.391 41.35 166.094 40.786C165.825 40.2757 165.42 39.852 164.924 39.5632C164.425 39.2843 163.864 39.138 163.294 39.138C162.724 39.138 162.163 39.2843 161.664 39.5632C161.168 39.8518 160.762 40.2756 160.493 40.786C160.196 41.35 160.047 41.9814 160.06 42.6203C160.046 43.2549 160.195 43.8824 160.493 44.4411Z" fill="#F92A47"/>
<path d="M175.973 44.3015C176.283 44.8275 176.726 45.2607 177.258 45.5561C177.805 45.8609 178.42 46.0173 179.045 46.0098C179.568 46.0111 180.087 45.9254 180.581 45.7563C181.06 45.5954 181.511 45.3613 181.918 45.0623C182.295 44.7922 182.607 44.4412 182.832 44.0345V47.5847C182.352 48.0079 181.788 48.322 181.177 48.5056C180.409 48.7408 179.609 48.8534 178.807 48.8393C177.599 48.8581 176.405 48.5834 175.324 48.0384C174.32 47.5305 173.476 46.7492 172.888 45.7829C172.286 44.7727 171.978 43.6115 172.001 42.433C172.001 41.1517 172.297 40.0306 172.888 39.0696C173.479 38.1093 174.322 37.3331 175.324 36.8274C176.405 36.2825 177.599 36.0078 178.807 36.0266C179.609 36.0125 180.409 36.1251 181.177 36.3602C181.783 36.5425 182.346 36.8468 182.832 37.2545V40.8047C182.602 40.3933 182.28 40.0415 181.892 39.777C181.474 39.4819 181.014 39.2524 180.528 39.0963C180.049 38.9387 179.549 38.8577 179.045 38.8561C178.427 38.8496 177.819 39.0063 177.28 39.3107C176.741 39.6151 176.29 40.0566 175.973 40.5911C175.649 41.1491 175.484 41.7865 175.497 42.433C175.482 43.0881 175.647 43.7347 175.973 44.3015Z" fill="#25293D"/>
<path d="M188.128 48.0385C187.168 47.5328 186.373 46.759 185.838 45.8096C185.299 44.8579 185.03 43.7323 185.03 42.433C185.03 41.1163 185.299 39.9818 185.838 39.0297C186.371 38.0823 187.167 37.3123 188.128 36.8141C189.117 36.2894 190.282 36.0269 191.624 36.0267C192.965 36.0267 194.108 36.2714 195.053 36.7608C195.976 37.2286 196.73 37.9751 197.211 38.8961C197.706 39.8304 197.953 40.9559 197.953 42.2728C197.953 42.433 197.948 42.6021 197.94 42.78C197.934 42.9229 197.921 43.0655 197.9 43.207H186.99V41.0717H194.908L193.981 42.2995C194.065 42.1618 194.132 42.0138 194.179 41.8591C194.234 41.7092 194.265 41.5516 194.272 41.392C194.287 40.8566 194.174 40.3253 193.941 39.8438C193.727 39.4243 193.402 39.0731 193.001 38.8295C192.568 38.5732 192.073 38.4438 191.571 38.4557C190.98 38.4341 190.395 38.5872 189.889 38.8961C189.419 39.2143 189.059 39.6712 188.856 40.2041C188.598 40.8903 188.468 41.6189 188.473 42.3529C188.453 43.064 188.575 43.7718 188.83 44.4349C189.043 44.9734 189.418 45.4309 189.903 45.7429C190.421 46.0571 191.019 46.2146 191.624 46.1967C192.299 46.2162 192.968 46.0648 193.57 45.7563C194.126 45.4455 194.588 44.9889 194.908 44.4349L197.9 45.3692C197.324 46.4648 196.446 47.3688 195.371 47.9718C194.32 48.5502 193.062 48.8393 191.597 48.8393C190.273 48.8393 189.117 48.5724 188.128 48.0385Z" fill="#25293D"/>
<path d="M203.911 48.5724H200.548V36.2937H203.911V48.5724ZM206.784 39.4034C206.505 39.2794 206.202 39.2201 205.897 39.2299C205.507 39.2192 205.124 39.3414 204.811 39.5769C204.497 39.8284 204.262 40.167 204.136 40.5511C203.975 41.037 203.899 41.5473 203.911 42.0594L202.958 41.0984C202.94 40.1991 203.131 39.3082 203.514 38.4958C203.85 37.7828 204.349 37.1607 204.97 36.6806C205.497 36.2535 206.148 36.0142 206.824 36C207.255 35.998 207.682 36.0796 208.082 36.2402C208.463 36.3882 208.797 36.6373 209.048 36.961L207.486 39.8972C207.278 39.6985 207.041 39.5321 206.784 39.4034Z" fill="#25293D"/>
<path d="M210.545 39.0696C211.13 38.1144 211.963 37.3389 212.954 36.8274C214.031 36.3005 215.213 36.0267 216.41 36.0267C217.607 36.0267 218.789 36.3005 219.866 36.8274C220.857 37.3392 221.691 38.1146 222.276 39.0696C222.867 40.0306 223.163 41.1517 223.163 42.433C223.186 43.6115 222.878 44.7726 222.276 45.783C221.694 46.744 220.86 47.5245 219.866 48.0384C218.789 48.5655 217.607 48.8393 216.41 48.8393C215.213 48.8393 214.031 48.5655 212.954 48.0384C211.96 47.5247 211.126 46.7442 210.545 45.783C209.942 44.7727 209.635 43.6115 209.657 42.433C209.657 41.1517 209.953 40.0306 210.545 39.0696ZM213.59 44.2614C213.868 44.7707 214.276 45.1955 214.772 45.4914C215.268 45.7872 215.834 45.9433 216.41 45.9433C216.987 45.9433 217.553 45.7872 218.049 45.4914C218.545 45.1955 218.953 44.7707 219.23 44.2614C219.531 43.7003 219.681 43.0703 219.667 42.433C219.68 41.7915 219.53 41.1574 219.23 40.5911C218.96 40.0786 218.551 39.6531 218.052 39.3632C217.549 39.0831 216.985 38.9362 216.41 38.9362C215.836 38.9362 215.271 39.0831 214.768 39.3632C214.269 39.653 213.861 40.0785 213.59 40.5911C213.291 41.1574 213.14 41.7915 213.153 42.433C213.139 43.0703 213.29 43.7003 213.59 44.2614Z" fill="#25293D"/>
<path d="M227.771 45.4893C228.162 45.7575 228.585 45.977 229.028 46.1432C229.389 46.2789 229.769 46.3511 230.154 46.3568C230.613 46.3568 230.966 46.2545 231.213 46.0499C231.335 45.9483 231.433 45.8194 231.497 45.6735C231.561 45.5275 231.591 45.3685 231.584 45.2089C231.591 44.908 231.482 44.6161 231.279 44.3948C231.026 44.1378 230.724 43.9337 230.392 43.7943C229.908 43.5803 229.413 43.3932 228.909 43.2337C228.344 43.0203 227.796 42.7661 227.267 42.4729C226.747 42.1878 226.299 41.786 225.957 41.2985C225.612 40.8092 225.44 40.1819 225.44 39.4166C225.42 38.7496 225.626 38.0955 226.023 37.5615C226.432 37.0388 226.978 36.6414 227.598 36.4136C228.305 36.1478 229.055 36.0166 229.81 36.0267C230.463 36.022 231.114 36.1119 231.743 36.2936C232.324 36.4637 232.884 36.701 233.411 37.0009C233.905 37.281 234.359 37.6266 234.762 38.0286L233.252 40.1641C232.803 39.6781 232.269 39.2799 231.677 38.9896C231.123 38.7011 230.512 38.5458 229.889 38.5359C229.569 38.518 229.251 38.597 228.975 38.7627C228.867 38.8376 228.779 38.9397 228.721 39.059C228.663 39.1783 228.636 39.3107 228.644 39.4433C228.646 39.5783 228.676 39.7114 228.733 39.8335C228.79 39.9557 228.873 40.0638 228.975 40.1507C229.257 40.3911 229.58 40.5767 229.929 40.6979C230.343 40.8581 230.816 41.0539 231.345 41.2851C231.969 41.521 232.576 41.802 233.159 42.1259C233.684 42.41 234.14 42.8063 234.497 43.2871C234.832 43.7501 235 44.3551 235 45.1022C235 46.3301 234.603 47.2866 233.808 47.9718C233.014 48.6566 231.919 48.9991 230.525 48.9994C228.997 49.0192 227.498 48.5776 226.221 47.7315C225.669 47.366 225.15 46.9506 224.672 46.4902L226.34 44.3282C226.785 44.7541 227.263 45.1424 227.771 45.4893Z" fill="#25293D"/>
<path d="M38.6849 65C21.7513 50.5122 0 45.4614 0 45.4614C0 45.4614 17.024 22.1526 14.5289 1.59373C17.7243 0.341178 23.6643 -0.371724 30.4016 0.199907C28.2377 14.8444 20.3676 30.189 20.2162 30.5595C30.635 21.801 37.9973 8.18612 40.0665 4.09569C44.7703 7.10306 48.472 11.4315 50.703 16.5334L23.0362 37.8425C23.0362 37.8425 35.53 51.1778 38.6849 65Z" fill="#25293D"/>
<path d="M90 18.1532C89.9685 38.3918 83.0184 54.3793 70.7892 65L41.2022 55.4661C37.1993 46.827 30.4617 38.621 30.4617 38.621L53.4506 21.2453C54.2494 22.8605 55.4161 24.2678 56.8578 25.3551C58.2995 26.4424 59.9763 27.1798 61.7548 27.5084C63.5334 27.837 65.3644 27.7479 67.1022 27.2481C68.84 26.7483 70.4365 25.8516 71.7647 24.6294C72.0468 32.9394 67.2997 39.4183 67.2997 39.4183C78.447 39.3073 90 18.1532 90 18.1532Z" fill="#25293D"/>
<path d="M45 38L57 42.1761L46.3078 43L45 38Z" fill="#F92A47"/>
</svg>
