<svg width="32" height="32" viewBox="0 0 32 32" fill="none" xmlns="http://www.w3.org/2000/svg">
<circle cx="16" cy="16" r="16" fill="#25293D"/>
<path d="M17.7231 16L14.7693 17.7231V14.2769L17.7231 16Z" fill="white" stroke="white" stroke-width="2" stroke-linecap="round"/>
<path d="M7.38464 16.8839V15.6083C7.38464 12.9985 7.38464 11.6935 8.18705 10.8539C8.98946 10.0143 10.2527 9.97794 12.7793 9.90525C13.9765 9.87081 15.1995 9.84613 16.2462 9.84613C17.2929 9.84613 18.5159 9.87081 19.7131 9.90525C22.2396 9.97794 23.5029 10.0143 24.3053 10.8539C25.1077 11.6935 25.1077 12.9985 25.1077 15.6083V16.8839C25.1077 19.4937 25.1077 20.7987 24.3053 21.6383C23.5029 22.4779 22.2397 22.5143 19.7132 22.587C18.5159 22.6214 17.2929 22.6461 16.2462 22.6461C15.1995 22.6461 13.9764 22.6214 12.7792 22.587C10.2527 22.5143 8.98944 22.4779 8.18704 21.6383C7.38464 20.7987 7.38464 19.4937 7.38464 16.8839Z" stroke="white"/>
</svg>
