<svg width="90" height="90" viewBox="0 0 90 90" fill="none" xmlns="http://www.w3.org/2000/svg">
<path d="M45 90C69.8528 90 90 69.8528 90 45C90 20.1472 69.8528 0 45 0C20.1472 0 0 20.1472 0 45C0 69.8528 20.1472 90 45 90Z" fill="#F92A47"/>
<path d="M36.2517 44.5075H52.7194V50.9118C52.7168 51.9687 52.5019 53.0143 52.0875 53.9866C51.6732 54.959 51.0678 55.8382 50.3073 56.5721C48.7453 58.0808 46.6572 58.9219 44.4856 58.9173C43.4192 58.9326 42.3602 58.7376 41.3692 58.3435C40.3782 57.9494 39.4746 57.3639 38.71 56.6205C37.9453 55.8771 37.3347 54.9902 36.9129 54.0107C36.4911 53.0312 36.2664 51.9781 36.2517 50.9118V44.5075Z" stroke="white" stroke-width="2" stroke-miterlimit="10" stroke-linecap="square"/>
<path d="M39.854 44.5075V39.3616" stroke="white" stroke-width="2" stroke-miterlimit="10" stroke-linecap="square"/>
<path d="M50.146 44.5075V39.3616" stroke="white" stroke-width="2" stroke-miterlimit="10" stroke-linecap="square"/>
<path d="M29.9012 54.7993C28.1378 52.0823 27.1402 48.9397 27.0137 45.703C26.8872 42.4663 27.6365 39.2554 29.1825 36.409C30.7285 33.5625 33.0139 31.186 35.7978 29.5301C38.5817 27.8741 41.7608 27 45 27C48.2392 27 51.4183 27.8741 54.2022 29.5301C56.9861 31.186 59.2715 33.5625 60.8175 36.409C62.3635 39.2554 63.1128 42.4663 62.9863 45.703C62.8598 48.9397 61.8622 52.0823 60.0988 54.7993" stroke="white" stroke-width="2" stroke-miterlimit="10" stroke-linecap="square"/>
<path d="M45 58.9163V63.0332" stroke="white" stroke-width="2" stroke-miterlimit="10" stroke-linecap="square"/>
<path d="M34.1938 37.3027C35.3992 35.7125 36.9545 34.4211 38.7393 33.5287C40.524 32.6364 42.4903 32.1669 44.4856 32.1568C46.4812 32.1668 48.4477 32.6361 50.2326 33.5285C52.0175 34.4209 53.573 35.7123 54.7785 37.3027" stroke="white" stroke-width="2" stroke-miterlimit="10" stroke-linecap="square"/>
</svg>
