<svg width="20" height="21" viewBox="0 0 20 21" fill="none" xmlns="http://www.w3.org/2000/svg">
<path d="M2.19944 7.15848L1.20515 7.05174L2.19944 7.15848ZM1.00954 18.2418L2.00382 18.3486L1.00954 18.2418ZM18.9905 18.2418L17.9962 18.3486V18.3486L18.9905 18.2418ZM17.8006 7.15848L18.7948 7.05174V7.05174L17.8006 7.15848ZM1.20515 7.05174L0.0152521 18.1351L2.00382 18.3486L3.19372 7.26523L1.20515 7.05174ZM2.53005 21H17.4699V19H2.53005V21ZM19.9847 18.1351L18.7948 7.05174L16.8063 7.26523L17.9962 18.3486L19.9847 18.1351ZM16.2801 4.75H3.71995V6.75H16.2801V4.75ZM18.7948 7.05174C18.6572 5.76924 17.5977 4.75 16.2801 4.75V6.75C16.5215 6.75 16.7718 6.94402 16.8063 7.26523L18.7948 7.05174ZM17.4699 21C19.0137 21 20.1448 19.6263 19.9847 18.1351L17.9962 18.3486C18.0375 18.7331 17.7499 19 17.4699 19V21ZM0.0152521 18.1351C-0.144849 19.6263 0.98634 21 2.53005 21V19C2.25012 19 1.96254 18.7331 2.00382 18.3486L0.0152521 18.1351ZM3.19372 7.26523C3.22821 6.94403 3.47846 6.75 3.71995 6.75V4.75C2.40235 4.75 1.34284 5.76924 1.20515 7.05174L3.19372 7.26523ZM10 2C11.9504 2 13.5896 3.64628 13.5896 5.75H15.5896C15.5896 2.60702 13.1192 0 10 0V2ZM6.41039 5.75C6.41039 3.64628 8.04961 2 10 2V0C6.88084 0 4.41039 2.60702 4.41039 5.75H6.41039Z" fill="#25293D"/>
</svg>
