<svg width="48" height="48" viewBox="0 0 48 48" fill="none" xmlns="http://www.w3.org/2000/svg">
<rect x="0.5" y="0.5" width="47" height="47" rx="5.5" stroke="#D6DAE2"/>
<g clip-path="url(#clip0_1443_15503)">
<path fill-rule="evenodd" clip-rule="evenodd" d="M16.9293 16.9289C17.2933 16.5649 17.8835 16.5649 18.2475 16.9289L24.0003 22.6817L29.7531 16.9289C30.1172 16.5649 30.7074 16.5649 31.0714 16.9289C31.4354 17.2929 31.4354 17.8831 31.0714 18.2472L25.3186 24L31.0714 29.7528C31.4354 30.1168 31.4354 30.707 31.0714 31.071C30.7074 31.4351 30.1172 31.4351 29.7531 31.071L24.0003 25.3182L18.2475 31.071C17.8835 31.4351 17.2933 31.4351 16.9293 31.071C16.5652 30.707 16.5652 30.1168 16.9293 29.7528L22.6821 24L16.9293 18.2472C16.5652 17.8831 16.5652 17.2929 16.9293 16.9289Z" fill="#25293D"/>
</g>
<defs>
<clipPath id="clip0_1443_15503">
<rect x="4" y="4" width="40" height="40" rx="20" fill="white"/>
</clipPath>
</defs>
</svg>
