<svg width="95" height="96" viewBox="0 0 95 96" fill="none" xmlns="http://www.w3.org/2000/svg">
<path d="M89.8284 92.8283C89.8284 92.4327 89.9457 92.046 90.1655 91.7171C90.3852 91.3882 90.6976 91.1319 91.063 90.9805C91.4284 90.8291 91.8306 90.7895 92.2185 90.8666C92.6065 90.9438 92.9628 91.1343 93.2425 91.414C93.5222 91.6937 93.7127 92.0501 93.7899 92.438C93.8671 92.826 93.8275 93.2281 93.6761 93.5936C93.5248 93.959 93.2684 94.2714 92.9395 94.4912C92.6107 94.711 92.224 94.8283 91.8284 94.8283C91.5658 94.8283 91.3057 94.7766 91.0631 94.6761C90.8204 94.5756 90.5999 94.4282 90.4142 94.2425C90.2285 94.0568 90.0812 93.8363 89.9807 93.5937C89.8801 93.351 89.8284 93.0909 89.8284 92.8283Z" fill="#D6DAE2"/>
<path d="M67.8284 92.8283C67.8284 92.4327 67.9457 92.046 68.1655 91.7171C68.3852 91.3882 68.6976 91.1318 69.063 90.9805C69.4284 90.8291 69.8306 90.7895 70.2185 90.8666C70.6065 90.9438 70.9628 91.1343 71.2425 91.414C71.5222 91.6937 71.7127 92.0501 71.7899 92.438C71.8671 92.826 71.8275 93.2281 71.6761 93.5936C71.5248 93.959 71.2684 94.2714 70.9396 94.4912C70.6107 94.711 70.224 94.8283 69.8285 94.8283C69.5658 94.8283 69.3057 94.7766 69.0631 94.6761C68.8204 94.5756 68.5999 94.4282 68.4142 94.2425C68.2285 94.0568 68.0812 93.8363 67.9807 93.5937C67.8801 93.351 67.8284 93.0909 67.8284 92.8283Z" fill="#D6DAE2"/>
<path d="M44.8284 92.8283C44.8284 92.4327 44.9457 92.046 45.1655 91.7171C45.3852 91.3882 45.6976 91.1319 46.063 90.9805C46.4284 90.8291 46.8306 90.7895 47.2185 90.8666C47.6065 90.9438 47.9628 91.1343 48.2425 91.414C48.5222 91.6937 48.7127 92.0501 48.7899 92.438C48.8671 92.826 48.8275 93.2281 48.6761 93.5936C48.5248 93.959 48.2684 94.2714 47.9395 94.4912C47.6107 94.711 47.224 94.8283 46.8284 94.8283C46.5658 94.8283 46.3057 94.7766 46.0631 94.6761C45.8204 94.5756 45.5999 94.4282 45.4142 94.2425C45.2285 94.0568 45.0812 93.8363 44.9807 93.5937C44.8801 93.351 44.8284 93.0909 44.8284 92.8283Z" fill="#D6DAE2"/>
<path d="M22.8284 92.8282C22.8284 92.4327 22.9457 92.046 23.1655 91.7171C23.3852 91.3882 23.6976 91.1318 24.063 90.9805C24.4284 90.8291 24.8306 90.7895 25.2185 90.8666C25.6065 90.9438 25.9628 91.1343 26.2425 91.414C26.5222 91.6937 26.7127 92.0501 26.7899 92.438C26.8671 92.826 26.8275 93.2281 26.6761 93.5936C26.5248 93.959 26.2684 94.2714 25.9396 94.4912C25.6107 94.7109 25.224 94.8283 24.8285 94.8283C24.5658 94.8283 24.3057 94.7766 24.0631 94.6761C23.8204 94.5756 23.5999 94.4283 23.4142 94.2425C23.2285 94.0568 23.0812 93.8363 22.9807 93.5936C22.8802 93.351 22.8284 93.0909 22.8284 92.8282Z" fill="#D6DAE2"/>
<path d="M0.828448 92.8282C0.828443 92.4327 0.945727 92.046 1.16548 91.7171C1.38523 91.3882 1.69757 91.1318 2.06301 90.9805C2.42844 90.8291 2.83057 90.7895 3.21852 90.8666C3.60647 90.9438 3.96283 91.1343 4.24253 91.414C4.52224 91.6937 4.71272 92.0501 4.7899 92.438C4.86708 92.826 4.82749 93.2281 4.67613 93.5936C4.52477 93.959 4.26844 94.2714 3.93956 94.4912C3.61068 94.7109 3.22401 94.8282 2.82846 94.8283C2.56582 94.8283 2.30574 94.7766 2.06308 94.6761C1.82043 94.5756 1.59994 94.4283 1.41422 94.2425C1.2285 94.0568 1.08117 93.8363 0.980665 93.5936C0.880158 93.351 0.828436 93.0909 0.828448 92.8282Z" fill="#D6DAE2"/>
<path d="M89.8284 70.8283C89.8284 70.4327 89.9457 70.046 90.1655 69.7171C90.3853 69.3883 90.6976 69.1319 91.0631 68.9805C91.4285 68.8292 91.8307 68.7896 92.2186 68.8668C92.6066 68.9439 92.9629 69.1344 93.2426 69.4141C93.5224 69.6938 93.7128 70.0502 93.79 70.4381C93.8672 70.8261 93.8276 71.2282 93.6762 71.5937C93.5248 71.9591 93.2685 72.2715 92.9396 72.4912C92.6107 72.711 92.224 72.8283 91.8285 72.8283C91.5658 72.8283 91.3057 72.7766 91.0631 72.6761C90.8204 72.5756 90.5999 72.4282 90.4142 72.2425C90.2285 72.0568 90.0812 71.8363 89.9807 71.5937C89.8802 71.351 89.8284 71.0909 89.8284 70.8283Z" fill="#D6DAE2"/>
<path d="M67.8284 70.8283C67.8284 70.4327 67.9457 70.046 68.1655 69.7171C68.3852 69.3882 68.6976 69.1319 69.063 68.9805C69.4284 68.8291 69.8306 68.7895 70.2185 68.8666C70.6065 68.9438 70.9628 69.1343 71.2425 69.414C71.5222 69.6937 71.7127 70.0501 71.7899 70.438C71.8671 70.826 71.8275 71.2281 71.6761 71.5936C71.5248 71.959 71.2684 72.2714 70.9395 72.4912C70.6107 72.711 70.224 72.8283 69.8284 72.8283C69.5658 72.8283 69.3057 72.7766 69.0631 72.6761C68.8204 72.5756 68.5999 72.4282 68.4142 72.2425C68.2285 72.0568 68.0812 71.8363 67.9807 71.5937C67.8801 71.351 67.8284 71.0909 67.8284 70.8283Z" fill="#D6DAE2"/>
<path d="M45.8284 70.8283C45.8284 70.4327 45.9457 70.046 46.1655 69.7171C46.3852 69.3882 46.6976 69.1318 47.063 68.9805C47.4284 68.8291 47.8306 68.7895 48.2185 68.8666C48.6065 68.9438 48.9628 69.1343 49.2425 69.414C49.5222 69.6937 49.7127 70.0501 49.7899 70.438C49.8671 70.826 49.8275 71.2281 49.6761 71.5936C49.5248 71.959 49.2684 72.2714 48.9396 72.4912C48.6107 72.711 48.224 72.8283 47.8285 72.8283C47.5658 72.8283 47.3057 72.7766 47.0631 72.6761C46.8204 72.5756 46.5999 72.4283 46.4142 72.2425C46.2285 72.0568 46.0812 71.8363 45.9807 71.5937C45.8802 71.351 45.8284 71.0909 45.8284 70.8283Z" fill="#D6DAE2"/>
<path d="M22.8285 70.8283C22.8285 70.4327 22.9458 70.046 23.1655 69.7171C23.3853 69.3882 23.6976 69.1319 24.0631 68.9805C24.4285 68.8292 24.8307 68.7896 25.2186 68.8667C25.6066 68.9439 25.963 69.1344 26.2427 69.4141C26.5224 69.6938 26.7128 70.0502 26.79 70.4381C26.8672 70.8261 26.8276 71.2282 26.6762 71.5937C26.5248 71.9591 26.2685 72.2715 25.9396 72.4912C25.6107 72.711 25.224 72.8283 24.8285 72.8283C24.5658 72.8283 24.3058 72.7766 24.0631 72.6761C23.8204 72.5756 23.5999 72.4283 23.4142 72.2425C23.2285 72.0568 23.0812 71.8363 22.9807 71.5937C22.8802 71.351 22.8284 71.0909 22.8285 70.8283Z" fill="#D6DAE2"/>
<path d="M0.828442 70.8282C0.828437 70.4327 0.945727 70.046 1.16548 69.7171C1.38523 69.3882 1.69757 69.1318 2.06301 68.9805C2.42845 68.8291 2.83057 68.7895 3.21852 68.8666C3.60647 68.9438 3.96283 69.1343 4.24253 69.414C4.52223 69.6937 4.71272 70.0501 4.7899 70.438C4.86708 70.826 4.82749 71.2281 4.67613 71.5936C4.52477 71.959 4.26844 72.2714 3.93956 72.4912C3.61068 72.7109 3.22401 72.8282 2.82846 72.8283C2.56582 72.8283 2.30574 72.7766 2.06308 72.6761C1.82043 72.5756 1.59994 72.4282 1.41421 72.2425C1.22849 72.0568 1.08117 71.8363 0.980665 71.5936C0.880158 71.351 0.82843 71.0909 0.828442 70.8282Z" fill="#D6DAE2"/>
<path d="M93.2427 46.4141C92.4616 45.6331 91.1953 45.6331 90.4142 46.4141C89.6332 47.1951 89.6332 48.4615 90.4142 49.2425C91.1953 50.0236 92.4616 50.0236 93.2426 49.2425C94.0237 48.4615 94.0237 47.1952 93.2427 46.4141Z" fill="#D6DAE2"/>
<path d="M67.8285 47.8283C67.8285 47.4327 67.9458 47.046 68.1655 46.7171C68.3853 46.3882 68.6976 46.1319 69.0631 45.9805C69.4285 45.8292 69.8307 45.7896 70.2186 45.8667C70.6066 45.9439 70.963 46.1344 71.2427 46.4141C71.5224 46.6938 71.7128 47.0502 71.79 47.4381C71.8672 47.8261 71.8276 48.2282 71.6762 48.5937C71.5248 48.9591 71.2685 49.2715 70.9396 49.4912C70.6107 49.711 70.224 49.8283 69.8285 49.8283C69.5658 49.8283 69.3058 49.7766 69.0631 49.6761C68.8204 49.5756 68.5999 49.4283 68.4142 49.2425C68.2285 49.0568 68.0812 48.8363 67.9807 48.5936C67.8802 48.351 67.8284 48.0909 67.8285 47.8283Z" fill="#D6DAE2"/>
<path d="M45.8285 47.8283C45.8285 47.4327 45.9458 47.046 46.1655 46.7171C46.3853 46.3882 46.6976 46.1319 47.0631 45.9805C47.4285 45.8292 47.8307 45.7896 48.2186 45.8667C48.6066 45.9439 48.963 46.1344 49.2427 46.4141C49.5224 46.6938 49.7128 47.0502 49.79 47.4381C49.8672 47.8261 49.8276 48.2282 49.6762 48.5937C49.5248 48.9591 49.2685 49.2715 48.9396 49.4912C48.6107 49.711 48.224 49.8283 47.8285 49.8283C47.5658 49.8283 47.3057 49.7766 47.0631 49.6761C46.8204 49.5756 46.5999 49.4283 46.4142 49.2425C46.2285 49.0568 46.0812 48.8363 45.9807 48.5937C45.8802 48.351 45.8284 48.0909 45.8285 47.8283Z" fill="#D6DAE2"/>
<path d="M22.8285 47.8283C22.8285 47.4327 22.9458 47.046 23.1655 46.7171C23.3853 46.3883 23.6976 46.1319 24.0631 45.9805C24.4285 45.8292 24.8307 45.7896 25.2186 45.8667C25.6066 45.9439 25.9629 46.1344 26.2426 46.4141C26.5224 46.6938 26.7128 47.0502 26.79 47.4381C26.8672 47.8261 26.8276 48.2282 26.6762 48.5937C26.5248 48.9591 26.2685 49.2715 25.9396 49.4912C25.6107 49.711 25.224 49.8283 24.8285 49.8283C24.5658 49.8283 24.3057 49.7766 24.0631 49.6761C23.8204 49.5756 23.5999 49.4282 23.4142 49.2425C23.2285 49.0568 23.0812 48.8363 22.9807 48.5937C22.8802 48.351 22.8284 48.0909 22.8285 47.8283Z" fill="#D6DAE2"/>
<path d="M0.828461 47.8283C0.828463 47.4327 0.945764 47.046 1.16553 46.7171C1.38529 46.3882 1.69764 46.1319 2.06309 45.9805C2.42854 45.8292 2.83067 45.7896 3.21863 45.8667C3.60658 45.9439 3.96295 46.1344 4.24265 46.4141C4.52235 46.6938 4.71284 47.0502 4.79001 47.4381C4.86718 47.8261 4.82758 48.2282 4.67621 48.5937C4.52484 48.9591 4.2685 49.2715 3.93961 49.4912C3.61072 49.711 3.22405 49.8283 2.82849 49.8283C2.56584 49.8283 2.30576 49.7766 2.06309 49.6761C1.82043 49.5756 1.59994 49.4282 1.41422 49.2425C1.22849 49.0568 1.08118 48.8363 0.980671 48.5937C0.880167 48.351 0.828443 48.0909 0.828461 47.8283Z" fill="#D6DAE2"/>
<path d="M89.8285 25.8283C89.8285 25.4327 89.9458 25.046 90.1655 24.7171C90.3853 24.3882 90.6976 24.1319 91.0631 23.9805C91.4285 23.8292 91.8307 23.7896 92.2186 23.8667C92.6066 23.9439 92.963 24.1344 93.2427 24.4141C93.5224 24.6938 93.7128 25.0502 93.79 25.4381C93.8672 25.8261 93.8276 26.2282 93.6762 26.5937C93.5248 26.9591 93.2685 27.2715 92.9396 27.4912C92.6107 27.711 92.224 27.8283 91.8285 27.8283C91.5658 27.8283 91.3057 27.7766 91.0631 27.6761C90.8204 27.5756 90.5999 27.4283 90.4142 27.2425C90.2285 27.0568 90.0812 26.8363 89.9807 26.5937C89.8802 26.351 89.8284 26.0909 89.8285 25.8283Z" fill="#D6DAE2"/>
<path d="M67.8285 25.8283C67.8285 25.4327 67.9458 25.046 68.1655 24.7171C68.3853 24.3882 68.6976 24.1319 69.0631 23.9805C69.4285 23.8292 69.8307 23.7896 70.2186 23.8667C70.6066 23.9439 70.963 24.1344 71.2427 24.4141C71.5224 24.6938 71.7128 25.0502 71.79 25.4381C71.8672 25.8261 71.8276 26.2282 71.6762 26.5937C71.5248 26.9591 71.2685 27.2715 70.9396 27.4912C70.6107 27.711 70.224 27.8283 69.8285 27.8283C69.5658 27.8283 69.3057 27.7766 69.0631 27.6761C68.8204 27.5756 68.5999 27.4283 68.4142 27.2425C68.2285 27.0568 68.0812 26.8363 67.9807 26.5937C67.8802 26.351 67.8284 26.0909 67.8285 25.8283Z" fill="#D6DAE2"/>
<path d="M44.8285 25.8283C44.8285 25.4327 44.9458 25.046 45.1655 24.7171C45.3853 24.3882 45.6976 24.1319 46.0631 23.9805C46.4285 23.8292 46.8307 23.7896 47.2186 23.8667C47.6066 23.9439 47.9629 24.1344 48.2426 24.4141C48.5224 24.6938 48.7128 25.0502 48.79 25.4381C48.8672 25.8261 48.8276 26.2282 48.6762 26.5937C48.5248 26.9591 48.2685 27.2715 47.9396 27.4912C47.6107 27.711 47.224 27.8283 46.8285 27.8283C46.5658 27.8283 46.3058 27.7766 46.0631 27.6761C45.8204 27.5756 45.5999 27.4282 45.4142 27.2425C45.2285 27.0568 45.0812 26.8363 44.9807 26.5936C44.8802 26.351 44.8284 26.0909 44.8285 25.8283Z" fill="#D6DAE2"/>
<path d="M22.8285 25.8283C22.8285 25.4327 22.9458 25.046 23.1655 24.7171C23.3853 24.3882 23.6976 24.1319 24.0631 23.9805C24.4285 23.8292 24.8307 23.7896 25.2186 23.8668C25.6066 23.9439 25.9629 24.1344 26.2427 24.4141C26.5224 24.6938 26.7128 25.0502 26.79 25.4381C26.8672 25.8261 26.8276 26.2282 26.6762 26.5937C26.5248 26.9591 26.2685 27.2715 25.9396 27.4912C25.6107 27.711 25.224 27.8283 24.8285 27.8283C24.5658 27.8283 24.3058 27.7766 24.0631 27.6761C23.8204 27.5756 23.5999 27.4282 23.4142 27.2425C23.2285 27.0568 23.0812 26.8363 22.9807 26.5937C22.8802 26.351 22.8284 26.0909 22.8285 25.8283Z" fill="#D6DAE2"/>
<path d="M0.828464 25.8283C0.828467 25.4327 0.945756 25.046 1.16552 24.7171C1.38528 24.3883 1.69764 24.1319 2.06309 23.9805C2.42854 23.8292 2.83066 23.7896 3.21862 23.8667C3.60658 23.9439 3.96295 24.1344 4.24266 24.4141C4.52236 24.6938 4.71283 25.0502 4.79001 25.4381C4.86718 25.8261 4.82757 26.2282 4.6762 26.5937C4.52483 26.9591 4.2685 27.2715 3.9396 27.4912C3.61071 27.711 3.22403 27.8283 2.82847 27.8283C2.56582 27.8283 2.30574 27.7766 2.06308 27.6761C1.82042 27.5756 1.59995 27.4283 1.41422 27.2425C1.2285 27.0568 1.08117 26.8363 0.98067 26.5937C0.880166 26.351 0.828446 26.0909 0.828464 25.8283Z" fill="#D6DAE2"/>
<path d="M89.8285 2.82827C89.8285 2.43271 89.9458 2.04603 90.1655 1.71714C90.3853 1.38825 90.6976 1.13192 91.0631 0.980549C91.4285 0.82918 91.8307 0.78957 92.2186 0.866743C92.6066 0.943917 92.963 1.1344 93.2427 1.41411C93.5224 1.69381 93.7128 2.05017 93.79 2.43813C93.8672 2.82608 93.8276 3.22822 93.6762 3.59367C93.5248 3.95912 93.2685 4.27146 92.9396 4.49122C92.6107 4.71098 92.224 4.82828 91.8285 4.82828C91.5658 4.8283 91.3057 4.77659 91.0631 4.67608C90.8204 4.57558 90.5999 4.42825 90.4142 4.24253C90.2285 4.0568 90.0812 3.83632 89.9807 3.59366C89.8802 3.351 89.8284 3.09092 89.8285 2.82827Z" fill="#D6DAE2"/>
<path d="M67.8285 2.82826C67.8285 2.4327 67.9458 2.04603 68.1655 1.71714C68.3853 1.38825 68.6976 1.13192 69.0631 0.980549C69.4285 0.82918 69.8307 0.78957 70.2186 0.866743C70.6066 0.943917 70.9629 1.1344 71.2426 1.4141C71.5224 1.6938 71.7128 2.05017 71.79 2.43813C71.8672 2.82608 71.8276 3.22822 71.6762 3.59367C71.5248 3.95912 71.2685 4.27146 70.9396 4.49122C70.6107 4.71098 70.224 4.82828 69.8285 4.82828C69.5658 4.8283 69.3057 4.77659 69.0631 4.67608C68.8204 4.57558 68.5999 4.42824 68.4142 4.24252C68.2285 4.0568 68.0812 3.83632 67.9807 3.59366C67.8802 3.351 67.8284 3.09091 67.8285 2.82826Z" fill="#D6DAE2"/>
<path d="M44.8285 2.82826C44.8285 2.4327 44.9458 2.04603 45.1655 1.71714C45.3853 1.38825 45.6976 1.13191 46.0631 0.980543C46.4285 0.829175 46.8307 0.789571 47.2186 0.866745C47.6066 0.943918 47.9629 1.1344 48.2427 1.4141C48.5224 1.69381 48.7128 2.05017 48.79 2.43813C48.8672 2.82609 48.8276 3.22821 48.6762 3.59366C48.5248 3.95911 48.2685 4.27146 47.9396 4.49122C47.6107 4.71098 47.224 4.82828 46.8285 4.82828C46.5658 4.8283 46.3058 4.77658 46.0631 4.67608C45.8204 4.57557 45.5999 4.42825 45.4142 4.24252C45.2285 4.0568 45.0812 3.83632 44.9807 3.59366C44.8802 3.351 44.8284 3.09091 44.8285 2.82826Z" fill="#D6DAE2"/>
<path d="M22.8285 2.82827C22.8285 2.43271 22.9458 2.04603 23.1655 1.71714C23.3853 1.38825 23.6977 1.13191 24.0631 0.980542C24.4285 0.829173 24.8307 0.789568 25.2186 0.866741C25.6066 0.943914 25.963 1.13441 26.2427 1.41411C26.5224 1.69381 26.7128 2.05017 26.79 2.43813C26.8672 2.82609 26.8276 3.2282 26.6762 3.59365C26.5248 3.9591 26.2685 4.27146 25.9396 4.49122C25.6107 4.71098 25.224 4.82827 24.8285 4.82827C24.5658 4.82829 24.3058 4.77657 24.0631 4.67607C23.8204 4.57556 23.5999 4.42825 23.4142 4.24253C23.2285 4.05681 23.0812 3.83631 22.9807 3.59365C22.8802 3.35099 22.8285 3.09092 22.8285 2.82827Z" fill="#D6DAE2"/>
<path d="M0.828443 2.82825C0.828446 2.4327 0.945747 2.04603 1.16551 1.71714C1.38527 1.38825 1.69763 1.13192 2.06308 0.980548C2.42853 0.829179 2.83065 0.789574 3.2186 0.866747C3.60656 0.94392 3.96293 1.1344 4.24263 1.4141C4.52233 1.6938 4.71282 2.05018 4.78999 2.43813C4.86716 2.82609 4.82756 3.22821 4.67619 3.59366C4.52482 3.9591 4.26849 4.27146 3.9396 4.49122C3.6107 4.71098 3.22402 4.82827 2.82846 4.82827C2.56581 4.82829 2.30573 4.77658 2.06307 4.67607C1.82041 4.57557 1.59992 4.42824 1.4142 4.24252C1.22847 4.0568 1.08116 3.83632 0.980655 3.59366C0.880151 3.351 0.828424 3.0909 0.828443 2.82825Z" fill="#D6DAE2"/>
</svg>
