<svg width="20" height="25" viewBox="0 0 20 25" fill="none" xmlns="http://www.w3.org/2000/svg">
<path d="M10.1184 5.68081C9.79069 5.68081 9.5247 5.41765 9.5247 5.0934C9.5247 2.82246 11.3867 0.981506 13.6809 0.981506C14.0098 0.981506 14.2746 1.24467 14.2746 1.56892C14.2746 3.83986 12.4138 5.68081 10.1184 5.68081Z" fill="#25293D"/>
<path d="M10.1184 5.68081C9.79069 5.68081 9.5247 5.41765 9.5247 5.0934C9.5247 2.82246 11.3867 0.981506 13.6809 0.981506C14.0098 0.981506 14.2746 1.24467 14.2746 1.56892C14.2746 3.83986 12.4138 5.68081 10.1184 5.68081Z" fill="#25293D"/>
<path d="M18.7876 18.05C19.0168 18.2204 19.0916 18.5294 18.9622 18.7831C16.8722 22.9209 15.205 24.9815 13.6814 24.9815C12.9725 24.9815 12.2755 24.7548 11.5962 24.313C10.6071 23.6681 9.33051 23.641 8.31402 24.2425C7.4911 24.7301 6.70736 24.9815 5.96281 24.9815C3.72203 24.9815 0.0253906 18.1546 0.0253906 14.4081C0.0253906 10.409 2.14505 7.35911 5.36906 7.35911C6.88548 7.35911 8.19528 7.57998 9.29488 8.02876C9.76157 8.21909 10.2888 8.20499 10.7436 7.98882C11.6366 7.56471 12.8134 7.35911 14.2752 7.35911C16.0588 7.35911 17.6132 8.23788 18.9064 9.94373C19.1023 10.2034 19.0501 10.5711 18.7876 10.7661C17.3448 11.8364 16.6502 13.0394 16.6502 14.4081C16.6502 15.7767 17.3448 16.9798 18.7876 18.05Z" fill="#25293D"/>
<path d="M18.7876 18.05C19.0168 18.2204 19.0916 18.5294 18.9622 18.7831C16.8722 22.9209 15.205 24.9815 13.6814 24.9815C12.9725 24.9815 12.2755 24.7548 11.5962 24.313C10.6071 23.6681 9.33051 23.641 8.31402 24.2425C7.4911 24.7301 6.70736 24.9815 5.96281 24.9815C3.72203 24.9815 0.0253906 18.1546 0.0253906 14.4081C0.0253906 10.409 2.14505 7.35911 5.36906 7.35911C6.88548 7.35911 8.19528 7.57998 9.29488 8.02876C9.76157 8.21909 10.2888 8.20499 10.7436 7.98882C11.6366 7.56471 12.8134 7.35911 14.2752 7.35911C16.0588 7.35911 17.6132 8.23788 18.9064 9.94373C19.1023 10.2034 19.0501 10.5711 18.7876 10.7661C17.3448 11.8364 16.6502 13.0394 16.6502 14.4081C16.6502 15.7767 17.3448 16.9798 18.7876 18.05Z" fill="#25293D"/>
</svg>
