<svg width="25" height="25" viewBox="0 0 25 25" fill="none" xmlns="http://www.w3.org/2000/svg">
<path d="M23.7283 1.15938C23.9162 1.31127 24.0254 1.53992 24.0254 1.78151V12.1815H11.2254V3.53478L23.0578 0.999272C23.294 0.948651 23.5405 1.0075 23.7283 1.15938Z" fill="#25293D"/>
<path d="M9.62539 3.87764L0.657767 5.79927C0.288911 5.87831 0.0253906 6.20428 0.0253906 6.58151V12.1815H9.62539V3.87764Z" fill="#25293D"/>
<path d="M0.0253906 13.7815V20.9815C0.0253906 21.3796 0.318135 21.7172 0.712254 21.7735L9.62539 23.0468V13.7815H0.0253906Z" fill="#25293D"/>
<path d="M11.2254 23.2754L23.1123 24.9735C23.3418 25.0063 23.5744 24.9378 23.7496 24.7859C23.9248 24.6339 24.0254 24.4134 24.0254 24.1815V13.7815H11.2254V23.2754Z" fill="#25293D"/>
</svg>
