<svg width="32" height="24" viewBox="0 0 32 24" fill="none" xmlns="http://www.w3.org/2000/svg">
<path d="M28.8642 1.33331H3.1332C2.13844 1.33331 1.33203 2.19048 1.33203 3.24784V20.7521C1.33203 21.8095 2.13844 22.6666 3.1332 22.6666H28.8642C29.859 22.6666 30.6654 21.8095 30.6654 20.7521V3.24784C30.6654 2.19048 29.859 1.33331 28.8642 1.33331Z" fill="white" stroke="#D6DAE2"/>
<path fill-rule="evenodd" clip-rule="evenodd" d="M15.6755 10.1313C15.6641 11.0599 16.4773 11.5782 17.0899 11.8863C17.7193 12.2025 17.9307 12.4052 17.9283 12.6879C17.9235 13.1206 17.4262 13.3115 16.9608 13.3189C16.1488 13.3319 15.6767 13.0927 15.3014 12.9117L15.0089 14.3244C15.3855 14.5036 16.0827 14.6599 16.8058 14.6667C18.503 14.6667 19.6134 13.8019 19.6195 12.461C19.6261 10.7593 17.3391 10.6651 17.3547 9.90442C17.3601 9.67382 17.5733 9.42768 18.0406 9.36507C18.2718 9.33349 18.9102 9.30928 19.6339 9.65333L19.9179 8.28644C19.5288 8.14013 19.0285 8 18.4057 8C16.8082 8 15.6846 8.87657 15.6755 10.1313ZM22.6475 8.11778C22.3376 8.11778 22.0764 8.30441 21.9599 8.5908L19.5354 14.5662H21.2314L21.5689 13.6035H23.6414L23.8372 14.5662H25.332L24.0276 8.11778H22.6475ZM22.8847 9.85977L23.3742 12.2812H22.0337L22.8847 9.85977ZM13.6192 8.11778L12.2824 14.5662H13.8985L15.2347 8.11778H13.6192ZM11.2284 8.11778L9.54618 12.5068L8.86573 8.7749C8.78588 8.35834 8.47058 8.11778 8.12043 8.11778H5.37048L5.33203 8.30502C5.89658 8.43147 6.53798 8.63544 6.92653 8.85366C7.16433 8.98692 7.23223 9.10346 7.31028 9.42025L8.59908 14.5662H10.3071L12.9256 8.11778H11.2284Z" fill="#1A1F71"/>
</svg>
