<svg width="72" height="72" viewBox="0 0 72 72" fill="none" xmlns="http://www.w3.org/2000/svg">
<path d="M72 32.5C72 50.4493 57.4493 65 39.5 65C21.5507 65 7 50.4493 7 32.5C7 14.5507 21.5507 0 39.5 0C57.4493 0 72 14.5507 72 32.5Z" fill="#F92A47"/>
<path fill-rule="evenodd" clip-rule="evenodd" d="M32.5 70C49.3447 70 63 56.3447 63 39.5C63 22.6553 49.3447 9 32.5 9C15.6553 9 2 22.6553 2 39.5C2 56.3447 15.6553 70 32.5 70ZM32.5 72C50.4493 72 65 57.4493 65 39.5C65 21.5507 50.4493 7 32.5 7C14.5507 7 0 21.5507 0 39.5C0 57.4493 14.5507 72 32.5 72Z" fill="white"/>
<path fill-rule="evenodd" clip-rule="evenodd" d="M17 41.5034V46.1293C17 48.1429 18.6101 49.7551 20.5714 49.7551C21.2704 49.7551 21.8571 49.1785 21.8571 48.4422V39.1905C21.8571 38.4542 21.2704 37.8776 20.5714 37.8776C18.6101 37.8776 17 39.4897 17 41.5034ZM15 39.1905C15 29.7076 22.6 22 32 22C41.4 22 49 29.7076 49 39.1905V46.1293C49 48.9089 46.998 51.2324 44.3538 51.678C43.9184 54.3384 41.6319 56.381 38.8571 56.381H33.3765L30.9567 57.5768C30.1841 57.9586 29.2538 57.8025 28.6481 57.1896L28.4029 56.9415C27.5223 56.0504 27.6684 54.5783 28.707 53.8777L28.901 53.7468C29.4137 53.4009 30.0578 53.3117 30.6453 53.5052L33.3033 54.381H38.8571C40.5457 54.381 41.9739 53.1861 42.3385 51.5688C41.0548 51.1142 40.1429 49.8794 40.1429 48.4422V39.1905C40.1429 37.372 41.6028 35.8776 43.4286 35.8776C44.723 35.8776 45.9111 36.322 46.8546 37.0664C45.8339 29.6743 39.5631 24 32 24C24.4369 24 18.1661 29.6743 17.1454 37.0664C18.0889 36.322 19.277 35.8776 20.5714 35.8776C22.3972 35.8776 23.8571 37.372 23.8571 39.1905V48.4422C23.8571 50.2607 22.3972 51.7551 20.5714 51.7551C17.4833 51.7551 15 49.2251 15 46.1293V39.1905ZM47 41.5034C47 39.4897 45.3899 37.8776 43.4286 37.8776C42.7296 37.8776 42.1429 38.4542 42.1429 39.1905V48.4422C42.1429 49.1785 42.7296 49.7551 43.4286 49.7551C45.3899 49.7551 47 48.1429 47 46.1293V41.5034ZM30.5103 55.5665L30.0194 55.4048L29.8255 55.5357L30.0706 55.7838L30.5103 55.5665Z" fill="white"/>
</svg>
