<svg width="65" height="65" viewBox="0 0 65 65" fill="none" xmlns="http://www.w3.org/2000/svg">
<circle cx="32.5" cy="32.5002" r="32.5" fill="#F92A47"/>
<path fill-rule="evenodd" clip-rule="evenodd" d="M32.5 63C49.3447 63 63 49.3447 63 32.5C63 15.6553 49.3447 2 32.5 2C15.6553 2 2 15.6553 2 32.5C2 49.3447 15.6553 63 32.5 63ZM32.5 65C50.4493 65 65 50.4493 65 32.5C65 14.5507 50.4493 0 32.5 0C14.5507 0 0 14.5507 0 32.5C0 50.4493 14.5507 65 32.5 65Z" fill="white"/>
<path fill-rule="evenodd" clip-rule="evenodd" d="M14.0605 43.9715C13.8717 44.4905 14.1393 45.0644 14.6583 45.2532L23.1158 48.3306C23.6348 48.5195 24.2087 48.2518 24.3975 47.7328C24.5863 47.2138 24.3187 46.64 23.7997 46.4512L17.6109 44.1993L32.9356 37.0516L46.6552 44.0998L40.385 46.114C39.8592 46.2829 39.5698 46.8461 39.7387 47.3719C39.9077 47.8977 40.4709 48.1871 40.9967 48.0181L49.5654 45.2656C50.0912 45.0966 50.3806 44.5335 50.2116 44.0076L47.4591 35.4389C47.2901 34.9131 46.727 34.6237 46.2011 34.7927C45.6753 34.9616 45.386 35.5248 45.5549 36.0506L47.5691 42.3208L33.9569 35.3277L33.9569 17.4142L38.6137 22.0711C39.0042 22.4616 39.6374 22.4616 40.0279 22.0711C40.4184 21.6805 40.4184 21.0474 40.0279 20.6569L33.664 14.2929C33.2734 13.9024 32.6403 13.9024 32.2497 14.2929L25.8858 20.6569C25.4953 21.0474 25.4953 21.6805 25.8858 22.0711C26.2763 22.4616 26.9095 22.4616 27.3 22.0711L31.9569 17.4142L31.9569 35.3012L16.7655 42.3867L19.0174 36.1979C19.2063 35.6789 18.9386 35.1051 18.4196 34.9162C17.9006 34.7274 17.3268 34.995 17.138 35.514L14.0605 43.9715Z" fill="white"/>
</svg>
