<svg width="32" height="24" viewBox="0 0 32 24" fill="none" xmlns="http://www.w3.org/2000/svg">
<path d="M28.8642 1.33331H3.1332C2.13844 1.33331 1.33203 2.19048 1.33203 3.24784V20.7521C1.33203 21.8095 2.13844 22.6666 3.1332 22.6666H28.8642C29.859 22.6666 30.6654 21.8095 30.6654 20.7521V3.24784C30.6654 2.19048 29.859 1.33331 28.8642 1.33331Z" fill="white" stroke="#D6DAE2"/>
<path fill-rule="evenodd" clip-rule="evenodd" d="M24.5361 18.4846V18.5188H24.5692C24.5754 18.5189 24.5816 18.5174 24.587 18.5145C24.5914 18.5115 24.5939 18.5065 24.5937 18.5014C24.5939 18.4963 24.5914 18.4914 24.587 18.4886C24.5817 18.4855 24.5755 18.484 24.5692 18.4842H24.5361V18.4846ZM24.5696 18.4603C24.5838 18.4595 24.5979 18.4634 24.6094 18.4715C24.6188 18.4789 24.624 18.4902 24.6234 18.5018C24.6238 18.5118 24.6197 18.5215 24.6122 18.5284C24.6033 18.5359 24.5921 18.5404 24.5803 18.5412L24.6248 18.59H24.5905L24.5497 18.5415H24.5364V18.59H24.5078V18.4604H24.57L24.5696 18.4603ZM24.5607 18.6348C24.5757 18.6349 24.5906 18.632 24.6044 18.6262C24.6176 18.6207 24.6297 18.6128 24.6399 18.603C24.6501 18.5932 24.6583 18.5815 24.664 18.5687C24.6757 18.5415 24.6757 18.511 24.664 18.4839C24.6583 18.4711 24.6501 18.4595 24.6399 18.4496C24.6297 18.4398 24.6176 18.4319 24.6044 18.4264C24.5905 18.4209 24.5757 18.4182 24.5607 18.4183C24.5455 18.4182 24.5304 18.4209 24.5163 18.4264C24.5027 18.4318 24.4903 18.4397 24.4799 18.4496C24.4478 18.4813 24.4385 18.5287 24.4562 18.5696C24.4616 18.5824 24.4697 18.5941 24.4799 18.6039C24.4904 18.6138 24.5027 18.6216 24.5163 18.6271C24.5303 18.6329 24.5454 18.6358 24.5607 18.6356M24.5607 18.3872C24.5998 18.3871 24.6373 18.4019 24.6652 18.4283C24.6786 18.4409 24.6893 18.4561 24.6966 18.4728C24.712 18.5073 24.712 18.5465 24.6966 18.5812C24.6891 18.5977 24.6784 18.6128 24.6652 18.6256C24.6515 18.6382 24.6357 18.6484 24.6183 18.6556C24.6001 18.663 24.5805 18.6669 24.5607 18.6668C24.5407 18.6669 24.5209 18.6631 24.5024 18.6556C24.4849 18.6485 24.4688 18.6384 24.4552 18.6256C24.4419 18.6124 24.4314 18.5968 24.4242 18.5797C24.4089 18.5451 24.4089 18.5059 24.4242 18.4713C24.4315 18.4546 24.4422 18.4395 24.4557 18.4268C24.4691 18.4138 24.4852 18.4037 24.5028 18.3968C24.5213 18.3893 24.5412 18.3856 24.5612 18.3857M10.9517 17.8865C10.9517 17.6394 11.1198 17.4363 11.3943 17.4363C11.6566 17.4363 11.8337 17.6306 11.8337 17.8865C11.8337 18.1425 11.6566 18.3368 11.3943 18.3368C11.1198 18.3368 10.9517 18.1337 10.9517 17.8865ZM12.1328 17.8865V17.1831H11.8155V17.3544C11.7149 17.2278 11.5624 17.1484 11.3548 17.1484C10.946 17.1484 10.6251 17.4575 10.6251 17.8869C10.6251 18.3162 10.9458 18.6254 11.3548 18.6254C11.5622 18.6254 11.7149 18.5458 11.8155 18.4193V18.59H12.1324V17.8865H12.1328ZM22.8507 17.8865C22.8507 17.6394 23.0187 17.4363 23.2933 17.4363C23.5559 17.4363 23.7327 17.6306 23.7327 17.8865C23.7327 18.1425 23.5559 18.3368 23.2933 18.3368C23.0188 18.3368 22.8507 18.1337 22.8507 17.8865ZM24.0321 17.8865V16.6185H23.7146V17.3544C23.614 17.2278 23.4614 17.1484 23.2539 17.1484C22.845 17.1484 22.5241 17.4575 22.5241 17.8869C22.5241 18.3162 22.8448 18.6254 23.2539 18.6254C23.4614 18.6254 23.614 18.5458 23.7146 18.4193V18.59H24.0321V17.8865ZM16.0697 17.4218C16.2741 17.4218 16.4054 17.5454 16.4389 17.7629H15.682C15.7159 17.5598 15.8437 17.4218 16.0697 17.4218ZM16.0761 17.1476C15.6486 17.1476 15.3495 17.4475 15.3495 17.8861C15.3495 18.3333 15.6606 18.6246 16.0973 18.6246C16.317 18.6246 16.5183 18.5717 16.6953 18.4275L16.5398 18.2009C16.4176 18.2951 16.2619 18.348 16.1154 18.348C15.9111 18.348 15.7249 18.2567 15.6792 18.0035H16.7623C16.7654 17.9655 16.7686 17.9272 16.7686 17.886C16.7654 17.4476 16.4842 17.1475 16.0759 17.1475M19.9057 17.886C19.9057 17.6388 20.0736 17.4358 20.3482 17.4358C20.6106 17.4358 20.7876 17.6301 20.7876 17.886C20.7876 18.1419 20.6106 18.3363 20.3482 18.3363C20.0736 18.3363 19.9056 18.1332 19.9056 17.886M21.0866 17.886V17.1831H20.7695V17.3544C20.6686 17.2278 20.5164 17.1484 20.3088 17.1484C19.9 17.1484 19.5791 17.4575 19.5791 17.8869C19.5791 18.3162 19.8998 18.6254 20.3088 18.6254C20.5164 18.6254 20.6686 18.5458 20.7695 18.4193V18.59H21.0866V17.8865L21.0866 17.886ZM18.1143 17.886C18.1143 18.3126 18.4224 18.6245 18.8926 18.6245C19.1122 18.6245 19.2586 18.5774 19.4169 18.4568L19.2646 18.2096C19.1455 18.2921 19.0204 18.3363 18.8824 18.3363C18.6292 18.3333 18.443 18.1568 18.443 17.886C18.443 17.6153 18.6292 17.4388 18.8824 17.4358C19.0201 17.4358 19.1451 17.4799 19.2646 17.5624L19.4169 17.3152C19.2583 17.1946 19.112 17.1475 18.8926 17.1475C18.4224 17.1475 18.1143 17.4593 18.1143 17.886ZM22.2036 17.1475C22.0206 17.1475 21.9014 17.23 21.819 17.3536V17.1831H21.5046V18.5893H21.8222V17.801C21.8222 17.5683 21.9259 17.439 22.1333 17.439C22.2012 17.438 22.2686 17.4501 22.3316 17.4744L22.4294 17.1862C22.3592 17.1595 22.2677 17.1478 22.2034 17.1478M13.701 17.2949C13.5484 17.1979 13.3381 17.1478 13.1062 17.1478C12.7366 17.1478 12.4987 17.3186 12.4987 17.598C12.4987 17.8272 12.6758 17.9687 13.002 18.0128L13.1518 18.0334C13.3258 18.0569 13.4079 18.1011 13.4079 18.1805C13.4079 18.2892 13.2923 18.3513 13.0754 18.3513C12.8557 18.3513 12.6971 18.2836 12.5902 18.2041L12.4412 18.4426C12.6151 18.5662 12.8348 18.6251 13.0727 18.6251C13.494 18.6251 13.7382 18.4338 13.7382 18.1661C13.7382 17.9189 13.546 17.7896 13.2286 17.7455L13.079 17.7246C12.9417 17.7075 12.8317 17.6808 12.8317 17.5865C12.8317 17.4838 12.9354 17.4219 13.1095 17.4219C13.2956 17.4219 13.4759 17.4895 13.5642 17.5424L13.7015 17.2952L13.701 17.2949ZM17.7939 17.148C17.6109 17.148 17.4918 17.2306 17.4097 17.3541V17.1831H17.0953V18.5893H17.4125V17.801C17.4125 17.5683 17.5162 17.439 17.7236 17.439C17.7915 17.438 17.8589 17.4501 17.922 17.4744L18.0197 17.1862C17.9496 17.1595 17.858 17.1478 17.7938 17.1478M15.0871 17.1831H14.5683V16.7565H14.2477V17.1831H13.9518V17.4626H14.2477V18.1041C14.2477 18.4303 14.379 18.6246 14.7543 18.6246C14.8919 18.6246 15.0505 18.5835 15.1511 18.5159L15.0595 18.2541C14.9648 18.307 14.8611 18.3336 14.7787 18.3336C14.6201 18.3336 14.5683 18.2394 14.5683 18.0983V17.4628H15.0871V17.1831ZM10.3446 18.5897V17.7071C10.3446 17.3748 10.1249 17.1511 9.77076 17.1481C9.58452 17.1451 9.39246 17.201 9.25803 17.3983C9.15742 17.2424 8.99885 17.1481 8.77596 17.1481C8.62015 17.1481 8.46791 17.1922 8.34869 17.3569V17.1831H8.03125V18.5893H8.35117V17.8096C8.35117 17.5655 8.4916 17.4358 8.70849 17.4358C8.9191 17.4358 9.0257 17.5681 9.0257 17.8065V18.5891H9.34637V17.8094C9.34637 17.5653 9.49273 17.4356 9.70328 17.4356C9.91988 17.4356 10.0233 17.568 10.0233 17.8063V18.5889L10.3446 18.5897Z" fill="#231F20"/>
<path fill-rule="evenodd" clip-rule="evenodd" d="M24.7169 13.9119V13.7062H24.6614L24.5971 13.8473L24.5332 13.7062H24.4775V13.9119H24.5169V13.757L24.577 13.8906H24.6179L24.6779 13.7566V13.9119H24.7171H24.7169ZM24.3645 13.9119V13.7415H24.4356V13.7067H24.2539V13.7415H24.325V13.9119H24.3645Z" fill="#F79410"/>
<path fill-rule="evenodd" clip-rule="evenodd" d="M18.4008 14.7939H13.5938V6.4657H18.4009L18.4008 14.7939Z" fill="#FF5F00"/>
<path fill-rule="evenodd" clip-rule="evenodd" d="M13.8997 10.6299C13.8997 8.9405 14.7202 7.4356 15.9979 6.46576C15.0309 5.73072 13.8343 5.33154 12.6029 5.33332C9.56881 5.33332 7.10938 7.70463 7.10938 10.6299C7.10938 13.5551 9.56881 15.9264 12.6029 15.9264C13.8343 15.9282 15.031 15.529 15.998 14.7939C14.7204 13.8243 13.8997 12.3193 13.8997 10.6299Z" fill="#EB001B"/>
<path fill-rule="evenodd" clip-rule="evenodd" d="M24.889 10.6299C24.889 13.5551 22.4296 15.9264 19.3956 15.9264C18.164 15.9281 16.9672 15.529 16 14.7939C17.2781 13.8241 18.0986 12.3193 18.0986 10.6299C18.0986 8.94039 17.2781 7.4356 16 6.46576C16.9671 5.73072 18.164 5.3316 19.3955 5.33332C22.4295 5.33332 24.8889 7.70463 24.8889 10.6299" fill="#F79410"/>
</svg>
