<svg width="72" height="72" viewBox="0 0 72 72" fill="none" xmlns="http://www.w3.org/2000/svg">
<circle cx="39.5" cy="32.5" r="32.5" fill="#F92A47"/>
<path fill-rule="evenodd" clip-rule="evenodd" d="M32.5 70C49.3447 70 63 56.3447 63 39.5C63 22.6553 49.3447 9 32.5 9C15.6553 9 2 22.6553 2 39.5C2 56.3447 15.6553 70 32.5 70ZM32.5 72C50.4493 72 65 57.4493 65 39.5C65 21.5507 50.4493 7 32.5 7C14.5507 7 0 21.5507 0 39.5C0 57.4493 14.5507 72 32.5 72Z" fill="white"/>
<path fill-rule="evenodd" clip-rule="evenodd" d="M14.0605 53.658C13.8717 54.177 14.1393 54.7508 14.6583 54.9397L23.1158 58.0171C23.6348 58.2059 24.2087 57.9383 24.3975 57.4193C24.5863 56.9003 24.3187 56.3265 23.7997 56.1376L17.6109 53.8857L32.9356 46.738L46.6552 53.7862L40.385 55.8004C39.8592 55.9694 39.5698 56.5326 39.7387 57.0584C39.9077 57.5842 40.4709 57.8735 40.9967 57.7046L49.5654 54.952C50.0912 54.7831 50.3806 54.2199 50.2116 53.6941L47.4591 45.1254C47.2901 44.5995 46.727 44.3102 46.2011 44.4791C45.6753 44.648 45.386 45.2112 45.5549 45.737L47.5691 52.0073L33.9569 45.0142L33.9569 27.1007L38.6137 31.7575C39.0042 32.1481 39.6374 32.1481 40.0279 31.7575C40.4184 31.367 40.4184 30.7338 40.0279 30.3433L33.664 23.9793C33.2734 23.5888 32.6403 23.5888 32.2497 23.9793L25.8858 30.3433C25.4953 30.7338 25.4953 31.367 25.8858 31.7575C26.2763 32.1481 26.9095 32.1481 27.3 31.7575L31.9569 27.1007L31.9569 44.9877L16.7655 52.0732L19.0174 45.8844C19.2063 45.3654 18.9386 44.7916 18.4196 44.6027C17.9006 44.4139 17.3268 44.6815 17.138 45.2005L14.0605 53.658Z" fill="white"/>
</svg>
