<svg width="41" height="41" viewBox="0 0 41 41" fill="none" xmlns="http://www.w3.org/2000/svg">
<rect x="0.273438" y="0.972961" width="40" height="40" rx="2" fill="#F92A47"/>
<path d="M20.3665 13.6723C20.0387 13.6723 19.7727 13.4091 19.7727 13.0849C19.7727 10.8139 21.6347 8.97296 23.9289 8.97296C24.2579 8.97296 24.5227 9.23612 24.5227 9.56037C24.5227 11.8313 22.6619 13.6723 20.3665 13.6723Z" fill="white"/>
<path d="M20.3665 13.6723C20.0387 13.6723 19.7727 13.4091 19.7727 13.0849C19.7727 10.8139 21.6347 8.97296 23.9289 8.97296C24.2579 8.97296 24.5227 9.23612 24.5227 9.56037C24.5227 11.8313 22.6619 13.6723 20.3665 13.6723Z" fill="white"/>
<path d="M29.0357 26.0415C29.2649 26.2118 29.3397 26.5208 29.2102 26.7746C27.1203 30.9123 25.453 32.973 23.9295 32.973C23.2206 32.973 22.5235 32.7462 21.8443 32.3045C20.8551 31.6595 19.5786 31.6325 18.5621 32.234C17.7391 32.7215 16.9554 32.973 16.2109 32.973C13.9701 32.973 10.2734 26.146 10.2734 22.3995C10.2734 18.4004 12.3931 15.3506 15.6171 15.3506C17.1335 15.3506 18.4433 15.5714 19.5429 16.0202C20.0096 16.2105 20.5369 16.1964 20.9917 15.9803C21.8846 15.5562 23.0614 15.3506 24.5232 15.3506C26.3068 15.3506 27.8612 16.2293 29.1544 17.9352C29.3504 18.1948 29.2981 18.5625 29.0357 18.7576C27.5929 19.8278 26.8982 21.0309 26.8982 22.3995C26.8982 23.7682 27.5929 24.9712 29.0357 26.0415Z" fill="white"/>
<path d="M29.0357 26.0415C29.2649 26.2118 29.3397 26.5208 29.2102 26.7746C27.1203 30.9123 25.453 32.973 23.9295 32.973C23.2206 32.973 22.5235 32.7462 21.8443 32.3045C20.8551 31.6595 19.5786 31.6325 18.5621 32.234C17.7391 32.7215 16.9554 32.973 16.2109 32.973C13.9701 32.973 10.2734 26.146 10.2734 22.3995C10.2734 18.4004 12.3931 15.3506 15.6171 15.3506C17.1335 15.3506 18.4433 15.5714 19.5429 16.0202C20.0096 16.2105 20.5369 16.1964 20.9917 15.9803C21.8846 15.5562 23.0614 15.3506 24.5232 15.3506C26.3068 15.3506 27.8612 16.2293 29.1544 17.9352C29.3504 18.1948 29.2981 18.5625 29.0357 18.7576C27.5929 19.8278 26.8982 21.0309 26.8982 22.3995C26.8982 23.7682 27.5929 24.9712 29.0357 26.0415Z" fill="white"/>
</svg>
