<svg width="72" height="72" viewBox="0 0 72 72" fill="none" xmlns="http://www.w3.org/2000/svg">
<path d="M72 32.5C72 50.4493 57.4493 65 39.5 65C21.5507 65 7 50.4493 7 32.5C7 14.5507 21.5507 0 39.5 0C57.4493 0 72 14.5507 72 32.5Z" fill="#F92A47"/>
<path fill-rule="evenodd" clip-rule="evenodd" d="M32.5 70C49.3447 70 63 56.3447 63 39.5C63 22.6553 49.3447 9 32.5 9C15.6553 9 2 22.6553 2 39.5C2 56.3447 15.6553 70 32.5 70ZM32.5 72C50.4493 72 65 57.4493 65 39.5C65 21.5507 50.4493 7 32.5 7C14.5507 7 0 21.5507 0 39.5C0 57.4493 14.5507 72 32.5 72Z" fill="white"/>
<path fill-rule="evenodd" clip-rule="evenodd" d="M45.7071 28.2929C46.0976 28.6834 46.0976 29.3166 45.7071 29.7071L22.7071 52.7071C22.3166 53.0976 21.6834 53.0976 21.2929 52.7071C20.9024 52.3166 20.9024 51.6834 21.2929 51.2929L44.2929 28.2929C44.6834 27.9024 45.3166 27.9024 45.7071 28.2929Z" fill="white"/>
<path fill-rule="evenodd" clip-rule="evenodd" d="M24 28C22.3431 28 21 29.3431 21 31C21 32.6569 22.3431 34 24 34C25.6569 34 27 32.6569 27 31C27 29.3431 25.6569 28 24 28ZM19 31C19 28.2386 21.2386 26 24 26C26.7614 26 29 28.2386 29 31C29 33.7614 26.7614 36 24 36C21.2386 36 19 33.7614 19 31Z" fill="white"/>
<path fill-rule="evenodd" clip-rule="evenodd" d="M42 46C40.3431 46 39 47.3431 39 49C39 50.6569 40.3431 52 42 52C43.6569 52 45 50.6569 45 49C45 47.3431 43.6569 46 42 46ZM37 49C37 46.2386 39.2386 44 42 44C44.7614 44 47 46.2386 47 49C47 51.7614 44.7614 54 42 54C39.2386 54 37 51.7614 37 49Z" fill="white"/>
</svg>
