<svg width="72" height="72" viewBox="0 0 72 72" fill="none" xmlns="http://www.w3.org/2000/svg">
<path d="M72 32.5C72 50.4493 57.4493 65 39.5 65C21.5507 65 7 50.4493 7 32.5C7 14.5507 21.5507 0 39.5 0C57.4493 0 72 14.5507 72 32.5Z" fill="#F92A47"/>
<path fill-rule="evenodd" clip-rule="evenodd" d="M32.5 70C49.3447 70 63 56.3447 63 39.5C63 22.6553 49.3447 9 32.5 9C15.6553 9 2 22.6553 2 39.5C2 56.3447 15.6553 70 32.5 70ZM32.5 72C50.4493 72 65 57.4493 65 39.5C65 21.5507 50.4493 7 32.5 7C14.5507 7 0 21.5507 0 39.5C0 57.4493 14.5507 72 32.5 72Z" fill="white"/>
<path fill-rule="evenodd" clip-rule="evenodd" d="M18.2857 29C17.6211 29 17 29.5803 17 30.4L17 34.2H47V30.4C47 29.5803 46.379 29 45.7143 29L18.2857 29ZM49 30.4C49 28.5688 47.5744 27 45.7143 27L18.2857 27C16.4256 27 15 28.5688 15 30.4L15 49.6C15 51.4312 16.4256 53 18.2857 53L45.7143 53C47.5744 53 49 51.4312 49 49.6V30.4ZM47 36.2H17L17 49.6C17 50.4197 17.6211 51 18.2857 51L45.7143 51C46.379 51 47 50.4197 47 49.6V36.2Z" fill="white"/>
<path fill-rule="evenodd" clip-rule="evenodd" d="M19.0001 44.9999C19.0001 44.4476 19.4478 43.9999 20.0001 43.9999H33.7144C34.2667 43.9999 34.7144 44.4476 34.7144 44.9999C34.7144 45.5522 34.2667 45.9999 33.7144 45.9999H20.0001C19.4478 45.9999 19.0001 45.5522 19.0001 44.9999ZM37.2858 44.9999C37.2858 44.4476 37.7336 43.9999 38.2858 43.9999H45.143C45.6953 43.9999 46.143 44.4476 46.143 44.9999C46.143 45.5522 45.6953 45.9999 45.143 45.9999H38.2858C37.7336 45.9999 37.2858 45.5522 37.2858 44.9999Z" fill="white"/>
</svg>
