<svg width="44" height="46" viewBox="0 0 44 46" fill="none" xmlns="http://www.w3.org/2000/svg">
<path d="M44 -46L44 46C19.6995 46 0 25.4051 0 -3.8147e-06C0 -25.4051 19.6995 -46 44 -46Z" fill="#F92A47"/>
<path d="M22.4286 15.1429H23.8571M28.1429 20.8571H29.5714M29.5714 14.4286L22.4286 21.5714M25.0021 8.41335L23.3892 10.0262C23.1245 10.2909 22.7656 10.4396 22.3913 10.4396H19.8509C19.0714 10.4396 18.4396 11.0714 18.4396 11.8509V14.3913C18.4396 14.7656 18.2909 15.1245 18.0262 15.3892L16.4134 17.0021C15.8622 17.5532 15.8622 18.4468 16.4134 18.9979L18.0262 20.6108C18.2909 20.8755 18.4396 21.2344 18.4396 21.6087V24.1491C18.4396 24.9286 19.0714 25.5604 19.8509 25.5604H22.3913C22.7656 25.5604 23.1245 25.7091 23.3892 25.9738L25.0021 27.5866C25.5532 28.1378 26.4468 28.1378 26.9979 27.5866L28.6108 25.9738C28.8755 25.7091 29.2344 25.5604 29.6087 25.5604H32.1491C32.9286 25.5604 33.5604 24.9286 33.5604 24.1491V21.6087C33.5604 21.2344 33.7091 20.8755 33.9738 20.6108L35.5866 18.9979C36.1378 18.4468 36.1378 17.5532 35.5866 17.0021L33.9738 15.3892C33.7091 15.1245 33.5604 14.7656 33.5604 14.3913V11.8509C33.5604 11.0714 32.9286 10.4396 32.1491 10.4396H29.6087C29.2344 10.4396 28.8755 10.2909 28.6108 10.0262L26.9979 8.41335C26.4468 7.86222 25.5532 7.86222 25.0021 8.41335Z" stroke="white"/>
</svg>
