<svg width="38" height="28" viewBox="0 0 38 28" fill="none" xmlns="http://www.w3.org/2000/svg">
<path d="M22 13.5L16 17V10L22 13.5Z" fill="white" stroke="white" stroke-width="2" stroke-linecap="round"/>
<path d="M1 15.2955V12.7045C1 7.40319 1 4.75256 2.62988 3.04706C4.25978 1.34157 6.82581 1.26774 11.9578 1.12009C14.3897 1.05013 16.8738 1 19 1C21.1262 1 23.6103 1.05013 26.0421 1.12009C31.1741 1.26774 33.7402 1.34157 35.3701 3.04706C37 4.75256 37 7.40319 37 12.7045V15.2955C37 20.5967 37 23.2474 35.3701 24.9528C33.7402 26.6583 31.1743 26.7321 26.0423 26.8799C23.6103 26.9498 21.1262 27 19 27C16.8738 27 14.3896 26.9498 11.9577 26.8799C6.82572 26.7321 4.25975 26.6583 2.62986 24.9528C1 23.2474 1 20.5967 1 15.2955Z" stroke="white" stroke-width="2"/>
</svg>
