<svg width="72" height="72" viewBox="0 0 72 72" fill="none" xmlns="http://www.w3.org/2000/svg">
<rect width="72" height="72" rx="36" fill="#F92A47"/>
<path d="M35.9994 27C35.5966 27 35.2591 27.1362 34.9871 27.4086C34.715 27.6809 34.579 28.0184 34.579 28.421V36.4737C34.579 36.8763 34.7152 37.2138 34.9877 37.4862C35.2602 37.7586 35.5978 37.8947 36.0006 37.8947C36.4034 37.8947 36.7409 37.7586 37.0129 37.4862C37.285 37.2138 37.421 36.8763 37.421 36.4737L37.421 28.421C37.421 28.0184 37.2848 27.6809 37.0123 27.4086C36.7398 27.1362 36.4022 27 35.9994 27ZM36 41.1376C35.5664 41.1376 35.2029 41.2843 34.9096 41.5776C34.6163 41.8709 34.4697 42.2344 34.4697 42.668C34.4697 43.1016 34.6163 43.465 34.9096 43.7584C35.2029 44.0517 35.5664 44.1983 36 44.1983C36.4336 44.1983 36.7971 44.0517 37.0904 43.7584C37.3837 43.465 37.5303 43.1016 37.5303 42.668C37.5303 42.2344 37.3837 41.8709 37.0904 41.5776C36.7971 41.2843 36.4336 41.1376 36 41.1376ZM35.9968 18C38.4864 18 40.8265 18.4724 43.017 19.4173C45.2076 20.3621 47.1132 21.6444 48.7336 23.2641C50.354 24.8838 51.6369 26.7885 52.5821 28.9781C53.5274 31.1677 54 33.5073 54 35.9968C54 38.4864 53.5276 40.8265 52.5827 43.017C51.6379 45.2076 50.3556 47.1131 48.7359 48.7336C47.1162 50.354 45.2115 51.6369 43.0219 52.5821C40.8323 53.5274 38.4927 54 36.0032 54C33.5136 54 31.1735 53.5276 28.983 52.5827C26.7924 51.6379 24.8868 50.3556 23.2664 48.7359C21.646 47.1162 20.3631 45.2115 19.4179 43.0219C18.4726 40.8323 18 38.4927 18 36.0032C18 33.5136 18.4724 31.1735 19.4173 28.983C20.3621 26.7924 21.6444 24.8868 23.2641 23.2664C24.8838 21.646 26.7885 20.3631 28.9781 19.4179C31.1677 18.4726 33.5073 18 35.9968 18ZM36 20.8421C31.7684 20.8421 28.1842 22.3105 25.2473 25.2473C22.3105 28.1842 20.8421 31.7684 20.8421 36C20.8421 40.2316 22.3105 43.8158 25.2473 46.7527C28.1842 49.6895 31.7684 51.1579 36 51.1579C40.2316 51.1579 43.8158 49.6895 46.7527 46.7527C49.6895 43.8158 51.1579 40.2316 51.1579 36C51.1579 31.7684 49.6895 28.1842 46.7527 25.2473C43.8158 22.3105 40.2316 20.8421 36 20.8421Z" fill="white"/>
</svg>
