<svg width="65" height="65" viewBox="0 0 65 65" fill="none" xmlns="http://www.w3.org/2000/svg">
<circle cx="32.5" cy="32.5" r="32" stroke="white"/>
<path d="M21 31V39.4C21.6244 40.6 24.6282 43 31.6479 43C38.6676 43 41.4742 40.6 42 39.4V31" stroke="white"/>
<path d="M31.7041 16.274L14.5971 25.8063C13.9066 26.1911 13.9144 27.1871 14.6109 27.561L31.718 36.7435C32.0161 36.9035 32.3748 36.9019 32.6715 36.7394L49.4293 27.5569C50.1157 27.1808 50.1235 26.1977 49.4432 25.8107L32.6853 16.2784C32.3814 16.1055 32.0094 16.1039 31.7041 16.274Z" stroke="white"/>
<path d="M31 29L38.5713 33.4989V44.6674M38.5713 44.6674L36.4462 49H41L38.5713 44.6674Z" stroke="white"/>
</svg>
