<svg width="72" height="72" viewBox="0 0 72 72" fill="none" xmlns="http://www.w3.org/2000/svg">
<g clip-path="url(#clip0_1480_13349)">
<mask id="mask0_1480_13349" style="mask-type:alpha" maskUnits="userSpaceOnUse" x="0" y="0" width="72" height="72">
<rect width="72" height="72" fill="#D9D9D9"/>
</mask>
<g mask="url(#mask0_1480_13349)">
<path d="M36.0009 50.2499C36.6387 50.2499 37.173 50.0342 37.6037 49.603C38.0345 49.1718 38.2499 48.6374 38.2499 47.9999V35.2499C38.2499 34.6124 38.0342 34.0781 37.6028 33.6468C37.1713 33.2156 36.6367 32.9999 35.999 32.9999C35.3612 32.9999 34.8269 33.2156 34.3961 33.6468C33.9654 34.0781 33.75 34.6124 33.75 35.2499V47.9999C33.75 48.6374 33.9657 49.1718 34.3971 49.603C34.8286 50.0342 35.3632 50.2499 36.0009 50.2499ZM35.9999 27.8654C36.6865 27.8654 37.262 27.6332 37.7264 27.1688C38.1908 26.7044 38.423 26.1289 38.423 25.4423C38.423 24.7558 38.1908 24.1804 37.7264 23.7159C37.262 23.2515 36.6865 23.0193 35.9999 23.0193C35.3134 23.0193 34.7379 23.2515 34.2735 23.7159C33.8091 24.1804 33.5769 24.7558 33.5769 25.4423C33.5769 26.1289 33.8091 26.7044 34.2735 27.1688C34.7379 27.6332 35.3134 27.8654 35.9999 27.8654ZM36.0049 64.4999C32.0631 64.4999 28.3581 63.7519 24.8897 62.2559C21.4212 60.7599 18.4042 58.7296 15.8385 56.1651C13.2728 53.6006 11.2416 50.5848 9.74498 47.1179C8.24833 43.6511 7.5 39.9468 7.5 36.005C7.5 32.0632 8.248 28.3581 9.744 24.8897C11.24 21.4212 13.2703 18.4042 15.8348 15.8385C18.3993 13.2728 21.415 11.2416 24.8819 9.74498C28.3488 8.24833 32.0531 7.5 35.9949 7.5C39.9367 7.5 43.6418 8.248 47.1102 9.744C50.5787 11.24 53.5957 13.2703 56.1614 15.8348C58.7271 18.3993 60.7582 21.415 62.2549 24.8819C63.7515 28.3488 64.4999 32.0531 64.4999 35.9949C64.4999 39.9367 63.7519 43.6418 62.2559 47.1102C60.7599 50.5787 58.7296 53.5957 56.1651 56.1614C53.6006 58.7271 50.5848 60.7582 47.1179 62.2549C43.6511 63.7515 39.9468 64.4999 36.0049 64.4999ZM35.9999 59.9999C42.6999 59.9999 48.3749 57.6749 53.0249 53.0249C57.6749 48.3749 59.9999 42.6999 59.9999 35.9999C59.9999 29.2999 57.6749 23.6249 53.0249 18.9749C48.3749 14.3249 42.6999 11.9999 35.9999 11.9999C29.2999 11.9999 23.6249 14.3249 18.9749 18.9749C14.3249 23.6249 11.9999 29.2999 11.9999 35.9999C11.9999 42.6999 14.3249 48.3749 18.9749 53.0249C23.6249 57.6749 29.2999 59.9999 35.9999 59.9999Z" fill="#516174"/>
</g>
</g>
<defs>
<clipPath id="clip0_1480_13349">
<rect width="72" height="72" fill="white"/>
</clipPath>
</defs>
</svg>
