<svg width="72" height="72" viewBox="0 0 72 72" fill="none" xmlns="http://www.w3.org/2000/svg">
<path d="M72 32.5C72 50.4493 57.4493 65 39.5 65C21.5507 65 7 50.4493 7 32.5C7 14.5507 21.5507 0 39.5 0C57.4493 0 72 14.5507 72 32.5Z" fill="#F92A47"/>
<path fill-rule="evenodd" clip-rule="evenodd" d="M32.5 70C49.3447 70 63 56.3447 63 39.5C63 22.6553 49.3447 9 32.5 9C15.6553 9 2 22.6553 2 39.5C2 56.3447 15.6553 70 32.5 70ZM32.5 72C50.4493 72 65 57.4493 65 39.5C65 21.5507 50.4493 7 32.5 7C14.5507 7 0 21.5507 0 39.5C0 57.4493 14.5507 72 32.5 72Z" fill="white"/>
<path fill-rule="evenodd" clip-rule="evenodd" d="M20 38H22V46.1297C22.6854 47.1862 25.4055 50 31.6479 50C37.9271 50 40.436 47.1589 41 46.1639V38H43V46.6095L42.9159 46.8013C42.2104 48.4115 39.0114 52 31.6479 52C24.2796 52 20.9204 48.4135 20.1129 46.8616L20 46.6446V38Z" fill="white"/>
<path fill-rule="evenodd" clip-rule="evenodd" d="M31.2173 22.4005C31.828 22.0602 32.572 22.0635 33.1797 22.4092L49.9376 31.9415C51.2982 32.7154 51.2826 34.6817 49.9099 35.4339L33.152 44.6164C32.5587 44.9415 31.8412 44.9446 31.2451 44.6246L14.138 35.442C12.745 34.6943 12.7293 32.7023 14.1104 31.9328L31.2173 22.4005ZM32.1908 24.1476L15.0839 33.6799L32.191 42.8624L48.9488 33.6799L32.1908 24.1476Z" fill="white"/>
<path fill-rule="evenodd" clip-rule="evenodd" d="M30.1403 35.4892C30.4224 35.0144 31.036 34.8582 31.5108 35.1404L39.5713 39.9299V54.4063L42.7069 60H34.8418L37.5713 54.4354V41.068L30.4891 36.8597C30.0144 36.5776 29.8582 35.964 30.1403 35.4892ZM38.6303 56.8179L38.0505 58H39.293L38.6303 56.8179Z" fill="white"/>
</svg>
