<svg width="65" height="65" viewBox="0 0 65 65" fill="none" xmlns="http://www.w3.org/2000/svg">
<circle cx="32.5" cy="32.5" r="32" stroke="white"/>
<path d="M43.4286 43.7551C45.9533 43.7551 48 41.684 48 39.1293V34.5034C48 31.9486 45.9533 29.8776 43.4286 29.8776C42.1662 29.8776 41.1429 30.9131 41.1429 32.1905V41.4422C41.1429 42.7196 42.1662 43.7551 43.4286 43.7551ZM43.4286 43.7551C43.4286 46.3099 41.3819 48.381 38.8571 48.381H33.1429M48 37.9728V32.1905C48 23.2487 40.8366 16 32 16C23.1634 16 16 23.2487 16 32.1905V37.9728M33.1429 48.381L30.5137 49.6803C30.1274 49.8712 29.6622 49.7931 29.3594 49.4867L29.1142 49.2386C28.6739 48.793 28.7469 48.057 29.2662 47.7067L29.4602 47.5758C29.7166 47.4028 30.0386 47.3582 30.3324 47.455L33.1429 48.381ZM20.5714 43.7551C21.8338 43.7551 22.8571 42.7196 22.8571 41.4422V32.1905C22.8571 30.9131 21.8338 29.8776 20.5714 29.8776C18.0467 29.8776 16 31.9486 16 34.5034V39.1293C16 41.684 18.0467 43.7551 20.5714 43.7551Z" stroke="white"/>
</svg>
