<svg width="160" height="43" viewBox="0 0 160 43" fill="none" xmlns="http://www.w3.org/2000/svg">
<path d="M38.3963 8C39.4207 9.33258 40.2744 10.7941 41 12.3416L21.2805 27L13 21.7557V15.4796L21.2378 20.681L38.3963 8Z" fill="#21A038"/>
<path d="M5.0431 21.0833C5.0431 20.7917 5.0431 20.5417 5.08621 20.25L0.0431034 20C0.0431034 20.3333 0 20.7083 0 21.0417C0 26.875 2.4569 32.1667 6.42241 36L10 32.5417C6.93966 29.625 5.0431 25.5833 5.0431 21.0833Z" fill="url(#paint0_linear)"/>
<path d="M20.9167 5.0431C21.2083 5.0431 21.4583 5.0431 21.75 5.08621L22 0.0431035C21.6667 0.0431035 21.2917 0 20.9583 0C15.125 0 9.83333 2.4569 6 6.42241L9.45833 10C12.375 6.93966 16.4583 5.0431 20.9167 5.0431Z" fill="url(#paint1_linear)"/>
<path d="M22.0833 37.9569C21.7917 37.9569 21.5417 37.9569 21.25 37.9138L21 42.9569C21.3333 42.9569 21.7083 43 22.0417 43C27.875 43 33.1667 40.5431 37 36.5776L33.5417 33C30.625 36.1034 26.5833 37.9569 22.0833 37.9569Z" fill="url(#paint2_linear)"/>
<path d="M31.6552 8L36 4.86022C32.1818 1.84946 27.3103 0 22 0V5.03226C25.5987 5.07527 28.9342 6.15054 31.6552 8Z" fill="url(#paint3_linear)"/>
<path d="M44 21.8972C44 20.5696 43.8659 19.2848 43.6423 18L38.7683 21.469C38.7683 21.5974 38.7683 21.7687 38.7683 21.8972C38.7683 26.8223 36.5325 31.2334 33 34.2741L36.5325 38C41.0935 34.06 44 28.2784 44 21.8972Z" fill="#21A038"/>
<path d="M22 38.2439C17.1064 38.2439 12.7234 36.2114 9.70213 33L6 36.2114C9.95745 40.3984 15.6596 43 22 43V38.2439Z" fill="url(#paint4_linear)"/>
<path d="M11 9.70213L7.46748 6C2.86179 9.95745 0 15.6596 0 22H5.23171C5.23171 17.1489 7.46748 12.7234 11 9.70213Z" fill="url(#paint5_linear)"/>
<path d="M127.026 13.3404L133 9H113V35H133V30.6596H118.714V24.0213H130.922V19.6809H118.714V13.3404H127.026Z" fill="#21A038"/>
<path d="M97.7681 19.1277H90.7719V13.3404H101.966L108 9H85V35H97.0247C103.759 35 107.65 32.0213 107.65 26.8298C107.65 21.8511 104.152 19.1277 97.7681 19.1277ZM96.8061 30.6596H90.7719V23.4681H96.8061C100.479 23.4681 102.184 24.6596 102.184 27.0851C102.184 29.5106 100.348 30.6596 96.8061 30.6596Z" fill="#21A038"/>
<path d="M148.785 9H138V35H143.672V27.6383H148.828C155.703 27.6383 160 24.0638 160 18.3191C160 12.5745 155.703 9 148.785 9ZM148.656 23.2979H143.629V13.3404H148.656C152.309 13.3404 154.285 15.1277 154.285 18.3191C154.285 21.5106 152.309 23.2979 148.656 23.2979Z" fill="#21A038"/>
<path d="M76.0634 28.9684C74.5609 29.7865 72.8867 30.2171 71.1696 30.2171C66.0613 30.2171 62.3695 26.5573 62.3695 21.5197C62.3695 16.4821 66.0613 12.8223 71.1696 12.8223C73.0155 12.7792 74.8185 13.382 76.3209 14.4584L80.399 11.4445L80.1415 11.1862C77.7804 9.07641 74.6038 8 70.9979 8C67.0915 8 63.5285 9.33474 60.9529 11.7459C58.3773 14.2432 56.9177 17.7307 57.0036 21.3475C56.9607 25.0072 58.3773 28.5379 60.9529 31.1212C63.6573 33.6616 67.2632 35.0824 70.955 34.9963C75.0331 34.9963 78.5961 33.5754 81 30.9921L77.3512 28.2795L76.0634 28.9684Z" fill="#21A038"/>
<defs>
<linearGradient id="paint0_linear" x1="5.90075" y1="35.4069" x2="1.04313" y2="20.9279" gradientUnits="userSpaceOnUse">
<stop offset="0.1444" stop-color="#F2E913"/>
<stop offset="0.3037" stop-color="#E7E518"/>
<stop offset="0.5823" stop-color="#CADB26"/>
<stop offset="0.891" stop-color="#A3CD39"/>
</linearGradient>
<linearGradient id="paint1_linear" x1="7.38962" y1="5.83771" x2="20.143" y2="1.15469" gradientUnits="userSpaceOnUse">
<stop offset="0.0592" stop-color="#0FA8E0"/>
<stop offset="0.5385" stop-color="#0099F9"/>
<stop offset="0.9234" stop-color="#0291EB"/>
</linearGradient>
<linearGradient id="paint2_linear" x1="20.7137" y1="38.6981" x2="35.8323" y2="35.4056" gradientUnits="userSpaceOnUse">
<stop offset="0.1226" stop-color="#A3CD39"/>
<stop offset="0.2846" stop-color="#86C339"/>
<stop offset="0.8693" stop-color="#21A038"/>
</linearGradient>
<linearGradient id="paint3_linear" x1="20.945" y1="3.21974" x2="34.1008" y2="7.34833" gradientUnits="userSpaceOnUse">
<stop offset="0.0566" stop-color="#0291EB"/>
<stop offset="0.79" stop-color="#0C8ACB"/>
</linearGradient>
<linearGradient id="paint4_linear" x1="7.26592" y1="36.9839" x2="20.855" y2="42.2818" gradientUnits="userSpaceOnUse">
<stop offset="0.1324" stop-color="#F2E913"/>
<stop offset="0.2977" stop-color="#EBE716"/>
<stop offset="0.5306" stop-color="#D9E01F"/>
<stop offset="0.8023" stop-color="#BBD62D"/>
<stop offset="0.9829" stop-color="#A3CD39"/>
</linearGradient>
<linearGradient id="paint5_linear" x1="3.98084" y1="22.6014" x2="9.28932" y2="8.13682" gradientUnits="userSpaceOnUse">
<stop offset="0.0698" stop-color="#A3CD39"/>
<stop offset="0.2599" stop-color="#81C55F"/>
<stop offset="0.9216" stop-color="#0FA8E0"/>
</linearGradient>
</defs>
</svg>
