<svg width="92" height="44" viewBox="0 0 92 44" fill="none" xmlns="http://www.w3.org/2000/svg">
<path d="M28.005 13.6574H33.8815V15.5689H31.0861V29H28.005V13.6574ZM37.3656 23.2402L37.8936 15.5689H38.0704L38.5985 23.2402H37.3656ZM33.9536 29H36.9702L37.2556 24.9254H38.7084L38.995 29H42.0104L40.4036 13.6574H35.5603L33.9536 29ZM46.4229 23.6301V26.5225C46.4229 26.9124 46.7261 27.0256 46.9029 27.0256C47.1934 27.0256 47.3956 26.7866 47.3956 26.5225V22.9512C47.3956 22.4732 47.3071 21.9451 46.1576 21.9451H44.907V20.26H46.2081C47.0798 20.26 47.3956 20.0587 47.3956 19.1155V16.072C47.3956 15.8079 47.1934 15.5689 46.9028 15.5689C46.7261 15.5689 46.4229 15.6695 46.4229 16.072V18.5746H43.3405V16.399C43.3405 15.33 43.4668 13.6574 45.6268 13.6574H48.1786C50.3387 13.6574 50.4777 15.33 50.4777 16.399V18.8512C50.4777 20.5238 49.3029 20.9766 48.3808 20.9388V21.0898C50.4524 21.0395 50.4777 22.6239 50.4777 23.1648V26.2585C50.4777 27.34 50.3387 29 48.1786 29H45.6268C43.4668 29 43.3405 27.3398 43.3405 26.2584V23.6301H46.4229ZM52.499 13.6574H59.6362V29H56.554V15.5689H55.5813V29H52.499V13.6574ZM64.7397 22.0959V15.5691H65.144C65.4723 15.5691 65.7123 15.8455 65.7123 16.3361V21.3287C65.7123 21.8193 65.4723 22.0958 65.1439 22.0958L64.7397 22.0959ZM61.6574 29H64.7397V23.781H66.508C68.6556 23.781 68.7946 22.121 68.7946 21.0393V16.399C68.7946 15.33 68.6556 13.6574 66.5082 13.6574H61.6574V29ZM74.8707 26.5225C74.8707 26.7866 74.6686 27.0256 74.3781 27.0256C74.2011 27.0256 73.8981 26.9124 73.8981 26.5225V16.072C73.8981 15.6695 74.2012 15.5689 74.3781 15.5689C74.6686 15.5689 74.8707 15.8079 74.8707 16.072V26.5225ZM70.8158 26.2585C70.8158 27.34 70.9546 29 73.1022 29H75.6665C77.814 29 77.953 27.3398 77.953 26.2584V16.399C77.953 15.33 77.8141 13.6574 75.6665 13.6574H73.1022C70.9548 13.6574 70.8158 15.33 70.8158 16.399V26.2585ZM87.983 13.6574H92V29H88.9179V19.3795H88.804L87.2124 29H84.7491L83.1701 19.3795H83.0564V29H79.9741V13.6574H83.9786L85.9871 24.4475L87.983 13.6574ZM24.0107 7.99833C23.0671 3.886 20.7022 0.540874 20.3764 0C19.861 0.767063 17.975 3.72256 17.0162 6.9922C15.969 10.6517 15.8149 13.8963 16.1763 17.078C16.535 20.2723 17.8903 23.5547 17.8903 23.5547C18.6105 25.265 19.6892 27.1135 20.3916 28.0191C21.421 26.6861 23.7871 22.712 24.5248 17.5308C24.9354 14.6383 24.9531 12.1107 24.0107 7.99833ZM20.3764 26.9879C19.9128 26.1201 19.1927 24.4726 19.1245 21.9071C19.1068 19.4423 20.101 17.3169 20.3916 16.8769C20.6505 17.3171 21.5069 19.1656 21.6093 21.6934C21.6787 24.1583 20.8551 26.1074 20.3764 26.9879ZM23.7366 14.9778C23.7012 16.5499 23.513 18.2099 23.273 19.2034C23.3589 17.4931 23.153 15.0911 22.7588 13.2047C22.3647 11.3309 21.2492 8.18698 20.3588 6.74067C19.5364 8.12409 18.5232 10.8404 17.9927 13.1921C17.4596 15.5437 17.4445 18.3985 17.4445 19.2537C17.3029 18.5368 16.9492 15.9588 17.049 13.3808C17.1325 11.2555 17.6326 9.05473 17.9068 8.0486C18.9527 4.69088 20.1364 2.54039 20.3587 2.20077C20.5811 2.54039 22.0716 5.19394 22.8447 7.97312C23.6141 10.7524 23.7694 13.4185 23.7366 14.9779" fill="#0079C2"/>
<path d="M22.4264 28.9938H15.2986V33.684C15.3049 33.684 15.3099 33.6717 15.3162 33.6717C16.9955 32.0222 19.7192 32.0222 21.3998 33.6717C23.0791 35.309 23.0791 37.9803 21.3998 39.6299C21.3922 39.6421 21.3846 39.6421 21.3772 39.6544C21.3684 39.6544 21.3596 39.6668 21.352 39.6791C19.6765 41.3041 17.4876 42.1165 15.2986 42.1165C13.0997 42.1165 10.9007 41.3041 9.22389 39.6544C6.26675 36.7615 5.91657 32.2683 8.17077 28.9938C8.48024 28.5433 8.83288 28.1229 9.22389 27.7382C10.9007 26.0887 13.0997 25.2762 15.2986 25.2762V14C6.84917 14 0 20.709 0 28.9938C0 37.2786 6.84917 44 15.2986 44C19.704 44 23.6728 42.1657 26.4641 39.2482V28.9938H22.4264ZM92 33.4063H28.4158V44H92V33.4063ZM86.5018 40.8018H87.3086V39.2027H86.5018V40.8018ZM86.5018 38.0035H87.7225L88.5398 38.4033L88.7414 38.803L88.9432 39.6026V40.0023C88.9219 42.8663 87.0432 41.8179 85.0689 42.0012V35.4051H86.5018V38.0035ZM75.8981 35.4051V36.6043H74.8791V42.0012H73.2551V36.6043H72.2362V35.4051H75.8981ZM61.0274 40.2022H61.229L61.6324 40.0023V37.2039H61.0274V40.2022ZM59.3928 37.2041H58.7771V40.0023L59.191 40.2022H59.3928V37.2041ZM61.0274 35.4051V36.0047H62.0464L62.6514 36.4044L63.0653 36.8042L63.267 37.6038V39.8025L63.0654 40.602L62.6514 41.0017L62.0464 41.4014H61.0274V42.0011H59.3928V41.4014H58.3738L57.7582 41.0017L57.3549 40.602L57.1532 39.8025V37.6038L57.3547 36.8042L57.7582 36.4044L58.3738 36.0047H59.3928V35.4051H61.0274ZM47.7765 35.4051V36.6043H46.5537V38.0035H47.7765V39.2027H46.5537V40.8018H47.9803V42.0011H44.9234V35.4051H47.7765ZM33.1032 38.0035H33.9184V35.4051H35.345V42.0012H33.9184V39.2027H33.1032V42.0012H31.4728V35.4051H33.1032V38.0035Z" fill="#0079C2"/>
</svg>
