<svg width="24" height="24" viewBox="0 0 24 24" fill="none" xmlns="http://www.w3.org/2000/svg">
<path fill-rule="evenodd" clip-rule="evenodd" d="M12.5 6C12.9202 6 13.2609 6.34067 13.2609 6.7609V11.7391H18.2391C18.6593 11.7391 19 12.0798 19 12.5C19 12.9202 18.6593 13.2609 18.2391 13.2609H13.2609V18.2391C13.2609 18.6593 12.9202 19 12.5 19C12.0798 19 11.7391 18.6593 11.7391 18.2391V13.2609H6.7609C6.34067 13.2609 6 12.9202 6 12.5C6 12.0798 6.34067 11.7391 6.7609 11.7391H11.7391V6.7609C11.7391 6.34067 12.0798 6 12.5 6Z" fill="#25293D"/>
</svg>
