<svg width="24.000000" height="24.000000" viewBox="0 0 24 24" fill="none" xmlns="http://www.w3.org/2000/svg" xmlns:xlink="http://www.w3.org/1999/xlink">
	<desc>
			Created with Pixso.
	</desc>
	<defs/>
	<path id="Vector" d="M24 0.79C24 0.55 23.89 0.32 23.7 0.17C23.51 0.02 23.26 -0.04 23.03 0.01L11.2 2.55L11.2 11.2L24 11.2L24 0.79ZM0.63 4.81L9.59 2.89L9.59 11.2L0 11.2L0 5.6C0 5.22 0.26 4.89 0.63 4.81ZM0 12.8L0 20C0 20.39 0.29 20.73 0.68 20.79L9.59 22.06L9.59 12.8L0 12.8ZM23.08 23.99L11.2 22.29L11.2 12.8L24 12.8L24 23.2C24 23.43 23.89 23.65 23.72 23.8C23.54 23.95 23.31 24.02 23.08 23.99Z" fill="#F92A47" fill-opacity="1.000000" fill-rule="evenodd"/>
</svg>
