<svg width="65" height="65" viewBox="0 0 65 65" fill="none" xmlns="http://www.w3.org/2000/svg">
<path d="M65 32.5C65 50.4493 50.4493 65 32.5 65C14.5507 65 0 50.4493 0 32.5C0 14.5507 14.5507 0 32.5 0C50.4493 0 65 14.5507 65 32.5Z" fill="#F92A47"/>
<path fill-rule="evenodd" clip-rule="evenodd" d="M32.5 63C49.3447 63 63 49.3447 63 32.5C63 15.6553 49.3447 2 32.5 2C15.6553 2 2 15.6553 2 32.5C2 49.3447 15.6553 63 32.5 63ZM32.5 65C50.4493 65 65 50.4493 65 32.5C65 14.5507 50.4493 0 32.5 0C14.5507 0 0 14.5507 0 32.5C0 50.4493 14.5507 65 32.5 65Z" fill="white"/>
<path fill-rule="evenodd" clip-rule="evenodd" d="M17 34.5034V39.1293C17 41.1429 18.6101 42.7551 20.5714 42.7551C21.2704 42.7551 21.8571 42.1785 21.8571 41.4422V32.1905C21.8571 31.4542 21.2704 30.8776 20.5714 30.8776C18.6101 30.8776 17 32.4897 17 34.5034ZM15 32.1905C15 22.7076 22.6 15 32 15C41.4 15 49 22.7076 49 32.1905V39.1293C49 41.9089 46.998 44.2324 44.3538 44.678C43.9184 47.3384 41.6319 49.381 38.8571 49.381H33.3765L30.9567 50.5768C30.1841 50.9586 29.2538 50.8025 28.6481 50.1896L28.4029 49.9415C27.5223 49.0504 27.6684 47.5783 28.707 46.8777L28.901 46.7468C29.4137 46.4009 30.0578 46.3117 30.6453 46.5052L33.3033 47.381H38.8571C40.5457 47.381 41.9739 46.1861 42.3385 44.5688C41.0548 44.1142 40.1429 42.8794 40.1429 41.4422V32.1905C40.1429 30.372 41.6028 28.8776 43.4286 28.8776C44.723 28.8776 45.9111 29.322 46.8546 30.0664C45.8339 22.6743 39.5631 17 32 17C24.4369 17 18.1661 22.6743 17.1454 30.0664C18.0889 29.322 19.277 28.8776 20.5714 28.8776C22.3972 28.8776 23.8571 30.372 23.8571 32.1905V41.4422C23.8571 43.2607 22.3972 44.7551 20.5714 44.7551C17.4833 44.7551 15 42.2251 15 39.1293V32.1905ZM47 34.5034C47 32.4897 45.3899 30.8776 43.4286 30.8776C42.7296 30.8776 42.1429 31.4542 42.1429 32.1905V41.4422C42.1429 42.1785 42.7296 42.7551 43.4286 42.7551C45.3899 42.7551 47 41.1429 47 39.1293V34.5034ZM30.5103 48.5665L30.0194 48.4048L29.8255 48.5357L30.0706 48.7838L30.5103 48.5665Z" fill="white"/>
</svg>
