<svg width="32" height="24" viewBox="0 0 32 24" fill="none" xmlns="http://www.w3.org/2000/svg">
<path d="M28.8642 1.33331H3.1332C2.13844 1.33331 1.33203 2.19048 1.33203 3.24784V20.7521C1.33203 21.8095 2.13844 22.6666 3.1332 22.6666H28.8642C29.859 22.6666 30.6654 21.8095 30.6654 20.7521V3.24784C30.6654 2.19048 29.859 1.33331 28.8642 1.33331Z" fill="white" stroke="#D6DAE2"/>
<path fill-rule="evenodd" clip-rule="evenodd" d="M6.8167 11.9763C6.88125 12.0039 6.93982 12.039 6.98047 12.0842C7.01155 12.1181 7.03546 12.1533 7.05578 12.1922C7.11316 12.3026 7.12392 12.4181 7.12273 12.4947C7.12273 12.5499 7.11555 12.585 7.11555 12.585C7.11555 12.585 7.11197 12.6152 7.10599 12.6629C7.09165 12.7721 7.06415 12.9779 7.03666 13.1499C7.01155 13.3055 6.98166 13.4335 6.98166 13.4335C6.98166 13.4335 6.90874 13.7787 6.63619 13.9306C6.36364 14.0824 5.97872 14.0661 5.97872 14.0661L4.99132 14.0611L4.79049 15.3414H4.28125L4.82635 11.8846H5.43481H6.25247C6.25247 11.8846 6.29072 11.8846 6.35049 11.8872C6.41504 11.8897 6.50589 11.8972 6.59913 11.9148C6.67325 11.9286 6.74856 11.9487 6.8167 11.9763ZM6.48318 13.3068C6.54295 12.9779 6.58838 12.7005 6.58838 12.6942C6.58838 12.6936 6.58861 12.6918 6.58898 12.6889C6.59081 12.6746 6.59594 12.6348 6.59196 12.5888C6.58838 12.5511 6.57881 12.5085 6.55371 12.4758C6.53458 12.4507 6.47481 12.4344 6.3995 12.4244C6.31224 12.4118 6.20585 12.4081 6.12576 12.4068C6.05523 12.4055 6.00502 12.4068 6.00502 12.4068L5.25789 12.4043L5.07619 13.5528L5.90102 13.5553C5.90102 13.5553 6.0887 13.5628 6.26323 13.5239C6.36842 13.5001 6.46047 13.4323 6.48318 13.3068ZM10.8954 12.8461L9.02581 12.8486L8.9505 13.3356H10.1471L8.64806 14.8431L8.56677 15.3414L10.4997 15.3401L10.5762 14.8581L9.26369 14.8607L10.8273 13.2929L10.8954 12.8461ZM13.4309 11.8846H13.921L13.3723 15.3414L12.881 15.3401L13.4309 11.8846ZM16.5162 12.8474L16.0464 12.8486L16.2855 15.3414L16.8545 15.3389L17.5849 13.5942L17.7522 15.3389H18.3308L19.366 12.8474H18.8783L18.1563 14.6084L17.9853 12.8461L17.4056 12.8448L16.6824 14.6021L16.5162 12.8474ZM11.9486 12.8147C12.1506 12.8122 12.3885 12.8223 12.5259 12.8687C12.9348 13.0093 12.991 13.367 12.9121 13.8364L12.8439 14.2506L11.2481 14.2557C11.2481 14.2557 11.217 14.3322 11.2038 14.6259C11.2026 14.6335 11.2026 14.6385 11.2026 14.6423C11.1804 14.8827 11.433 14.8876 11.5109 14.8891C11.5168 14.8892 11.5217 14.8893 11.5254 14.8895L11.5415 14.8904C11.6056 14.8939 11.7499 14.9017 12 14.872C12.2749 14.8393 12.3024 14.4866 12.3024 14.4866L12.8104 14.4854L12.7794 14.6197L12.7786 14.623C12.7745 14.6416 12.7577 14.7172 12.7112 14.8217C12.661 14.9347 12.5905 15.0301 12.5905 15.0301C12.5905 15.0301 12.4327 15.251 12.1339 15.3251C11.835 15.3991 11.4381 15.3665 11.4381 15.3665C11.4381 15.3665 11.2493 15.3715 11.0269 15.2811C10.8046 15.192 10.7436 15 10.7089 14.7941C10.6743 14.587 10.7914 13.9682 10.7914 13.9682C10.7914 13.9682 10.85 13.4084 11.0472 13.1524C11.2445 12.8963 11.5911 12.8436 11.5911 12.8436C11.6641 12.8273 11.7537 12.8172 11.9486 12.8147ZM11.3258 13.7762L12.4196 13.7774C12.4196 13.7774 12.4602 13.5716 12.4219 13.436C12.4052 13.3783 12.343 13.3394 12.2773 13.3256C12.0801 13.2829 11.8374 13.3017 11.7465 13.3105C11.6557 13.3193 11.5589 13.3306 11.4824 13.3908C11.407 13.4511 11.3688 13.5942 11.3688 13.5942L11.3258 13.7762ZM15.5372 12.87C15.3997 12.8235 15.1618 12.8135 14.9598 12.816C14.7649 12.8185 14.6753 12.8285 14.6024 12.8448C14.6024 12.8448 14.2557 12.8976 14.0584 13.1536C13.8612 13.4097 13.8026 13.9695 13.8026 13.9695C13.8026 13.9695 13.6855 14.5883 13.7201 14.7954C13.7548 15.0012 13.8158 15.1933 14.0381 15.2824C14.2605 15.3728 14.4493 15.3677 14.4493 15.3677C14.4493 15.3677 14.8462 15.4004 15.1451 15.3263C15.4439 15.2523 15.6017 15.0314 15.6017 15.0314C15.6017 15.0314 15.6722 14.936 15.7224 14.823C15.7689 14.7184 15.7857 14.6429 15.7898 14.6243L15.7906 14.6209L15.8217 14.4866L15.3136 14.4879C15.3136 14.4879 15.2861 14.8406 15.0112 14.8732C14.7727 14.9016 14.6304 14.8958 14.5621 14.893C14.552 14.8926 14.5436 14.8922 14.5366 14.892C14.533 14.8919 14.5283 14.8917 14.5227 14.8917C14.4455 14.89 14.1916 14.8846 14.2139 14.6448C14.2139 14.641 14.2139 14.636 14.215 14.6285C14.2282 14.3347 14.2593 14.2582 14.2593 14.2582L15.8551 14.2532L15.9233 13.8389C16.0022 13.3683 15.946 13.0093 15.5372 12.87ZM15.426 13.7774L14.3322 13.7762L14.3752 13.5942C14.3752 13.5942 14.4135 13.4511 14.4888 13.3908C14.5641 13.3306 14.6621 13.3193 14.753 13.3105C14.8438 13.3017 15.0865 13.2829 15.2837 13.3256C15.3495 13.3394 15.4116 13.3783 15.4284 13.436C15.4666 13.5703 15.426 13.7774 15.426 13.7774ZM19.9303 12.8486L20.2447 14.6711L21.1328 12.8474L21.6325 12.8524L20.3522 15.4569C20.3522 15.4569 20.1203 15.9288 19.9769 16.048C19.8334 16.1673 19.745 16.2213 19.6278 16.2338L19.5964 16.2372C19.5011 16.2478 19.4522 16.2531 19.3505 16.2338L19.231 16.2112L19.3051 15.7456C19.3051 15.7456 19.5035 15.7845 19.6207 15.7355C19.739 15.6866 19.8334 15.4757 19.8334 15.4757L19.8932 15.3703L19.4306 12.8474L19.9303 12.8486ZM7.85909 13.0193C8.01808 12.9277 8.20456 12.8461 8.40181 12.8461H8.68631L8.60502 13.3281L8.33486 13.3293C7.94755 13.3293 7.74912 13.6745 7.7013 13.9532L7.46939 15.3276H6.9458L7.3642 12.8461H7.88659L7.85909 13.0193Z" fill="#D13239"/>
<path fill-rule="evenodd" clip-rule="evenodd" d="M17.9915 9.50867L18.5988 8.22714C18.5988 8.22714 19.9293 8.19953 21.0768 8.38655C22.2244 8.57232 23.274 8.85849 23.2513 8.87105L20.3417 10.4689C20.3417 10.4689 19.6615 10.017 18.8175 9.73963C18.3394 9.59152 17.9915 9.50867 17.9915 9.50867ZM14.1447 8.90619L14.2714 9.65302C14.2714 9.65302 14.8572 9.48985 15.5589 9.40198C16.4602 9.2727 17.4201 9.41077 17.4201 9.41077L17.7811 8.25727C17.7811 8.25727 16.6897 8.33383 15.8661 8.49449C15.0437 8.65516 14.1447 8.90619 14.1447 8.90619ZM11.4359 10.8768L10.7079 10.3622C10.7079 10.3622 11.3666 9.96932 12.2428 9.60281C13.1179 9.2363 13.5853 9.08317 13.5853 9.08317L13.7335 9.81243C13.7335 9.81243 12.8907 10.1086 12.4078 10.3484C11.9081 10.5718 11.4359 10.8768 11.4359 10.8768ZM9.63206 12.1696H8.0625C8.0625 12.1696 8.67455 11.6776 8.98296 11.4655C9.30094 11.2358 10.0505 10.7488 10.0505 10.7488L10.9374 11.1843C10.9374 11.1843 10.4832 11.4868 10.2334 11.6789C9.98351 11.8709 9.63206 12.1696 9.63206 12.1696ZM21.8156 13.096L22.3308 13.0972L22.3619 12.8876C22.3619 12.8876 22.4169 12.5085 22.54 12.4357C22.5795 12.4119 22.6428 12.3905 22.7157 12.3767C22.8508 12.3516 23.0218 12.3491 23.1616 12.3541L23.1732 12.3546C23.3786 12.3618 23.4609 12.3647 23.6745 12.3905C23.892 12.4169 23.837 12.6378 23.837 12.6378L23.794 12.9679C23.794 12.9679 23.7749 13.116 23.7247 13.2077C23.6804 13.2893 23.5585 13.3445 23.488 13.3683C23.3182 13.4261 22.7373 13.5817 22.7373 13.5817L22.2806 13.7198C22.2806 13.7198 21.9997 13.8051 21.8431 13.9871C21.6853 14.1704 21.6231 14.3775 21.6016 14.4854C21.5801 14.5934 21.4594 15.3402 21.4594 15.3402L23.9243 15.3415L24.0068 14.8243L22.0571 14.8268L22.0917 14.616C22.0917 14.616 22.1145 14.3988 22.1981 14.3273C22.2022 14.3238 22.2059 14.3201 22.2099 14.3162C22.2319 14.2947 22.2616 14.2657 22.393 14.2168C22.4862 14.1817 22.8042 14.0926 22.8042 14.0926L23.5394 13.8817C23.5394 13.8817 23.941 13.7737 24.0988 13.5428C24.2566 13.3131 24.3176 12.8725 24.3176 12.8725C24.3176 12.8725 24.3606 12.4445 24.3271 12.3102C24.2949 12.1759 24.1741 12.0153 24.0271 11.9462C23.8801 11.8772 23.7271 11.837 23.2836 11.8433C22.8401 11.8496 22.6201 11.8709 22.3954 11.9588C22.1706 12.0454 22.0403 12.2035 21.9579 12.4269C21.8682 12.6391 21.8156 13.096 21.8156 13.096ZM26.4562 14.0574L26.8016 11.8835H26.1896L24.2841 14.0323L24.198 14.5771H25.8644L25.7425 15.3402L26.2541 15.3415L26.3749 14.5771L26.8471 14.5783L26.9319 14.0574H26.4562ZM25.9469 14.0587L24.8699 14.0574L26.1812 12.5901L25.9469 14.0587ZM21.5024 11.3262L20.8629 10.8166L24.5065 9.34048L24.5346 9.35395C24.9985 9.57505 25.2568 9.69816 25.7114 10.0082C25.8931 10.1325 26.1346 10.3308 26.1956 10.3936C26.3617 10.568 26.5207 10.7362 26.608 10.8944C26.7478 11.1479 26.7586 11.3262 26.7586 11.3262H21.5024Z" fill="#B3B2B1"/>
</svg>
