<svg width="25" height="22" viewBox="0 0 25 22" fill="none" xmlns="http://www.w3.org/2000/svg">
<path d="M11.7586 4.31034H25M11.7586 17.5517H25M2.65517 1H5.96552C6.87964 1 7.62069 1.74105 7.62069 2.65517V5.96552C7.62069 6.87964 6.87964 7.62069 5.96552 7.62069H2.65517C1.74105 7.62069 1 6.87964 1 5.96552V2.65517C1 1.74105 1.74105 1 2.65517 1ZM2.65517 14.2414H5.96552C6.87964 14.2414 7.62069 14.9824 7.62069 15.8966V19.2069C7.62069 20.121 6.87964 20.8621 5.96552 20.8621H2.65517C1.74105 20.8621 1 20.121 1 19.2069V15.8966C1 14.9824 1.74105 14.2414 2.65517 14.2414Z" stroke="#25293D"/>
</svg>
