<svg width="65" height="65" viewBox="0 0 65 65" fill="none" xmlns="http://www.w3.org/2000/svg">
<path d="M65 32.5C65 50.4493 50.4493 65 32.5 65C14.5507 65 0 50.4493 0 32.5C0 14.5507 14.5507 0 32.5 0C50.4493 0 65 14.5507 65 32.5Z" fill="#F92A47"/>
<path fill-rule="evenodd" clip-rule="evenodd" d="M32.5 63C49.3447 63 63 49.3447 63 32.5C63 15.6553 49.3447 2 32.5 2C15.6553 2 2 15.6553 2 32.5C2 49.3447 15.6553 63 32.5 63ZM32.5 65C50.4493 65 65 50.4493 65 32.5C65 14.5507 50.4493 0 32.5 0C14.5507 0 0 14.5507 0 32.5C0 50.4493 14.5507 65 32.5 65Z" fill="white"/>
<path fill-rule="evenodd" clip-rule="evenodd" d="M18.2857 22C17.6211 22 17 22.5803 17 23.4L17 27.2H47V23.4C47 22.5803 46.379 22 45.7143 22L18.2857 22ZM49 23.4C49 21.5688 47.5744 20 45.7143 20L18.2857 20C16.4256 20 15 21.5688 15 23.4L15 42.6C15 44.4312 16.4256 46 18.2857 46L45.7143 46C47.5744 46 49 44.4312 49 42.6V23.4ZM47 29.2H17L17 42.6C17 43.4197 17.6211 44 18.2857 44L45.7143 44C46.379 44 47 43.4197 47 42.6V29.2Z" fill="white"/>
<path fill-rule="evenodd" clip-rule="evenodd" d="M19.0001 37.9999C19.0001 37.4476 19.4478 36.9999 20.0001 36.9999H33.7144C34.2667 36.9999 34.7144 37.4476 34.7144 37.9999C34.7144 38.5522 34.2667 38.9999 33.7144 38.9999H20.0001C19.4478 38.9999 19.0001 38.5522 19.0001 37.9999ZM37.2858 37.9999C37.2858 37.4476 37.7336 36.9999 38.2858 36.9999H45.143C45.6953 36.9999 46.143 37.4476 46.143 37.9999C46.143 38.5522 45.6953 38.9999 45.143 38.9999H38.2858C37.7336 38.9999 37.2858 38.5522 37.2858 37.9999Z" fill="white"/>
</svg>
