<svg width="56" height="56" viewBox="0 0 56 56" fill="none" xmlns="http://www.w3.org/2000/svg">
<path d="M56.0009 25.2778C56.0009 39.2383 44.6836 50.5556 30.7231 50.5556C16.7626 50.5556 5.44531 39.2383 5.44531 25.2778C5.44531 11.3172 16.7626 0 30.7231 0C44.6836 0 56.0009 11.3172 56.0009 25.2778Z" fill="#FDAFBA"/>
<path fill-rule="evenodd" clip-rule="evenodd" d="M25.2778 54.4445C38.3792 54.4445 49 43.8237 49 30.7222C49 17.6208 38.3792 7.00001 25.2778 7.00001C12.1764 7.00001 1.55556 17.6208 1.55556 30.7222C1.55556 43.8237 12.1764 54.4445 25.2778 54.4445ZM25.2778 56C39.2383 56 50.5556 44.6828 50.5556 30.7222C50.5556 16.7617 39.2383 5.44446 25.2778 5.44446C11.3172 5.44446 0 16.7617 0 30.7222C0 44.6828 11.3172 56 25.2778 56Z" fill="#25293D"/>
<path fill-rule="evenodd" clip-rule="evenodd" d="M24.5011 17.8889C24.5011 17.4593 24.8493 17.1111 25.2789 17.1111C32.7961 17.1111 38.89 23.205 38.89 30.7222C38.89 38.2394 32.7961 44.3333 25.2789 44.3333C17.7617 44.3333 11.6678 38.2394 11.6678 30.7222C11.6678 26.3801 13.837 22.5136 17.0012 20.0222H12.0012C11.5848 19.9167 11.3328 19.4936 11.4382 19.0772C11.5437 18.6608 11.9668 18.4088 12.3832 18.5142L19.0012 18.6666C19.4176 18.7721 19.6067 19.0836 19.5012 19.5L19.0012 26C18.8958 26.4164 18.4727 26.6685 18.0563 26.563C17.6399 26.4575 17.3878 26.0345 17.4933 25.6181L18.0012 21C15.4171 23.2118 13.2233 27.056 13.2233 30.7222C13.2233 37.3803 18.6208 42.7778 25.2789 42.7778C31.937 42.7778 37.3344 37.3803 37.3344 30.7222C37.3344 24.0641 31.937 18.6666 25.2789 18.6666C24.8493 18.6666 24.5011 18.3184 24.5011 17.8889Z" fill="#25293D"/>
<path fill-rule="evenodd" clip-rule="evenodd" d="M32.4441 26.6767C32.7454 26.9829 32.7415 27.4753 32.4353 27.7766L24.7759 35.3134L19.6776 30.2966C19.3714 29.9953 19.3674 29.5029 19.6687 29.1967C19.97 28.8905 20.4624 28.8866 20.7686 29.1878L24.7759 33.1311L31.3442 26.6678C31.6504 26.3666 32.1429 26.3705 32.4441 26.6767Z" fill="#25293D"/>
</svg>
