<svg width="65" height="66" viewBox="0 0 65 66" fill="none" xmlns="http://www.w3.org/2000/svg">
<circle cx="32.5" cy="32.915" r="32" stroke="white"/>
<path d="M26.5714 28.2722H29.1429M36.8571 38.5579H39.4286M39.4286 26.9865L26.5714 39.8436M31.2037 16.1591L28.3005 19.0623C27.8241 19.5387 27.178 19.8063 26.5043 19.8063H21.9316C20.5286 19.8063 19.3913 20.9436 19.3913 22.3466V26.9193C19.3913 27.593 19.1236 28.2392 18.6472 28.7156L15.744 31.6188C14.752 32.6108 14.752 34.2193 15.744 35.2113L18.6472 38.1145C19.1236 38.5909 19.3913 39.237 19.3913 39.9108V44.4835C19.3913 45.8864 20.5286 47.0238 21.9316 47.0238H26.5043C27.178 47.0238 27.8241 47.2914 28.3005 47.7678L31.2037 50.671C32.1958 51.663 33.8042 51.6631 34.7963 50.671L37.6995 47.7678C38.1759 47.2914 38.822 47.0238 39.4957 47.0238H44.0684C45.4714 47.0238 46.6087 45.8864 46.6087 44.4835V39.9108C46.6087 39.237 46.8764 38.5909 47.3528 38.1145L50.256 35.2113C51.248 34.2193 51.248 32.6108 50.256 31.6188L47.3528 28.7156C46.8764 28.2392 46.6087 27.593 46.6087 26.9193V22.3466C46.6087 20.9436 45.4714 19.8063 44.0684 19.8063H39.4957C38.822 19.8063 38.1759 19.5387 37.6995 19.0623L34.7963 16.1591C33.8042 15.167 32.1958 15.167 31.2037 16.1591Z" stroke="white"/>
</svg>
