<svg width="16" height="18" viewBox="0 0 16 18" fill="none" xmlns="http://www.w3.org/2000/svg">
<path d="M14.3266 1.64717C12.097 -0.549058 8.46628 -0.549058 6.23906 1.64717L0.0615604 7.72761C0.0213238 7.76724 2.18814e-05 7.82087 2.18814e-05 7.87682C2.18814e-05 7.93278 0.0213238 7.9864 0.0615604 8.02603L0.934931 8.88634C0.974853 8.92549 1.02889 8.94747 1.08523 8.94747C1.14156 8.94747 1.1956 8.92549 1.23552 8.88634L7.41303 2.80591C8.17989 2.05051 9.20001 1.63552 10.284 1.63552C11.368 1.63552 12.3882 2.05051 13.1527 2.80591C13.9195 3.5613 14.3408 4.56615 14.3408 5.63163C14.3408 6.69944 13.9195 7.70196 13.1527 8.45735L6.85681 14.6567L5.8367 15.6616C4.88285 16.6011 3.33256 16.6011 2.37872 15.6616C1.91718 15.2069 1.66392 14.6031 1.66392 13.9596C1.66392 13.3161 1.91718 12.7123 2.37872 12.2576L8.62486 6.10725C8.78344 5.95337 8.99172 5.86711 9.21421 5.86711H9.21657C9.43906 5.86711 9.64497 5.95337 9.80119 6.10725C9.95977 6.26345 10.045 6.46862 10.045 6.68778C10.045 6.9046 9.9574 7.10977 9.80119 7.26365L4.69587 12.2879C4.65563 12.3276 4.63433 12.3812 4.63433 12.4371C4.63433 12.4931 4.65563 12.5467 4.69587 12.5864L5.56924 13.4467C5.60916 13.4858 5.6632 13.5078 5.71954 13.5078C5.77587 13.5078 5.82991 13.4858 5.86983 13.4467L10.9728 8.42005C11.4438 7.95609 11.7018 7.34059 11.7018 6.68545C11.7018 6.03031 11.4414 5.41247 10.9728 4.95084C10 3.99262 8.41894 3.99495 7.44616 4.95084L6.84025 5.55003L1.20239 11.1012C0.819738 11.4759 0.51642 11.9218 0.310022 12.4128C0.103624 12.9039 -0.00174596 13.4304 2.18814e-05 13.9619C2.18814e-05 15.0414 0.428423 16.0556 1.20239 16.818C2.00475 17.606 3.05564 18 4.10652 18C5.15741 18 6.20829 17.606 7.00829 16.818L14.3266 9.61376C15.4035 8.55061 16 7.13542 16 5.63163C16.0024 4.12551 15.4059 2.71032 14.3266 1.64717Z" fill="#25293D"/>
</svg>
