<svg width="51" height="38" viewBox="0 0 51 38" fill="none" xmlns="http://www.w3.org/2000/svg">
<path d="M1.50404 29.9114V37.8861H0V29.9114H1.50404ZM0.915027 29.9114H2.47166C3.05359 29.9114 3.54791 30.0177 3.95465 30.2304C4.33944 30.4223 4.6646 30.7309 4.89073 31.119C5.10801 31.4988 5.21669 31.9431 5.21678 32.4519C5.22533 32.9187 5.11233 33.3786 4.89073 33.7791C4.66601 34.1698 4.3406 34.4807 3.95465 34.6734C3.54792 34.8861 3.05359 34.9925 2.47166 34.9924H0.915027V33.6936H2.37699C2.61339 33.7001 2.84831 33.6516 3.0659 33.5513C3.249 33.4653 3.40452 33.3226 3.51291 33.1411C3.6163 32.9451 3.67069 32.7232 3.67069 32.4975C3.67069 32.2717 3.6163 32.0498 3.51291 31.8538C3.40443 31.6724 3.24893 31.5297 3.0659 31.4436C2.84828 31.3435 2.61338 31.2949 2.37699 31.3013H0.915027V29.9114ZM3.26048 34.1722L5.65852 37.8861H3.88103L1.6723 34.1722H3.26048Z" fill="#F92A47"/>
<path d="M7.76203 37.8861H6.39475V29H7.76203V37.8861ZM9.33444 33.8987C9.21168 33.7164 9.00659 33.6253 8.71917 33.6253C8.54335 33.6218 8.3696 33.6669 8.21432 33.7563C8.07024 33.8402 7.95291 33.9692 7.87773 34.1266C7.79691 34.3034 7.7572 34.499 7.76203 34.6962H7.48858C7.48303 34.3099 7.5492 33.9264 7.68316 33.5683C7.80316 33.2474 8.00578 32.9706 8.26689 32.7709C8.52622 32.5735 8.84526 32.4747 9.22402 32.4747C9.60266 32.4747 9.91468 32.5506 10.1601 32.7025C10.4069 32.8563 10.5994 33.0948 10.707 33.3804C10.8262 33.6805 10.8858 34.047 10.8858 34.4797V37.8861H9.5185V34.6962C9.5185 34.3469 9.45715 34.0811 9.33444 33.8987Z" fill="#F92A47"/>
<path d="M12.4108 30.0196C12.5693 29.8651 12.7761 29.7816 12.9893 29.7861C13.201 29.781 13.4064 29.8647 13.5625 30.0196C13.6372 30.0962 13.6968 30.1885 13.7375 30.2908C13.7782 30.3932 13.7992 30.5034 13.7992 30.6149C13.7992 30.7263 13.7782 30.8366 13.7375 30.9389C13.6968 31.0413 13.6372 31.1336 13.5625 31.2101C13.4078 31.3683 13.2019 31.4543 12.9893 31.4494C12.7752 31.4537 12.5678 31.3679 12.4108 31.2101C12.3346 31.1345 12.2737 31.0425 12.232 30.9401C12.1904 30.8376 12.1689 30.7268 12.1689 30.6149C12.1689 30.5029 12.1904 30.3922 12.232 30.2897C12.2737 30.1872 12.3346 30.0952 12.4108 30.0196ZM13.6414 32.6456V37.8861H12.3161V32.6456H13.6414Z" fill="#F92A47"/>
<path d="M18.0167 33.8987C17.8905 33.7164 17.6872 33.6253 17.4067 33.6253C17.2309 33.6218 17.0571 33.6669 16.9019 33.7563C16.7578 33.8402 16.6404 33.9692 16.5653 34.1265C16.4844 34.3034 16.4447 34.499 16.4496 34.6962V37.8861H15.0823V32.6456H16.4496V33.443C16.5828 33.1631 16.7848 32.9285 17.0333 32.7652C17.2752 32.6096 17.568 32.5318 17.9116 32.5316C18.4864 32.5316 18.9141 32.7082 19.1947 33.0614C19.4751 33.4146 19.6153 33.9063 19.6154 34.5367V37.8861H18.206V34.6962C18.206 34.3469 18.1429 34.0811 18.0167 33.8987Z" fill="#F92A47"/>
<path d="M20.9878 33.8304C21.2202 33.4227 21.5512 33.0917 21.9449 32.8734C22.3727 32.6485 22.842 32.5316 23.3175 32.5316C23.793 32.5316 24.2623 32.6485 24.6901 32.8734C25.0838 33.0918 25.4147 33.4228 25.6472 33.8304C25.8821 34.2405 25.9995 34.719 25.9995 35.2658C26.0086 35.7688 25.8865 36.2644 25.6472 36.6956C25.416 37.1057 25.0848 37.4388 24.6901 37.6582C24.2623 37.8831 23.793 38 23.3175 38C22.842 38 22.3727 37.8831 21.9449 37.6582C21.5501 37.4389 21.2189 37.1058 20.9878 36.6956C20.7485 36.2644 20.6264 35.7688 20.6355 35.2658C20.6355 34.719 20.7529 34.2405 20.9878 33.8304ZM22.1974 36.0462C22.3076 36.2635 22.4697 36.4448 22.6668 36.5711C22.8638 36.6974 23.0886 36.764 23.3175 36.764C23.5465 36.764 23.7712 36.6974 23.9683 36.5711C24.1653 36.4448 24.3274 36.2635 24.4377 36.0462C24.5569 35.8067 24.6167 35.5378 24.6112 35.2658C24.6162 34.992 24.5565 34.7214 24.4377 34.4797C24.3301 34.261 24.1679 34.0794 23.9696 33.9557C23.77 33.8361 23.5456 33.7734 23.3175 33.7734C23.0894 33.7734 22.865 33.8361 22.6654 33.9557C22.4671 34.0794 22.3049 34.261 22.1974 34.4797C22.0785 34.7214 22.0188 34.992 22.0238 35.2658C22.0184 35.5378 22.0781 35.8067 22.1974 36.0462Z" fill="#F92A47"/>
<path d="M27.5767 35.8315C27.6996 36.0743 27.8756 36.2742 28.0864 36.4105C28.3034 36.5512 28.5478 36.6234 28.7957 36.6199C29.003 36.6205 29.209 36.581 29.4052 36.5029C29.5951 36.4286 29.774 36.3206 29.9359 36.1826C30.0852 36.0579 30.2091 35.8959 30.2985 35.7083V37.3468C30.1081 37.5421 29.8841 37.6871 29.6417 37.7718C29.3369 37.8804 29.0196 37.9323 28.7011 37.9258C28.2219 37.9345 27.7479 37.8077 27.3192 37.5562C26.9204 37.3218 26.5856 36.9612 26.3525 36.5152C26.1134 36.0489 25.9914 35.513 26.0005 34.9691C26.0005 34.3777 26.1178 33.8603 26.3525 33.4167C26.5869 32.9735 26.9215 32.6153 27.3192 32.3819C27.7479 32.1304 28.2219 32.0036 28.7011 32.0123C29.0196 32.0058 29.3369 32.0577 29.6417 32.1663C29.8821 32.2504 30.1056 32.3908 30.2985 32.579V34.2176C30.2071 34.0277 30.0794 33.8653 29.9254 33.7432C29.7595 33.6071 29.5771 33.5011 29.3842 33.429C29.1942 33.3563 28.9956 33.3189 28.7957 33.3182C28.5506 33.3152 28.309 33.3875 28.0952 33.528C27.8813 33.6685 27.7025 33.8723 27.5767 34.119C27.4481 34.3765 27.3827 34.6707 27.3876 34.9691C27.3818 35.2715 27.4472 35.5699 27.5767 35.8315Z" fill="#25293D"/>
<path d="M32.4001 37.5562C32.0191 37.3228 31.7035 36.9657 31.4911 36.5275C31.2773 36.0882 31.1705 35.5688 31.1706 34.9691C31.1706 34.3614 31.2775 33.8378 31.4911 33.3983C31.7028 32.961 32.0187 32.6057 32.4001 32.3758C32.7924 32.1336 33.2548 32.0124 33.7873 32.0123C34.3196 32.0123 34.7732 32.1253 35.1481 32.3511C35.5142 32.567 35.8136 32.9116 36.0045 33.3367C36.2006 33.7679 36.2987 34.2874 36.2987 34.8951C36.2987 34.9691 36.297 35.0471 36.2935 35.1292C36.2912 35.1952 36.286 35.261 36.2777 35.3263H31.9482V34.3408H35.0903L34.7225 34.9074C34.756 34.8439 34.7825 34.7756 34.8013 34.7042C34.823 34.635 34.8354 34.5623 34.8381 34.4886C34.8441 34.2415 34.7991 33.9963 34.7067 33.7741C34.6219 33.5804 34.4927 33.4183 34.3337 33.3059C34.1619 33.1876 33.9654 33.1279 33.7662 33.1334C33.5316 33.1234 33.2997 33.1941 33.0989 33.3367C32.9125 33.4835 32.7693 33.6944 32.6891 33.9403C32.5865 34.2571 32.5348 34.5933 32.5367 34.9321C32.5291 35.2603 32.5773 35.587 32.6786 35.893C32.763 36.1416 32.9119 36.3527 33.1042 36.4967C33.3101 36.6417 33.5472 36.7144 33.7873 36.7062C34.0552 36.7152 34.3207 36.6453 34.5596 36.5029C34.7802 36.3595 34.9636 36.1487 35.0903 35.893L36.2777 36.3242C36.0493 36.8299 35.7007 37.2471 35.2742 37.5254C34.8573 37.7924 34.3581 37.9259 33.7767 37.9258C33.2513 37.9258 32.7924 37.8026 32.4001 37.5562Z" fill="#25293D"/>
<path d="M38.6631 37.8026H37.3285V32.1355H38.6631V37.8026ZM39.8033 33.5708C39.6925 33.5136 39.5722 33.4862 39.4512 33.4907C39.2964 33.4858 39.1446 33.5422 39.0204 33.6509C38.8956 33.7669 38.8025 33.9232 38.7524 34.1005C38.6887 34.3248 38.6585 34.5603 38.6631 34.7966L38.2848 34.3531C38.278 33.9381 38.3535 33.5268 38.5055 33.1519C38.6387 32.8229 38.8368 32.5357 39.0834 32.3141C39.2923 32.117 39.551 32.0065 39.819 32C39.99 31.9991 40.1594 32.0367 40.3182 32.1108C40.4693 32.1792 40.6018 32.2941 40.7018 32.4435L40.0817 33.7987C39.999 33.707 39.9052 33.6302 39.8033 33.5708Z" fill="#25293D"/>
<path d="M41.2955 33.4167C41.5276 32.9759 41.8584 32.618 42.2518 32.3819C42.6792 32.1387 43.148 32.0123 43.6231 32.0123C44.0982 32.0123 44.5671 32.1387 44.9945 32.3819C45.3878 32.6181 45.7185 32.976 45.9508 33.4167C46.1854 33.8603 46.3028 34.3777 46.3028 34.9691C46.3118 35.513 46.1898 36.0489 45.9508 36.5152C45.7198 36.9588 45.3889 37.319 44.9945 37.5562C44.5671 37.7994 44.0982 37.9258 43.6231 37.9258C43.148 37.9258 42.6791 37.7994 42.2518 37.5562C41.8573 37.3191 41.5264 36.9589 41.2955 36.5152C41.0564 36.0489 40.9343 35.513 40.9434 34.9691C40.9434 34.3777 41.0608 33.8603 41.2955 33.4167ZM42.504 35.813C42.6141 36.048 42.7761 36.2441 42.9729 36.3806C43.1698 36.5172 43.3944 36.5892 43.6231 36.5892C43.8519 36.5892 44.0764 36.5172 44.2733 36.3806C44.4702 36.2441 44.6321 36.048 44.7423 35.813C44.8614 35.554 44.9211 35.2632 44.9157 34.9691C44.9207 34.673 44.861 34.3804 44.7423 34.119C44.6348 33.8824 44.4727 33.6861 44.2746 33.5523C44.0752 33.423 43.851 33.3552 43.6231 33.3552C43.3952 33.3552 43.171 33.423 42.9716 33.5523C42.7735 33.686 42.6114 33.8824 42.504 34.119C42.3852 34.3804 42.3256 34.673 42.3306 34.9691C42.3251 35.2632 42.3848 35.554 42.504 35.813Z" fill="#25293D"/>
<path d="M48.1312 36.3797C48.2866 36.5034 48.4542 36.6048 48.6303 36.6815C48.7732 36.7441 48.9243 36.7775 49.0769 36.7801C49.259 36.7801 49.3992 36.7328 49.4973 36.6384C49.5458 36.5915 49.5843 36.532 49.6099 36.4647C49.6354 36.3973 49.6472 36.3239 49.6444 36.2503C49.6472 36.1114 49.6039 35.9767 49.5235 35.8745C49.4229 35.7559 49.3032 35.6617 49.1715 35.5974C48.9795 35.4986 48.783 35.4122 48.583 35.3386C48.3589 35.2402 48.1411 35.1228 47.9315 34.9875C47.725 34.8559 47.547 34.6705 47.4113 34.4455C47.2747 34.2196 47.2064 33.9301 47.2064 33.5769C47.1985 33.269 47.28 32.9671 47.4376 32.7207C47.6 32.4795 47.8165 32.296 48.0629 32.1909C48.3434 32.0682 48.6409 32.0077 48.9403 32.0123C49.1997 32.0101 49.4581 32.0516 49.7074 32.1355C49.9381 32.214 50.1603 32.3235 50.3695 32.462C50.5654 32.5912 50.7457 32.7508 50.9054 32.9363L50.3064 33.9219C50.1283 33.6976 49.9163 33.5138 49.6812 33.3798C49.4617 33.2467 49.2189 33.175 48.9718 33.1704C48.8448 33.1622 48.7185 33.1986 48.6093 33.2751C48.5661 33.3097 48.5313 33.3568 48.5083 33.4118C48.4852 33.4669 48.4748 33.528 48.478 33.5892C48.4784 33.6515 48.4904 33.713 48.5131 33.7693C48.5358 33.8257 48.5686 33.8756 48.6093 33.9157C48.7209 34.0267 48.8492 34.1123 48.9876 34.1682C49.1521 34.2422 49.3395 34.3325 49.5498 34.4393C49.7974 34.5482 50.038 34.6779 50.2696 34.8274C50.4778 34.9584 50.6589 35.1414 50.8003 35.3633C50.9333 35.577 50.9999 35.8562 51 36.201C51 36.7677 50.8424 37.2092 50.5271 37.5254C50.2118 37.8415 49.7775 37.9996 49.224 37.9997C48.6177 38.0088 48.023 37.805 47.5164 37.4145C47.2971 37.2459 47.0913 37.0541 46.9017 36.8416L47.5637 35.8438C47.74 36.0403 47.9298 36.2196 48.1312 36.3797Z" fill="#25293D"/>
<path d="M23.0441 27C16.4589 20.982 8 18.884 8 18.884C8 18.884 14.6205 9.20184 13.6501 0.662011C14.8928 0.14172 17.2028 -0.154409 19.8228 0.0830385C18.9813 6.16615 15.9207 12.5401 15.8619 12.6939C19.9136 9.05579 22.7767 3.40039 23.5814 1.70129C25.4107 2.9505 26.8502 4.74849 27.7178 6.8677L16.9585 15.7192C16.9585 15.7192 21.8172 21.2585 23.0441 27Z" fill="#25293D"/>
<path d="M43 7.54055C42.9877 15.9474 40.2849 22.5883 35.5291 27L24.0231 23.0398C22.4664 19.4512 19.8462 16.0426 19.8462 16.0426L28.7863 8.82498C29.097 9.49591 29.5507 10.0805 30.1114 10.5321C30.672 10.9838 31.3241 11.2901 32.0158 11.4266C32.7074 11.5631 33.4195 11.5261 34.0953 11.3184C34.7711 11.1108 35.392 10.7384 35.9085 10.2307C36.0182 13.6825 34.1721 16.3737 34.1721 16.3737C38.5072 16.3277 43 7.54055 43 7.54055Z" fill="#25293D"/>
<path d="M26 16L31 17.6705L26.5449 18L26 16Z" fill="#F92A47"/>
</svg>
