<svg width="99" height="72" viewBox="0 0 99 72" fill="none" xmlns="http://www.w3.org/2000/svg">
<path d="M42.5534 72C23.9265 55.9519 0 50.3572 0 50.3572C0 50.3572 18.7264 24.5382 15.9818 1.76536C19.4967 0.37792 26.0308 -0.411756 33.4418 0.221436C31.0615 16.4431 22.4044 33.4401 22.2379 33.8505C33.6985 24.1488 41.797 9.0677 44.0732 4.53676C49.2474 7.86801 53.3192 12.6626 55.7733 18.3139L25.3398 41.9178C25.3398 41.9178 39.083 56.6892 42.5534 72Z" fill="white"/>
<path d="M99 20.1082C98.9653 42.5263 91.3202 60.2355 77.8681 72L45.3224 61.4394C40.9193 51.8699 33.5078 42.7802 33.5078 42.7802L58.7956 23.5333C59.6743 25.3224 60.9577 26.8813 62.5436 28.0857C64.1294 29.2901 65.974 30.1068 67.9303 30.4709C69.8867 30.8349 71.9008 30.7362 73.8124 30.1825C75.724 29.6289 77.4802 28.6356 78.9412 27.2818C79.2515 36.4868 74.0297 43.6633 74.0297 43.6633C86.2917 43.5404 99 20.1082 99 20.1082Z" fill="white"/>
<path d="M50 42L64 47.0114L51.5257 48L50 42Z" fill="#F92A47"/>
</svg>
