<svg width="128" height="29" viewBox="0 0 128 29" fill="none" xmlns="http://www.w3.org/2000/svg">
<path d="M52.2401 9.26692V20.3523H50V9.26692H52.2401ZM51.3628 9.26692H53.6812C54.5479 9.26692 55.2841 9.41472 55.8899 9.71031C56.463 9.97708 56.9473 10.4061 57.2841 10.9455C57.6077 11.4735 57.7695 12.0912 57.7697 12.7984C57.7824 13.4472 57.6141 14.0866 57.2841 14.6433C56.9494 15.1864 56.4647 15.6185 55.8899 15.8864C55.2841 16.1821 54.5479 16.33 53.6812 16.3299H51.3628V14.5245H53.5402C53.8923 14.5335 54.2422 14.466 54.5662 14.3266C54.8389 14.2071 55.0706 14.0088 55.232 13.7565C55.386 13.484 55.467 13.1756 55.467 12.8617C55.467 12.5479 55.386 12.2395 55.232 11.9669C55.0704 11.7148 54.8388 11.5165 54.5662 11.3968C54.2421 11.2576 53.8923 11.1901 53.5402 11.1989H51.3628V9.26692ZM54.856 15.1897L58.4276 20.3523H55.7803L52.4907 15.1897H54.856Z" fill="#F92A47"/>
<path d="M61.5605 20.3523H59.5241V8H61.5605V20.3523ZM63.9024 14.8096C63.7195 14.5562 63.4141 14.4295 62.986 14.4295C62.7241 14.4247 62.4654 14.4873 62.2341 14.6116C62.0195 14.7282 61.8448 14.9076 61.7328 15.1263C61.6124 15.3721 61.5533 15.6439 61.5605 15.9182H61.1532C61.1449 15.3812 61.2435 14.848 61.443 14.3503C61.6217 13.9042 61.9235 13.5195 62.3124 13.2418C62.6986 12.9674 63.1738 12.8301 63.7379 12.83C64.3018 12.83 64.7665 12.9356 65.132 13.1468C65.4997 13.3605 65.7863 13.6921 65.9466 14.0891C66.1241 14.5062 66.2128 15.0156 66.2129 15.6172V20.3523H64.1765V15.9182C64.1765 15.4326 64.0851 15.0631 63.9024 14.8096Z" fill="#F92A47"/>
<path d="M68.4842 9.41736C68.7202 9.20252 69.0282 9.08647 69.3457 9.09273C69.6611 9.08564 69.9669 9.20194 70.1995 9.41736C70.3108 9.52379 70.3995 9.65207 70.4601 9.79434C70.5207 9.93661 70.5519 10.0899 70.5519 10.2448C70.5519 10.3997 70.5207 10.553 70.4601 10.6952C70.3995 10.8375 70.3108 10.9658 70.1995 11.0722C69.9691 11.2921 69.6625 11.4116 69.3457 11.4048C69.0268 11.4107 68.718 11.2915 68.4842 11.0722C68.3706 10.9671 68.28 10.8393 68.2179 10.6968C68.1559 10.5544 68.1239 10.4004 68.1239 10.2448C68.1239 10.0892 68.1559 9.93521 68.2179 9.79276C68.28 9.65031 68.3706 9.52247 68.4842 9.41736ZM70.3169 13.0676V20.3523H68.3432V13.0676H70.3169Z" fill="#F92A47"/>
<path d="M76.8334 14.8096C76.6454 14.5562 76.3426 14.4295 75.9249 14.4295C75.663 14.4247 75.4042 14.4873 75.173 14.6116C74.9584 14.7282 74.7836 14.9076 74.6717 15.1263C74.5513 15.3721 74.4922 15.6439 74.4994 15.9181V20.3523H72.463V13.0676H74.4994V14.1761C74.6977 13.787 74.9986 13.4609 75.3688 13.2339C75.729 13.0176 76.165 12.9094 76.6768 12.9092C77.5329 12.9092 78.17 13.1547 78.5879 13.6456C79.0054 14.1366 79.2143 14.8201 79.2145 15.6964V20.3523H77.1154V15.9181C77.1154 15.4326 77.0214 15.0631 76.8334 14.8096Z" fill="#F92A47"/>
<path d="M81.2585 14.7145C81.6046 14.1478 82.0976 13.6878 82.684 13.3843C83.3211 13.0717 84.02 12.9092 84.7282 12.9092C85.4364 12.9092 86.1354 13.0717 86.7725 13.3843C87.3588 13.6879 87.8518 14.1479 88.198 14.7145C88.5477 15.2846 88.7227 15.9498 88.7227 16.7099C88.7362 17.4091 88.5543 18.098 88.198 18.6974C87.8537 19.2675 87.3604 19.7306 86.7725 20.0355C86.1354 20.3482 85.4364 20.5106 84.7282 20.5106C84.02 20.5106 83.3211 20.3482 82.684 20.0355C82.096 19.7307 81.6027 19.2676 81.2585 18.6974C80.902 18.098 80.7202 17.4091 80.7337 16.7099C80.7337 15.9498 80.9086 15.2847 81.2585 14.7145ZM83.0599 17.7947C83.2241 18.0968 83.4655 18.3489 83.759 18.5244C84.0525 18.6999 84.3872 18.7925 84.7282 18.7925C85.0692 18.7925 85.4039 18.6999 85.6974 18.5244C85.9909 18.3489 86.2323 18.0968 86.3965 17.7947C86.5741 17.4618 86.6632 17.088 86.655 16.7099C86.6625 16.3294 86.5735 15.9532 86.3965 15.6172C86.2363 15.3132 85.9947 15.0607 85.6994 14.8887C85.4021 14.7226 85.0679 14.6354 84.7282 14.6354C84.3885 14.6354 84.0543 14.7226 83.757 14.8887C83.4617 15.0607 83.2201 15.3131 83.0599 15.6172C82.8829 15.9532 82.794 16.3294 82.8015 16.7099C82.7933 17.088 82.8823 17.4618 83.0599 17.7947Z" fill="#F92A47"/>
<path d="M92.2821 17.7115C92.4666 18.0249 92.7308 18.2829 93.0473 18.4589C93.373 18.6405 93.74 18.7337 94.1122 18.7292C94.4234 18.73 94.7326 18.679 95.0272 18.5782C95.3122 18.4823 95.5809 18.3429 95.8239 18.1647C96.0481 18.0039 96.234 17.7947 96.3682 17.5525V19.6675C96.0824 19.9196 95.7461 20.1067 95.3822 20.2161C94.9247 20.3562 94.4483 20.4233 93.9702 20.4149C93.2507 20.4261 92.5391 20.2625 91.8956 19.9378C91.2969 19.6352 90.7941 19.1697 90.4442 18.5941C90.0853 17.9922 89.9021 17.3005 89.9158 16.5984C89.9158 15.835 90.0919 15.1671 90.4442 14.5946C90.7961 14.0226 91.2985 13.5602 91.8956 13.2589C92.5391 12.9342 93.2507 12.7706 93.9702 12.7818C94.4483 12.7734 94.9247 12.8405 95.3822 12.9806C95.7432 13.0892 96.0786 13.2704 96.3682 13.5133V15.6283C96.2311 15.3833 96.0394 15.1737 95.8081 15.0161C95.5592 14.8403 95.2852 14.7036 94.9956 14.6105C94.7104 14.5167 94.4123 14.4684 94.1122 14.4675C93.7442 14.4636 93.3815 14.5569 93.0604 14.7383C92.7393 14.9197 92.471 15.1826 92.2821 15.5011C92.089 15.8335 91.9908 16.2132 91.9982 16.5984C91.9894 16.9887 92.0877 17.3739 92.2821 17.7115Z" fill="#25293D"/>
<path d="M99.5234 19.9378C98.9514 19.6366 98.4776 19.1756 98.1587 18.61C97.8378 18.043 97.6774 17.3724 97.6776 16.5984C97.6776 15.814 97.838 15.1381 98.1587 14.5709C98.4766 14.0064 98.9508 13.5478 99.5234 13.251C100.112 12.9384 100.806 12.782 101.606 12.7818C102.405 12.7818 103.086 12.9276 103.649 13.2192C104.198 13.4979 104.648 13.9426 104.935 14.4913C105.229 15.0479 105.376 15.7184 105.376 16.5029C105.376 16.5984 105.374 16.6991 105.368 16.8051C105.365 16.8903 105.357 16.9752 105.345 17.0595H98.845V15.7874H103.562L103.01 16.5188C103.06 16.4368 103.1 16.3487 103.128 16.2565C103.161 16.1672 103.179 16.0733 103.183 15.9782C103.193 15.6592 103.125 15.3428 102.986 15.0559C102.859 14.8059 102.665 14.5967 102.426 14.4516C102.168 14.2989 101.873 14.2218 101.574 14.2289C101.222 14.2161 100.874 14.3073 100.573 14.4913C100.293 14.6809 100.078 14.953 99.9572 15.2705C99.8032 15.6793 99.7256 16.1134 99.7285 16.5507C99.717 16.9743 99.7894 17.3959 99.9414 17.791C100.068 18.1118 100.292 18.3844 100.58 18.5702C100.889 18.7574 101.245 18.8513 101.606 18.8406C102.008 18.8522 102.407 18.762 102.765 18.5782C103.097 18.3931 103.372 18.121 103.562 17.791L105.345 18.3476C105.002 19.0003 104.478 19.5389 103.838 19.8981C103.212 20.2427 102.463 20.4149 101.59 20.4149C100.801 20.4149 100.112 20.2559 99.5234 19.9378Z" fill="#25293D"/>
<path d="M108.926 20.2559H106.922V12.9409H108.926V20.2559ZM110.638 14.7935C110.471 14.7197 110.291 14.6843 110.109 14.6901C109.877 14.6838 109.649 14.7566 109.462 14.8969C109.275 15.0467 109.135 15.2484 109.06 15.4772C108.964 15.7667 108.919 16.0707 108.926 16.3758L108.358 15.8033C108.348 15.2676 108.461 14.7368 108.689 14.2528C108.889 13.8281 109.187 13.4574 109.557 13.1714C109.87 12.917 110.259 12.7744 110.661 12.766C110.918 12.7648 111.172 12.8134 111.411 12.909C111.637 12.9972 111.836 13.1456 111.986 13.3385L111.056 15.0877C110.931 14.9693 110.791 14.8702 110.638 14.7935Z" fill="#25293D"/>
<path d="M112.878 14.5947C113.226 14.0256 113.723 13.5636 114.313 13.2589C114.955 12.945 115.659 12.7818 116.372 12.7818C117.085 12.7818 117.789 12.945 118.431 13.2589C119.021 13.5637 119.518 14.0257 119.867 14.5947C120.219 15.1671 120.395 15.835 120.395 16.5984C120.409 17.3005 120.226 17.9922 119.867 18.5941C119.52 19.1666 119.023 19.6316 118.431 19.9378C117.789 20.2518 117.085 20.4149 116.372 20.4149C115.659 20.4149 114.955 20.2518 114.313 19.9378C113.721 19.6317 113.224 19.1667 112.878 18.5941C112.519 17.9922 112.336 17.3005 112.349 16.5984C112.349 15.8351 112.525 15.1672 112.878 14.5947ZM114.692 17.6877C114.857 17.9911 115.101 18.2441 115.396 18.4204C115.692 18.5966 116.029 18.6896 116.372 18.6896C116.716 18.6896 117.053 18.5966 117.348 18.4204C117.644 18.2441 117.887 17.9911 118.052 17.6877C118.231 17.3534 118.321 16.9781 118.313 16.5984C118.32 16.2162 118.231 15.8385 118.052 15.5011C117.891 15.1958 117.648 14.9423 117.35 14.7696C117.051 14.6027 116.714 14.5152 116.372 14.5152C116.03 14.5152 115.694 14.6027 115.394 14.7696C115.097 14.9422 114.853 15.1957 114.692 15.5011C114.514 15.8385 114.424 16.2162 114.432 16.5984C114.424 16.9781 114.513 17.3534 114.692 17.6877Z" fill="#25293D"/>
<path d="M123.14 18.4192C123.373 18.5789 123.625 18.7097 123.889 18.8087C124.104 18.8896 124.331 18.9326 124.56 18.936C124.833 18.936 125.044 18.875 125.191 18.7531C125.264 18.6926 125.322 18.6158 125.36 18.5289C125.398 18.4419 125.416 18.3472 125.412 18.2521C125.416 18.0729 125.351 17.8989 125.23 17.7671C125.079 17.614 124.9 17.4924 124.702 17.4094C124.414 17.2819 124.119 17.1704 123.818 17.0754C123.482 16.9483 123.155 16.7968 122.84 16.6222C122.53 16.4523 122.263 16.2129 122.059 15.9225C121.854 15.631 121.752 15.2573 121.752 14.8014C121.74 14.404 121.862 14.0143 122.099 13.6962C122.343 13.3848 122.668 13.1481 123.037 13.0124C123.459 12.854 123.905 12.7758 124.355 12.7819C124.744 12.779 125.132 12.8326 125.506 12.9409C125.853 13.0422 126.186 13.1836 126.5 13.3622C126.795 13.5291 127.065 13.735 127.305 13.9745L126.406 15.2467C126.138 14.9572 125.82 14.7199 125.467 14.547C125.138 14.3751 124.773 14.2826 124.402 14.2767C124.211 14.266 124.022 14.3131 123.858 14.4118C123.793 14.4564 123.741 14.5173 123.706 14.5883C123.672 14.6594 123.656 14.7383 123.661 14.8173C123.661 14.8977 123.679 14.977 123.713 15.0498C123.747 15.1225 123.797 15.187 123.858 15.2387C124.025 15.3819 124.218 15.4925 124.426 15.5647C124.673 15.6601 124.954 15.7768 125.27 15.9145C125.642 16.0551 126.003 16.2225 126.35 16.4154C126.663 16.5847 126.935 16.8208 127.147 17.1072C127.347 17.383 127.447 17.7435 127.447 18.1886C127.447 18.9201 127.21 19.4899 126.737 19.8981C126.264 20.3061 125.612 20.5101 124.781 20.5103C123.871 20.5221 122.978 20.259 122.217 19.7549C121.888 19.5372 121.579 19.2897 121.294 19.0154L122.288 17.7274C122.553 17.9812 122.838 18.2125 123.14 18.4192Z" fill="#25293D"/>
<path d="M17.1933 28.8889C9.66726 22.4498 0 20.2051 0 20.2051C0 20.2051 7.56624 9.84559 6.4573 0.708324C7.87746 0.151635 10.5175 -0.165211 13.5118 0.0888478C12.5501 6.59753 9.05228 13.4173 8.98499 13.582C13.6156 9.68933 16.8877 3.63828 17.8074 1.82031C19.8979 3.15692 21.5431 5.08069 22.5347 7.34816L10.2383 16.8189C10.2383 16.8189 15.7911 22.7457 17.1933 28.8889Z" fill="#25293D"/>
<path d="M40 8.06808C39.986 17.063 36.8971 24.1686 31.4619 28.8889L18.3121 24.6516C16.533 20.812 13.5385 17.1649 13.5385 17.1649L23.7558 9.44236C24.1108 10.1602 24.6294 10.7857 25.2701 11.2689C25.9109 11.7522 26.6561 12.0799 27.4466 12.226C28.237 12.372 29.0508 12.3324 29.8232 12.1103C30.5956 11.8881 31.3051 11.4896 31.8954 10.9464C32.0208 14.6397 29.911 17.5192 29.911 17.5192C34.8653 17.4699 40 8.06808 40 8.06808Z" fill="#25293D"/>
<path d="M20.0001 16.8889L25.3335 18.745L20.5814 19.1111L20.0001 16.8889Z" fill="#F92A47"/>
</svg>
