<svg width="90" height="90" viewBox="0 0 90 90" fill="none" xmlns="http://www.w3.org/2000/svg">
<path d="M45 90C69.8528 90 90 69.8528 90 45C90 20.1472 69.8528 0 45 0C20.1472 0 0 20.1472 0 45C0 69.8528 20.1472 90 45 90Z" fill="#F92A47"/>
<path d="M57.042 56.3878C59.7153 56.3878 61.8824 54.1949 61.8824 51.4898V46.5918C61.8824 43.8868 59.7153 41.6939 57.042 41.6939C55.7054 41.6939 54.6218 42.7903 54.6218 44.1429V53.9388C54.6218 55.2913 55.7054 56.3878 57.042 56.3878ZM57.042 56.3878C57.042 59.0928 54.8749 61.2857 52.2017 61.2857H46.1513M61.8824 50.2653V44.1429C61.8824 34.6751 54.2975 27 44.9412 27C35.5848 27 28 34.6751 28 44.1429V50.2653M46.1513 61.2857L43.3294 62.6803C42.9431 62.8712 42.4779 62.7931 42.1751 62.4867L41.8358 62.1433C41.3954 61.6978 41.4685 60.9617 41.9878 60.6114L42.2759 60.4171C42.5323 60.2441 42.8543 60.1995 43.148 60.2963L46.1513 61.2857ZM32.8403 56.3878C34.177 56.3878 35.2605 55.2913 35.2605 53.9388V44.1429C35.2605 42.7903 34.177 41.6939 32.8403 41.6939C30.1671 41.6939 28 43.8868 28 46.5918V51.4898C28 54.1949 30.1671 56.3878 32.8403 56.3878Z" stroke="white" stroke-width="2"/>
</svg>
