<svg width="90" height="90" viewBox="0 0 90 90" fill="none" xmlns="http://www.w3.org/2000/svg">
<path d="M45 90C69.8528 90 90 69.8528 90 45C90 20.1472 69.8528 0 45 0C20.1472 0 0 20.1472 0 45C0 69.8528 20.1472 90 45 90Z" fill="#F92A47"/>
<path d="M29.8565 58.5428L29.647 59.5206L29.8565 58.5428ZM60.1435 58.5428L60.353 59.5206L60.1435 58.5428ZM60.1435 31.6043L60.353 30.6265V30.6265L60.1435 31.6043ZM29.8565 31.6043L30.066 32.5821L29.8565 31.6043ZM42.4286 39.9307L42.9833 39.0987C42.6764 38.8941 42.2819 38.875 41.9567 39.049C41.6316 39.223 41.4286 39.5619 41.4286 39.9307H42.4286ZM42.4286 50.2164H41.4286C41.4286 50.5852 41.6316 50.9241 41.9567 51.0981C42.2819 51.2721 42.6764 51.253 42.9833 51.0485L42.4286 50.2164ZM50.1429 45.0736L50.6976 45.9056C50.9758 45.7201 51.1429 45.4079 51.1429 45.0736C51.1429 44.7392 50.9758 44.427 50.6976 44.2415L50.1429 45.0736ZM26 35.1378V55.0093H28V35.1378H26ZM64 55.0093V35.1378H62V55.0093H64ZM29.647 59.5206C39.7675 61.6893 50.2325 61.6893 60.353 59.5206L59.934 57.565C50.0897 59.6745 39.9103 59.6745 30.066 57.565L29.647 59.5206ZM60.353 30.6265C50.2325 28.4578 39.7675 28.4578 29.647 30.6265L30.066 32.5821C39.9103 30.4726 50.0897 30.4726 59.934 32.5821L60.353 30.6265ZM64 35.1378C64 32.9623 62.4802 31.0823 60.353 30.6265L59.934 32.5821C61.139 32.8403 62 33.9053 62 35.1378H64ZM62 55.0093C62 56.2418 61.139 57.3068 59.934 57.565L60.353 59.5206C62.4802 59.0648 64 57.1849 64 55.0093H62ZM26 55.0093C26 57.1849 27.5198 59.0648 29.647 59.5206L30.066 57.565C28.861 57.3068 28 56.2418 28 55.0093H26ZM28 35.1378C28 33.9053 28.861 32.8403 30.066 32.5821L29.647 30.6265C27.5198 31.0823 26 32.9623 26 35.1378H28ZM41.4286 39.9307V50.2164H43.4286V39.9307H41.4286ZM42.9833 51.0485L50.6976 45.9056L49.5882 44.2415L41.8739 49.3844L42.9833 51.0485ZM50.6976 44.2415L42.9833 39.0987L41.8739 40.7628L49.5882 45.9056L50.6976 44.2415Z" fill="white"/>
</svg>
