<svg width="90" height="90" viewBox="0 0 90 90" fill="none" xmlns="http://www.w3.org/2000/svg">
<path d="M45 90C69.8528 90 90 69.8528 90 45C90 20.1472 69.8528 0 45 0C20.1472 0 0 20.1472 0 45C0 69.8528 20.1472 90 45 90Z" fill="#F92A47"/>
<path d="M34.7837 41.6641V51.1506C35.3912 52.5058 38.3138 55.2162 45.1438 55.2162C51.9738 55.2162 54.7045 52.5058 55.2161 51.1506V40.6216" stroke="white" stroke-width="2"/>
<path d="M44.2023 27.274L28.5971 35.9695C27.9066 36.3543 27.9144 37.3503 28.6109 37.7241L44.2162 46.1005C44.5143 46.2605 44.873 46.259 45.1697 46.0964L60.4564 37.7201C61.1427 37.344 61.1505 36.3608 60.4702 35.9739L45.1834 27.2784C44.8796 27.1055 44.5076 27.1039 44.2023 27.274Z" stroke="white" stroke-width="2"/>
<path d="M43.5405 38.6757L50.8378 43.2365L50.9072 57.7306M50.9072 57.7306L48.8395 63H53.2703L50.9072 57.7306Z" stroke="white" stroke-width="2"/>
</svg>
